<svg width="200" height="180" viewBox="0 0 200 180" fill="none" xmlns="http://www.w3.org/2000/svg">
<path d="M0 179.805C63.7908 179.548 135.344 179.544 199.135 179.805C135.344 180.067 63.7908 180.063 0 179.805Z" fill="#263238"/>
<path d="M72.012 129.614L59.8381 144.794C57.4941 147.678 55.5005 150.246 54.6123 151.655V151.68C54.3563 151.988 54.1874 152.344 54.1188 152.717C54.116 152.728 54.116 152.74 54.1188 152.751C54.6517 153.927 81.1067 170.609 82.2466 170.925C83.3865 171.241 84.5412 168.458 84.1218 167.13C83.7023 165.802 76.9072 155.521 76.9072 155.521L88.8985 140.278L72.012 129.614Z" fill="#D3766A"/>
<path d="M63.4697 140.257L81.1557 150.115C81.1557 150.115 98.363 131.705 102.375 120.269C105.212 112.123 87.7139 72.6201 87.7139 72.6201L68.4686 72.2743C68.4686 72.2743 83.1148 110.394 81.9255 114.201C80.4401 118.869 63.4697 140.257 63.4697 140.257Z" fill="#263238"/>
<path d="M81.1415 109.137C78.2201 97.7519 68.4297 72.2827 68.4297 72.2827L79.4341 72.4767L81.1415 109.137Z" fill="#37474F"/>
<path d="M54.1238 152.705C54.1238 152.705 54.1238 152.726 54.1238 152.73C54.6617 153.911 81.1166 170.592 82.2515 170.908C83.3865 171.225 84.5511 168.441 84.1267 167.113C83.8948 166.379 81.8173 163.061 79.947 160.156C81.6742 162.972 85.089 171.119 57.6077 147.564C56.2605 149.276 55.1847 150.723 54.5975 151.655C54.5953 151.659 54.5942 151.663 54.5942 151.667C54.5942 151.672 54.5953 151.676 54.5975 151.68C54.3524 151.987 54.1906 152.337 54.1238 152.705Z" fill="#263238"/>
<path d="M46.8053 98.882L34.5229 86.3498C31.6805 83.8197 27.6538 79.9108 26.8938 79.8307C25.4134 80.0415 0.670858 99.0042 0.078694 99.9066C-0.51347 100.809 2.44242 102.323 4.0758 102.238C5.70918 102.154 18.8256 98.5193 18.8256 98.5193L31.8483 111.026L46.8053 98.882Z" fill="#D3766A"/>
<path d="M4.07087 102.238C4.89496 102.192 8.58118 101.264 12.0651 100.345C8.08278 100.767 0.433996 100.303 34.0097 85.8859C31.2216 83.3558 27.5946 79.9065 26.8988 79.8348C25.4184 80.0457 0.670861 99.0042 0.0786975 99.9066C-0.513466 100.809 2.44242 102.323 4.07087 102.238Z" fill="#263238"/>
<path d="M87.5368 72.6241C87.5368 72.6241 83.0956 85.5021 82.4837 85.7973C81.7879 86.1304 78.5655 87.0033 77.4404 87.3828C77.4404 87.3828 70.1963 113.527 64.4473 120.851C62.4735 123.381 53.0383 126.173 48.2122 123.74C36.8969 118.026 22.7837 102.318 22.7837 102.318L37.8839 89.7737L52.2438 103.356C55.2787 97.9499 56.5025 87.2394 56.5025 87.2394C56.5025 87.2394 56.6801 76.6975 60.9437 72.1434L87.5368 72.6241Z" fill="#263238"/>
<path d="M84.5267 85.2913C81.2628 85.7517 78.1151 86.6859 75.2198 88.0533C75.1508 88.087 75.1804 88.1966 75.2643 88.1713C78.378 87.29 81.4573 86.3286 84.5612 85.4347C84.5835 85.4308 84.603 85.4194 84.6155 85.4032C84.628 85.387 84.6324 85.3672 84.6278 85.3482C84.6233 85.3292 84.61 85.3125 84.5911 85.3019C84.5721 85.2912 84.5489 85.2874 84.5267 85.2913Z" fill="#37474F"/>
<path d="M83.3078 74.9476C83.3078 74.8928 83.1943 74.8886 83.1795 74.9476C82.8637 75.9849 82.5676 78.8608 82.4097 79.9234C82.3258 80.4716 82.232 81.0197 82.1531 81.5679C82.0741 82.1161 82.0149 82.6769 81.8817 83.2167C81.852 83.4559 81.7576 83.6859 81.606 83.8886C81.4545 84.0914 81.2498 84.2612 81.0082 84.3847C80.7768 84.4607 80.5205 84.4595 80.2901 84.3814C80.0597 84.3033 79.8721 84.1539 79.7647 83.963C79.5347 83.4931 79.4596 82.9783 79.5475 82.4745C79.5772 81.9179 79.6166 81.3655 79.6512 80.8089C79.7351 79.5439 80.0756 76.512 80.1446 75.247C80.1446 75.1922 80.0459 75.1711 80.0361 75.2259C79.7203 76.4656 79.286 79.4722 79.138 80.7288C79.059 81.3838 78.9998 82.0374 78.9603 82.6896C78.8871 83.2111 78.997 83.7396 79.2761 84.2076C79.3987 84.4075 79.5792 84.5771 79.8003 84.7004C80.0215 84.8237 80.276 84.8965 80.5394 84.9118C80.5092 84.9779 80.4909 85.0476 80.4851 85.1184C80.4654 85.2683 80.4654 85.4197 80.4851 85.5696C80.4963 85.6352 80.5128 85.7 80.5345 85.7636C80.554 85.8392 80.5873 85.9118 80.6332 85.9786L80.6036 85.928C80.6381 86.0208 80.6973 86.1009 80.7319 86.1937C80.7319 86.2026 80.736 86.2112 80.7434 86.2175C80.7508 86.2239 80.7609 86.2274 80.7714 86.2274C80.7818 86.2274 80.7919 86.2239 80.7993 86.2175C80.8067 86.2112 80.8108 86.2026 80.8108 86.1937C80.8108 86.0587 80.875 85.9365 80.8947 85.8015C80.912 85.6529 80.912 85.5032 80.8947 85.3546C80.8947 85.2365 80.8552 85.1058 80.8454 84.9961C80.8454 84.9582 80.8454 84.9202 80.8454 84.8781C81.2372 84.7979 81.5853 84.606 81.8323 84.3341C82.1775 83.8978 82.3834 83.3919 82.4294 82.8667C82.538 82.2384 82.6465 81.6016 82.7255 80.9818C82.8192 80.2607 82.9031 79.5397 82.9821 78.8144C83.061 78.0891 83.3719 75.6349 83.3078 74.9476Z" fill="#37474F"/>
<path d="M70.6945 41.5129C68.7651 40.8425 63.3616 41.3147 61.1804 43.3472C58.9993 45.3797 58.4022 49.1031 59.2065 49.5922C60.0109 50.0814 63.8945 50.3639 66.7616 49.5079C69.6286 48.6519 71.642 41.846 70.6945 41.5129Z" fill="#263238"/>
<path d="M70.6946 41.5256C70.7637 41.5256 70.7933 41.4286 70.6946 41.416C68.9477 41.1208 66.9689 41.3527 65.2122 41.5214C63.7745 41.5907 62.3695 41.9152 61.0867 42.4744C60.488 42.7677 59.9707 43.1684 59.5703 43.6488C59.17 44.1292 58.8961 44.678 58.7674 45.2574C58.4467 46.573 58.348 48.2091 58.876 49.4742C58.876 49.5121 58.9698 49.5121 58.9648 49.4742C58.6539 46.8556 58.5602 43.7014 61.8023 42.4238C64.5756 41.3443 67.7683 41.6394 70.6946 41.5256Z" fill="#263238"/>
<path d="M59.6411 48.9851C57.8498 48.9219 52.7325 51.0935 51.3903 53.8428C50.0481 56.5921 51.9183 61.1842 52.7128 61.6185C53.5073 62.0528 57.9337 59.8812 59.5967 58.0638C60.7119 56.8451 60.3566 55.1837 60.2826 53.5729C60.179 51.1989 59.9174 48.9935 59.6411 48.9851Z" fill="#263238"/>
<path d="M60.7215 57.8571C61.8219 55.0318 60.4748 51.8735 59.8382 49.082C59.8382 49.0567 59.779 49.0609 59.779 49.082C59.9171 51.6922 61.2347 54.2096 60.7659 56.845C60.6648 57.6238 60.3462 58.3705 59.837 59.0221C59.3277 59.6737 58.6427 60.2113 57.8396 60.5895C56.3592 61.2262 54.6518 61.3696 53.048 61.6057C52.9444 61.6057 52.9839 61.7576 53.0875 61.7449C56.2704 61.3485 59.5964 60.775 60.7215 57.8571Z" fill="#263238"/>
<path d="M59.2065 49.196C59.3052 49.1749 59.2658 49.0442 59.172 49.0695C56.4777 49.7105 53.1813 50.7562 51.4147 52.7086C49.5 54.817 50.4623 57.4946 51.3258 59.7927C51.3281 59.7972 51.3319 59.8011 51.3368 59.8038C51.3416 59.8065 51.3472 59.8079 51.353 59.8079C51.3587 59.8079 51.3644 59.8065 51.3692 59.8038C51.374 59.8011 51.3778 59.7972 51.3801 59.7927C50.5363 57.4651 49.7319 54.6145 51.8292 52.5736C53.6353 50.811 56.6602 49.8412 59.2065 49.196Z" fill="#263238"/>
<path d="M53.5021 61.1588C51.1235 62.584 48.1528 64.7683 48.5674 67.0158C48.9819 69.2634 51.9328 72.6536 52.2289 72.6621C52.525 72.6705 57.282 70.3471 58.3479 67.7158C59.4138 65.0846 53.808 60.9732 53.5021 61.1588Z" fill="#263238"/>
<path d="M52.4607 72.8433C50.5559 71.3422 48.3402 69.2971 48.3155 66.9399C48.3155 64.6586 51.1678 62.6093 53.1417 61.4075V61.3738C50.9951 62.4575 48.207 64.4815 48.1231 66.7965C48.0392 69.1115 50.319 71.6711 52.4311 72.915C52.4508 72.9361 52.5002 72.8729 52.4607 72.8433Z" fill="#263238"/>
<path d="M53.2306 71.726C51.9031 71.5995 49.3371 72.2278 47.684 73.7374C44.8564 76.3181 44.0224 75.0024 39.7095 73.6826C36.0677 72.5525 33.0674 75.1711 33.5855 77.6042C33.5855 77.6042 34.0543 75.2006 36.872 75.4958C40.2424 75.8458 44.2741 81.3993 49.5049 79.9866C56.3049 78.165 53.2306 71.726 53.2306 71.726Z" fill="#263238"/>
<path d="M50.8521 72.3122C50.8691 72.3089 50.8839 72.2999 50.8931 72.2872C50.9024 72.2746 50.9054 72.2593 50.9014 72.2448C50.8975 72.2302 50.887 72.2176 50.8722 72.2097C50.8574 72.2018 50.8395 72.1993 50.8225 72.2026C50.1117 72.3248 49.4329 72.5562 48.819 72.8857C48.0196 73.3074 47.4866 73.9736 46.7365 74.4501C44.8219 75.6603 42.6161 74.3236 40.9037 73.4972C38.614 72.3839 35.969 72.5273 34.3011 74.4164C34.2959 74.422 34.2935 74.4291 34.2944 74.4363C34.2953 74.4434 34.2995 74.4499 34.306 74.4544C34.3126 74.4588 34.3209 74.4609 34.3293 74.4601C34.3376 74.4593 34.3452 74.4557 34.3505 74.4501C34.87 73.8694 35.5666 73.4221 36.3639 73.1573C37.1613 72.8925 38.0285 72.8204 38.8706 72.949C40.509 73.2146 41.7624 74.2773 43.3119 74.758C44.363 75.0869 45.5226 75.2682 46.5342 74.758C47.0592 74.4346 47.5437 74.0658 47.9801 73.6574C48.7885 73.0082 49.7768 72.5453 50.8521 72.3122Z" fill="#263238"/>
<path d="M53.5316 72.4049C53.5316 72.3796 53.4724 72.4049 53.4773 72.4049C53.9017 74.1549 54.4001 75.947 53.5661 77.6801C52.668 79.5439 50.3931 80.6318 48.1084 80.7583C45.5473 80.9059 44.1606 79.3457 42.5025 77.9542C41.3084 76.9464 40.0352 76.0145 38.3673 75.6518C38.3179 75.6518 38.2933 75.7109 38.3673 75.7277C40.8642 76.5289 42.4187 78.2029 44.2889 79.7041C45.8384 80.9312 47.605 81.1926 49.6184 80.674C54.0596 79.5481 54.8097 75.7868 53.5316 72.4049Z" fill="#263238"/>
<path d="M69.1106 38.3715C68.548 37.76 67.4426 38.5191 68.0101 39.1347C68.5776 39.7503 69.678 38.9829 69.1106 38.3715Z" fill="#498AEC"/>
<path d="M69.6632 39.3962C69.5442 39.2726 69.3728 39.1942 69.1864 39.178C69.0001 39.1619 68.8138 39.2092 68.668 39.3098C68.5223 39.4105 68.429 39.5562 68.4084 39.7153C68.3877 39.8744 68.4415 40.034 68.5579 40.1594C68.6769 40.283 68.8483 40.3614 69.0347 40.3776C69.221 40.3937 69.4074 40.3464 69.5531 40.2458C69.6988 40.1452 69.7921 39.9995 69.8127 39.8403C69.8334 39.6812 69.7796 39.5216 69.6632 39.3962Z" fill="#498AEC"/>
<path d="M70.4181 40.3322C70.2951 40.2207 70.1273 40.153 69.9483 40.1428C69.7693 40.1326 69.5925 40.1806 69.4532 40.2772C69.314 40.3738 69.2226 40.5118 69.1974 40.6636C69.1723 40.8153 69.2153 40.9696 69.3177 41.0954C69.8802 41.7026 70.9807 40.9478 70.4181 40.3322Z" fill="#498AEC"/>
<path d="M71.2865 41.1545C71.1635 41.0429 70.9957 40.9753 70.8167 40.9651C70.6377 40.9549 70.4609 41.0029 70.3216 41.0995C70.1824 41.1961 70.091 41.3341 70.0659 41.4859C70.0407 41.6376 70.0837 41.7919 70.1861 41.9177C70.7486 42.546 71.854 41.7659 71.2865 41.1545Z" fill="#498AEC"/>
<path d="M72.3327 41.8504C72.2136 41.7268 72.0422 41.6484 71.8559 41.6323C71.6695 41.6161 71.4832 41.6635 71.3375 41.7641C71.1918 41.8647 71.0984 42.0104 71.0778 42.1695C71.0572 42.3286 71.1109 42.4882 71.2273 42.6136C71.3464 42.7372 71.5177 42.8156 71.7041 42.8318C71.8905 42.848 72.0768 42.8006 72.2225 42.7C72.3682 42.5994 72.4615 42.4537 72.4822 42.2946C72.5028 42.1355 72.4491 41.9758 72.3327 41.8504Z" fill="#498AEC"/>
<path d="M73.4628 42.3564C73.3437 42.2328 73.1724 42.1544 72.986 42.1382C72.7996 42.1221 72.6133 42.1694 72.4676 42.2701C72.3219 42.3707 72.2286 42.5164 72.2079 42.6755C72.1873 42.8346 72.241 42.9942 72.3574 43.1196C72.92 43.7311 74.0254 42.9678 73.4628 42.3564Z" fill="#498AEC"/>
<path d="M53.8772 70.1911C55.3823 67.8972 61.9553 59.4637 62.9817 56.0903C64.0081 52.7169 67.8424 48.2261 69.6436 47.5514C71.4447 46.8767 69.7719 48.3736 68.5431 49.5754C67.3144 50.7772 65.4441 56.1198 64.324 58.2703C63.2038 60.4209 57.1292 70.8236 55.8758 72.0633C54.6223 73.3031 53.8772 70.1911 53.8772 70.1911Z" fill="#498AEC"/>
<path opacity="0.3" d="M53.8772 70.1911C55.3823 67.8972 61.9553 59.4637 62.9817 56.0903C64.0081 52.7169 67.8424 48.2261 69.6436 47.5514C71.4447 46.8767 69.7719 48.3736 68.5431 49.5754C67.3144 50.7772 65.4441 56.1198 64.324 58.2703C63.2038 60.4209 57.1292 70.8236 55.8758 72.0633C54.6223 73.3031 53.8772 70.1911 53.8772 70.1911Z" fill="black"/>
<path d="M74.1291 51.8948C77.9387 53.6574 95.0621 57.5031 100.604 54.2899C106.254 51.0135 111.204 36.9043 111.954 35.1543C113.75 31.0557 98.6299 29.7569 98.0821 30.8828C96.207 34.876 93.6409 45.4938 91.5881 45.945C87.2653 46.9022 83.1646 46.86 76.2905 47.5516C71.4792 48.0281 69.9248 49.9551 74.1291 51.8948Z" fill="#D3766A"/>
<path d="M111.302 36.145C112.289 34.8252 116.202 28.3947 116.804 26.417C117.406 24.4393 118.65 18.6413 116.922 18.0931C115.195 17.545 114.672 19.219 114.672 19.219C114.672 19.219 114.746 16.689 112.95 16.2673C111.154 15.8456 110.423 18.5106 110.423 18.5106C110.423 18.5106 110.28 15.9173 108.45 15.6137C106.619 15.3101 106.421 18.051 106.421 18.051C106.421 18.051 106.421 15.6769 104.788 15.9426C102.814 16.2926 103.416 20.6696 102.562 22.8117C102.37 23.2966 97.8054 32.4259 97.8054 32.4259L111.302 36.145Z" fill="#D3766A"/>
<path d="M106.476 17.7982C106.895 21.0198 106.431 22.4914 104.803 25.363C104.768 25.4178 104.862 25.4727 104.902 25.4136C106.792 22.7276 107.69 20.9565 106.653 17.7729C106.594 17.6169 106.446 17.6675 106.476 17.7982Z" fill="#263238"/>
<path d="M110.424 18.2366C110.518 21.61 110.029 23.2166 108.583 26.3286C108.583 26.375 108.647 26.4087 108.672 26.3665C110.389 23.4148 111.238 21.6269 110.621 18.2619C110.577 18.1101 110.424 18.0891 110.424 18.2366Z" fill="#263238"/>
<path d="M114.594 19.3751C114.411 22.6515 113.962 24.4352 112.127 27.2941C112.117 27.3075 112.114 27.3237 112.118 27.3392C112.122 27.3546 112.133 27.368 112.149 27.3763C112.164 27.3847 112.183 27.3874 112.201 27.3839C112.22 27.3803 112.235 27.3708 112.245 27.3574C114.471 24.5912 115.053 22.3816 114.712 19.3919C114.688 19.1853 114.609 19.1684 114.594 19.3751Z" fill="#263238"/>
<path d="M96.7447 34.2475C96.7447 34.2475 95.3531 30.3639 95.1804 28.5422C95.0077 26.7206 97.2924 19.7334 99.0739 20.0708C101.393 20.4924 101.003 24.7598 100.495 26.8176C100.495 26.8176 105.854 27.8169 106.353 30.9205C106.851 34.024 96.7447 34.2475 96.7447 34.2475Z" fill="#D3766A"/>
<path d="M99.6759 20.3661C101.457 22.0528 100.584 24.7347 100.263 26.7714C100.258 26.801 100.261 26.8313 100.272 26.8597C100.283 26.8881 100.302 26.9138 100.327 26.9348C100.352 26.9558 100.383 26.9714 100.416 26.9804C100.45 26.9893 100.485 26.9914 100.52 26.9864C102.735 27.5346 105.672 28.8545 106.441 30.8237C106.441 30.836 106.447 30.8478 106.457 30.8565C106.467 30.8652 106.481 30.8701 106.496 30.8701C106.51 30.8701 106.524 30.8652 106.534 30.8565C106.544 30.8478 106.55 30.836 106.55 30.8237C106.056 28.6141 103.288 27.1129 100.816 26.6491C101.181 24.5702 101.916 21.8546 99.6858 20.3746C99.6809 20.3451 99.6661 20.3577 99.6759 20.3661Z" fill="#263238"/>
<path d="M87.8525 72.6284L60.7117 72.1393C60.7117 72.1393 64.5262 54.041 67.6202 49.6429C69.678 46.6912 72.3822 46.6026 74.9927 47.7664C75.6441 48.0574 84.3686 54.2223 85.5924 56.706C86.678 58.8987 85.1434 61.8377 85.1434 61.8377L87.8525 72.6284Z" fill="#498AEC"/>
<path d="M75.8809 61.9138C77.045 61.777 78.2194 61.7135 79.3944 61.724C79.9816 61.724 80.559 61.7704 81.1413 61.8168C81.4324 61.8379 81.7186 61.8547 82.0098 61.8674C82.3144 61.8871 82.6207 61.8772 82.9227 61.8379C82.9474 61.8379 82.9573 61.8632 82.9227 61.8716C82.646 61.9391 82.364 61.9899 82.0789 62.0234C81.8021 62.0502 81.5234 62.06 81.2449 62.0529C80.6527 62.0529 80.0606 62.015 79.4684 62.0023C78.2742 61.9728 77.08 61.9475 75.8858 62.0023C75.8809 61.9981 75.8464 61.918 75.8809 61.9138Z" fill="#263238"/>
<path d="M73.3149 63.3304C74.2316 63.0608 75.1658 62.8369 76.1129 62.6599C76.6064 62.5714 77.0653 62.5081 77.5439 62.4533L78.2348 62.3858C78.4914 62.3648 78.7283 62.3859 78.9997 62.3479C79.0244 62.3479 79.0342 62.3774 78.9997 62.3816C78.7628 62.4111 78.5062 62.4744 78.294 62.5166L77.5834 62.6389L76.1622 62.8876C75.2098 63.0479 74.2673 63.2123 73.3248 63.3979C73.2804 63.4105 73.2705 63.3473 73.3149 63.3304Z" fill="#263238"/>
<path d="M69.6782 48.0784C72.7525 47.6568 70.7737 59.6872 67.0332 63.5666C64.7089 65.9828 63.7171 59.3498 64.6053 56.3601C65.4936 53.3705 68.3409 48.264 69.6782 48.0784Z" fill="#D3766A"/>
<path d="M70.1759 53.2356C64.3036 61.104 57.5579 70.0773 51.809 70.1869C46.6127 70.2881 38.13 66.7629 28.8922 62.9889C27.0565 62.2383 34.6313 50.3387 36.4917 51.3127C40.1582 53.2187 48.029 58.3758 50.4963 58.6204C51.5573 58.73 60.4299 52.8476 66.9091 49.0315C72.6038 45.675 71.3158 51.7049 70.1759 53.2356Z" fill="#D3766A"/>
<path d="M66.6728 58.4179L66.278 58.7299C66.7912 58.1058 67.2847 57.4607 67.7584 56.7944H67.7337C67.1021 57.4649 66.4902 58.1438 65.8931 58.848C65.6118 59.1811 64.6742 60.404 64.3485 60.7708C64.314 60.813 64.388 60.91 64.4275 60.8678C64.7334 60.5136 65.7105 59.4383 65.972 59.1305C66.0786 59.0637 66.1807 58.9919 66.278 58.9155C66.4408 58.789 66.5938 58.6625 66.7468 58.5233C67.0478 58.2492 67.339 57.9667 67.6301 57.68C67.3143 57.9287 66.9985 58.1775 66.6728 58.4179Z" fill="#263238"/>
<path d="M32.0068 64.0515C30.2303 63.71 22.1374 61.5468 20.0599 60.5137C17.9824 59.4806 12.3124 56.1409 13.0773 54.7114C13.8422 53.2819 15.5989 54.1464 15.5989 54.1464C15.5989 54.1464 13.4622 52.4091 14.385 51.0302C15.3078 49.6513 17.9873 51.0724 17.9873 51.0724C17.9873 51.0724 15.9443 49.1537 17.0004 47.8339C18.0564 46.5141 20.4547 48.3273 20.4547 48.3273C20.4547 48.3273 18.4808 46.6406 19.8773 45.8647C21.5502 44.9286 24.7627 48.3736 27.1412 49.3688C27.684 49.5923 38.4663 53.2777 38.4663 53.2777L32.0068 64.0515Z" fill="#D3766A"/>
<path d="M20.2174 48.1628C22.591 50.6928 24.1651 51.4476 27.6688 52.4892C27.7379 52.4892 27.7181 52.603 27.6688 52.5861C24.0664 51.8229 21.9741 51.1271 20.0693 48.2513C19.9756 48.1122 20.1187 48.0278 20.2174 48.1628Z" fill="#263238"/>
<path d="M17.8041 50.8531C20.533 53.2988 22.2059 54.1295 25.8082 55.4536C25.8575 55.4536 25.8082 55.5506 25.7737 55.5337C22.0924 54.488 20.0346 53.7416 17.6807 50.9796C17.5722 50.8658 17.6758 50.7435 17.8041 50.8531Z" fill="#263238"/>
<path d="M15.7857 54.1969C18.6281 56.398 20.4145 57.3805 24.1056 58.2787C24.1239 58.2821 24.14 58.2915 24.1501 58.305C24.1603 58.3184 24.1638 58.3347 24.1599 58.3504C24.156 58.3661 24.1449 58.3797 24.1292 58.3884C24.1135 58.3971 24.0943 58.4001 24.076 58.3968C20.2072 57.7896 17.9669 56.5794 15.7166 54.277C15.5637 54.1168 15.6031 54.0578 15.7857 54.1969Z" fill="#263238"/>
<path d="M29.4722 30.5287L6.54224 47.1868L9.2559 49.9143L32.1859 33.2562L29.4722 30.5287Z" fill="#37474F"/>
<path d="M32.1834 33.2542L9.25342 49.9122L20.5939 61.3107L43.5239 44.6526L32.1834 33.2542Z" fill="#455A64"/>
<path d="M29.7533 30.8115L6.82324 47.4696L8.97436 49.6317L31.9044 32.9737L29.7533 30.8115Z" fill="white"/>
<path d="M10.0127 48.1121C16.8275 42.9677 24.4368 37.448 31.4688 32.5312C24.6539 37.663 17.0446 43.1912 10.0226 48.1121H10.0127Z" fill="#DBDBDB"/>
<path d="M9.58813 47.6864C16.403 42.5546 24.0123 37.0264 31.0393 32.1055C24.2244 37.2373 16.6151 42.7654 9.58813 47.7074V47.6864Z" fill="#DBDBDB"/>
<path d="M9.16846 47.2604C15.9833 42.1244 23.5728 36.6004 30.6147 31.6837C23.8048 36.8155 16.1708 42.3394 9.16846 47.2604Z" fill="#DBDBDB"/>
<path d="M8.76882 46.8388C15.559 41.7028 23.1683 36.1789 30.1953 31.2579C23.3805 36.3897 15.7711 41.9179 8.74414 46.8599L8.76882 46.8388Z" fill="#DBDBDB"/>
<path d="M40.7115 53.8934C40.7115 53.8934 38.4761 50.3091 37.0894 48.9218C35.7028 47.5345 28.3008 43.9756 27.3138 45.2996C26.0357 47.0074 29.8354 49.7778 31.9031 50.9248C31.9031 50.9248 28.9423 54.8759 31.1727 57.368C33.4032 59.8601 40.7115 53.8934 40.7115 53.8934Z" fill="#D3766A"/>
<path d="M27.141 45.869C27.2891 48.1418 30.1019 49.4996 32.0313 50.7435C32.0608 50.7605 32.085 50.7834 32.1017 50.8103C32.1185 50.8371 32.1272 50.867 32.1272 50.8974C32.1272 50.9278 32.1185 50.9578 32.1017 50.9846C32.085 51.0115 32.0608 51.0344 32.0313 51.0514C30.921 52.776 29.944 55.4874 31.0444 57.3512C31.0516 57.3624 31.0533 57.3755 31.0491 57.3878C31.045 57.4 31.0353 57.4104 31.0222 57.4165C31.0091 57.4227 30.9937 57.4241 30.9793 57.4206C30.965 57.417 30.9529 57.4087 30.9457 57.3976C29.4653 55.538 30.1808 52.8055 31.5379 50.9839C29.564 49.7189 26.7858 48.2641 27.1361 45.869C27.1164 45.8521 27.141 45.8521 27.141 45.869Z" fill="#263238"/>
<path d="M63.751 88.9973L72.3074 74.6538L69.9904 73.6446L61.434 87.9881L63.751 88.9973Z" fill="#498AEC"/>
<path d="M61.4336 87.9901L69.99 73.6466L63.9449 71.0135L55.3884 85.357L61.4336 87.9901Z" fill="#498AEC"/>
<path opacity="0.1" d="M61.4336 87.9901L69.99 73.6466L63.9449 71.0135L55.3884 85.357L61.4336 87.9901Z" fill="black"/>
<path d="M64.6604 87.4798L65.4583 86.1423L63.1413 85.1331L62.3435 86.4705L64.6604 87.4798Z" fill="#455A64"/>
<path d="M65.9776 85.2596L66.2869 84.7412L63.9699 83.732L63.6607 84.2504L65.9776 85.2596Z" fill="#455A64"/>
<path d="M60.0303 87.8078L69.2231 72.3973L66.3259 71.1353L57.133 86.5458L60.0303 87.8078Z" fill="#C7C7C7"/>
<path d="M67.7518 74.8483L68.646 73.3494L65.7487 72.0874L64.8545 73.5863L67.7518 74.8483Z" fill="#498AEC"/>
<path d="M67.0491 76.032L67.4211 75.4083L64.5239 74.1463L64.1519 74.77L67.0491 76.032Z" fill="#498AEC"/>
<path d="M61.1476 85.9302L62.0417 84.4313L59.1445 83.1693L58.2503 84.6682L61.1476 85.9302Z" fill="#498AEC"/>
<path d="M51.6587 84.1805L57.1323 86.5647L66.3342 71.1392L60.8606 68.755L51.6587 84.1805Z" fill="#EBEBEB"/>
<path d="M56.7067 86.0759L65.1936 71.8489L62.7887 70.8014L54.3018 85.0284L56.7067 86.0759Z" fill="#455A64"/>
<path d="M54.3041 85.0247L62.791 70.7976L56.6887 68.1396L48.2018 82.3666L54.3041 85.0247Z" fill="#37474F"/>
<path d="M56.4559 85.9668L64.9429 71.7397L63.0348 70.9086L54.5479 85.1357L56.4559 85.9668Z" fill="white"/>
<path d="M62.8827 72.0085C60.4697 76.3644 57.652 81.0872 54.9478 85.3166C57.3608 80.9607 60.1785 76.2379 62.8827 72.0085Z" fill="#DBDBDB"/>
<path d="M63.258 72.173C60.84 76.5247 58.0272 81.2474 55.323 85.4768C57.7361 81.1209 60.5538 76.4024 63.258 72.173Z" fill="#DBDBDB"/>
<path d="M63.6326 72.3334C61.2146 76.6893 58.4018 81.412 55.6926 85.6414C58.1106 81.2855 60.9283 76.5628 63.6326 72.3334Z" fill="#DBDBDB"/>
<path d="M64.0083 72.4851C61.5903 76.841 58.7726 81.5638 56.0684 85.7932C58.4864 81.4373 61.3041 76.7145 64.0083 72.4851Z" fill="#DBDBDB"/>
<path d="M53.8769 70.1914C52.7864 69.4281 39.5663 85.0343 39.9463 88.0493C40.2621 90.4107 53.0528 98.5912 62.6212 97.9249C66.2038 97.6719 73.3098 77.5496 73.1469 76.5713C73.0285 75.8882 67.2845 77.1448 61.5109 75.4117C58.9646 74.6485 56.8624 72.2913 53.8769 70.1914Z" fill="#498AEC"/>
<path opacity="0.3" d="M53.8769 70.1914C52.7864 69.4281 39.5663 85.0343 39.9463 88.0493C40.2621 90.4107 53.0528 98.5912 62.6212 97.9249C66.2038 97.6719 73.3098 77.5496 73.1469 76.5713C73.0285 75.8882 67.2845 77.1448 61.5109 75.4117C58.9646 74.6485 56.8624 72.2913 53.8769 70.1914Z" fill="black"/>
<path opacity="0.1" d="M49.0607 87.855C48.1449 87.1901 47.2688 86.4865 46.4354 85.7467C46.879 84.9585 47.3835 84.1964 47.9454 83.4654C47.9454 83.4443 47.9454 83.4654 47.9454 83.4654C47.3564 84.1603 46.8128 84.8824 46.317 85.6286C46.0308 85.3671 45.7495 85.0973 45.4732 84.8148C46.1394 83.6722 46.9134 82.5778 47.7875 81.5426C47.8122 81.513 47.7629 81.4709 47.7382 81.5004C46.8538 82.4994 46.0303 83.5367 45.2708 84.6081C44.9501 84.2666 44.6392 83.9124 44.3382 83.5329C44.3342 83.5278 44.3281 83.5243 44.3212 83.5231C44.3143 83.522 44.3071 83.5232 44.3012 83.5265C44.2953 83.5299 44.2912 83.5351 44.2898 83.541C44.2884 83.547 44.2898 83.5531 44.2938 83.5582C44.547 83.9852 44.8322 84.3979 45.1475 84.7937C44.8267 85.2617 44.5356 85.7424 44.2641 86.2316C43.9187 85.8647 43.5881 85.481 43.2772 85.0762C43.272 85.0684 43.2633 85.0626 43.2531 85.0603C43.243 85.0579 43.2321 85.0591 43.2229 85.0635C43.2138 85.068 43.2071 85.0754 43.2043 85.0841C43.2015 85.0928 43.2029 85.1021 43.2081 85.1099C43.505 85.5573 43.8347 85.9883 44.1951 86.4002C43.9345 86.8891 43.7072 87.3903 43.5141 87.9014C43.4795 87.9942 43.6572 88.0448 43.7065 87.9562C43.9483 87.5346 44.2 87.0918 44.427 86.6617C44.6935 86.9484 44.9698 87.2267 45.2659 87.505C44.8573 88.3206 44.5417 89.1678 44.3234 90.0351C44.2987 90.1405 44.4763 90.1658 44.5158 90.0688C44.8168 89.2634 45.1376 88.4791 45.5028 87.7032C46.1289 88.2498 46.8259 88.7337 47.5803 89.1454C47.6444 89.1791 47.7135 89.0947 47.6543 89.0526C46.9373 88.5618 46.252 88.0382 45.6015 87.484C45.8284 87.0032 46.0604 86.5268 46.3121 86.0629C47.0917 86.8205 48.0079 87.4668 49.0261 87.9773C49.0355 87.9793 49.0453 87.9796 49.0548 87.9783C49.0644 87.977 49.0735 87.9741 49.0818 87.9698C49.09 87.9655 49.0972 87.9599 49.1029 87.9532C49.1086 87.9465 49.1127 87.939 49.115 87.9309C49.1172 87.9229 49.1176 87.9146 49.1161 87.9064C49.1146 87.8983 49.1113 87.8904 49.1062 87.8834C49.1012 87.8763 49.0946 87.8702 49.0867 87.8653C49.0789 87.8605 49.0701 87.857 49.0607 87.855ZM44.501 86.4635C44.7724 85.9786 45.0438 85.4937 45.33 85.0129C45.5768 85.3123 45.8235 85.6033 46.1196 85.8816C45.8334 86.3328 45.5817 86.7966 45.3399 87.2647C45.0488 87.0075 44.7922 86.7376 44.501 86.4635Z" fill="black"/>
<path opacity="0.1" d="M68.7555 85.3841C68.4265 85.3166 68.1156 85.2449 67.8228 85.169C67.9709 84.8021 68.1091 84.4311 68.2522 84.06C68.5361 84.127 68.827 84.1708 69.1207 84.1907C69.1898 84.1907 69.1996 84.0979 69.1207 84.0895C68.8394 84.0389 68.568 83.9714 68.2966 83.904C68.5779 83.1492 68.8493 82.3902 69.1256 81.6396C69.1256 81.6058 69.0713 81.5932 69.0565 81.6396C68.7802 82.3944 68.4594 83.1365 68.1288 83.8702C67.8919 83.807 67.66 83.7311 67.4281 83.651C67.9215 82.4956 68.3114 81.3191 68.7111 80.1637C68.7111 80.1216 68.6469 80.1089 68.6321 80.1637C68.1732 81.3107 67.6452 82.4365 67.1517 83.5666C66.4516 83.2968 65.771 82.9912 65.1137 82.6516C65.1137 82.6516 65.0791 82.6516 65.1137 82.6769C65.7419 83.0611 66.4016 83.4064 67.0876 83.71C66.9149 84.0853 66.7421 84.4648 66.5941 84.8401C66.0495 84.6588 65.5245 84.4373 65.0249 84.1781C65.0249 84.1781 64.9854 84.1781 65.0249 84.2076C65.4948 84.4804 65.9899 84.7201 66.5053 84.9244C66.2832 85.4262 66.0661 85.9322 65.8638 86.4382C65.8292 86.5268 65.997 86.5732 66.0414 86.4931C66.3178 86.0208 66.5694 85.5316 66.8063 85.0383C67.0273 85.1171 67.253 85.1861 67.4823 85.2449C66.9889 86.278 66.4954 87.3069 66.076 88.3526C66.0365 88.4412 66.2092 88.4918 66.2585 88.4075C66.8311 87.4047 67.3256 86.3707 67.739 85.3124C68.0622 85.3871 68.3924 85.4379 68.7259 85.4642C68.795 85.4684 68.8197 85.3967 68.7555 85.3841ZM66.8803 84.9118C67.053 84.5407 67.2159 84.1696 67.3738 83.7943C67.6 83.8812 67.8324 83.9559 68.0696 84.0178L67.5761 85.1057L66.8803 84.9118Z" fill="black"/>
<path d="M73.1471 76.5712C74.7459 73.0713 77.3465 69.4828 79.725 65.7552C82.1036 62.0276 81.9358 52.6496 80.4356 50.5749C78.9355 48.5003 74.3265 46.8558 72.8707 47.113C71.415 47.3702 77.6377 48.9388 78.5753 50.752C79.5129 52.5653 79.0342 62.6686 78.1805 63.6553C77.3268 64.642 70.3787 75.555 70.359 76.4321C70.3393 77.3091 73.1471 76.5712 73.1471 76.5712Z" fill="#498AEC"/>
<path opacity="0.3" d="M73.1471 76.5712C74.7459 73.0713 77.3465 69.4828 79.725 65.7552C82.1036 62.0276 81.9358 52.6496 80.4356 50.5749C78.9355 48.5003 74.3265 46.8558 72.8707 47.113C71.415 47.3702 77.6377 48.9388 78.5753 50.752C79.5129 52.5653 79.0342 62.6686 78.1805 63.6553C77.3268 64.642 70.3787 75.555 70.359 76.4321C70.3393 77.3091 73.1471 76.5712 73.1471 76.5712Z" fill="black"/>
<path d="M70.8969 48.479C71.0795 48.9006 73.9219 51.4729 76.2362 51.1355C76.9912 51.0217 76.4632 47.4754 76.4632 47.4754L76.4928 47.2097L76.9222 43.4399L71.494 41.2051L70.7143 40.9183C70.7143 40.9183 70.6748 41.9557 70.6452 43.246C70.6452 43.3092 70.6452 43.3683 70.6452 43.4315C70.6452 43.4948 70.6452 43.5749 70.6452 43.6424C70.6452 43.8363 70.6452 44.0345 70.6452 44.2285C70.6452 44.4225 70.6452 44.5237 70.6452 44.6797C70.6452 44.8357 70.6452 44.9917 70.6452 45.1519C70.6403 46.2646 70.7243 47.3762 70.8969 48.479Z" fill="#D3766A"/>
<path d="M70.6304 43.246C71.2117 44.231 72.0374 45.096 73.0498 45.7805C74.0623 46.4651 75.2372 46.9528 76.4928 47.2097L76.9221 43.4399L71.4939 41.2051L70.7143 40.9183C70.7143 40.9183 70.66 41.9557 70.6304 43.246Z" fill="#263238"/>
<path d="M80.7218 35.2849C84.4573 41.1125 80.7958 43.6847 79.3203 44.372C77.983 44.9961 73.3395 46.9737 68.918 41.5046C64.4965 36.0355 66.5049 32.7085 69.4657 31.1609C72.4265 29.6134 76.9862 29.4742 80.7218 35.2849Z" fill="#D3766A"/>
<path d="M78.4367 35.1288C78.275 35.1773 78.1102 35.2181 77.9432 35.2511C77.7678 35.3171 77.5719 35.3319 77.3856 35.2933C77.3306 35.2705 77.2855 35.2332 77.2571 35.1869C77.2287 35.1406 77.2184 35.0877 77.2277 35.0361C77.2676 34.9372 77.3375 34.8493 77.4303 34.7811C77.5231 34.7129 77.6354 34.667 77.7557 34.6481C77.9887 34.5694 78.2481 34.5694 78.4811 34.6481C78.5393 34.6684 78.5885 34.7039 78.6214 34.7496C78.6544 34.7953 78.6695 34.8488 78.6646 34.9024C78.6597 34.9559 78.6349 35.0067 78.5939 35.0474C78.553 35.0881 78.4979 35.1166 78.4367 35.1288Z" fill="#263238"/>
<path d="M73.7342 37.3172C73.8872 37.2287 74.0105 37.1233 74.1536 37.0263C74.3163 36.9409 74.4412 36.8119 74.5089 36.6594C74.5208 36.6076 74.5117 36.5538 74.4829 36.5071C74.4542 36.4603 74.4077 36.4233 74.351 36.4022C74.2343 36.3731 74.1107 36.3711 73.9928 36.3963C73.8748 36.4215 73.7669 36.473 73.6799 36.5456C73.4761 36.672 73.3338 36.8581 73.2802 37.0684C73.272 37.1165 73.2802 37.1657 73.3038 37.2099C73.3274 37.2541 73.3654 37.2916 73.4133 37.3179C73.4612 37.3441 73.517 37.358 73.5739 37.3579C73.6308 37.3578 73.6864 37.3437 73.7342 37.3172Z" fill="#263238"/>
<path d="M75.7085 38.2787C75.7085 38.2787 75.7085 38.3124 75.7085 38.3293C75.975 38.7214 76.202 39.2064 75.8763 39.5353C76.3747 39.2528 76.0391 38.6118 75.7085 38.2787Z" fill="#263238"/>
<path d="M75.0269 38.0596C74.2521 38.359 75.0269 39.6662 75.7375 39.3879C76.4481 39.1096 75.6832 37.8066 75.0269 38.0596Z" fill="#263238"/>
<path d="M74.7709 38.2535C74.6771 38.3884 74.6229 38.574 74.4699 38.6752C74.3169 38.7764 74.0751 38.6752 73.8728 38.6161C73.8728 38.6161 73.8481 38.6161 73.8728 38.6414C74.0159 38.8944 74.2774 39.1011 74.613 39.0041C74.7547 38.9446 74.8653 38.8419 74.9228 38.7163C74.9804 38.5906 74.9808 38.4511 74.9239 38.3252C74.8943 38.2535 74.8054 38.2029 74.7709 38.2535Z" fill="#263238"/>
<path d="M78.2544 36.9716C78.2544 36.9716 78.3037 36.9716 78.3136 36.9716C78.5307 37.3932 78.8614 37.8149 79.3696 37.7812C79.3696 37.7812 79.3943 37.7812 79.3696 37.8065C78.8416 37.9794 78.3827 37.389 78.2544 36.9716Z" fill="#263238"/>
<path d="M78.4369 36.3688C79.1721 35.9977 79.9864 37.2838 79.3004 37.6338C78.6145 37.9838 77.82 36.6766 78.4369 36.3688Z" fill="#263238"/>
<path d="M78.8026 36.3054C78.9654 36.3054 79.1628 36.3897 79.2961 36.3349C79.4293 36.2801 79.4984 36.0693 79.5181 35.8879C79.5181 35.8879 79.5181 35.8879 79.5527 35.8879C79.7155 36.1325 79.7797 36.4319 79.5527 36.6048C79.3257 36.7777 79.0098 36.6385 78.7878 36.4235C78.7434 36.3897 78.7384 36.3012 78.8026 36.3054Z" fill="#263238"/>
<path d="M79.1674 39.9908C79.1251 40.3065 78.9873 40.6073 78.7677 40.8637C78.641 40.9989 78.4687 41.0976 78.2742 41.1462C77.8498 41.2516 77.6376 40.9691 77.534 40.6866C77.4787 40.5375 77.4455 40.3831 77.4353 40.227C78.0274 40.3095 78.6348 40.2267 79.1674 39.9908Z" fill="#263238"/>
<path d="M78.7676 40.8595C78.641 40.9947 78.4687 41.0934 78.2741 41.142C77.8498 41.2474 77.6376 40.9649 77.5339 40.6824C77.7319 40.5856 77.9629 40.5503 78.1878 40.5826C78.4127 40.6149 78.6176 40.7127 78.7676 40.8595Z" fill="#FF9BBC"/>
<path d="M78.8416 39.1306C78.8416 39.1306 79.3005 39.6872 79.4683 39.9739C79.4683 40.0034 79.414 40.0498 79.3054 40.1046C79.0469 40.2738 78.739 40.379 78.4152 40.4088C78.0915 40.4385 77.7644 40.3917 77.4697 40.2733C77.4302 40.2733 77.4697 40.2058 77.4993 40.2101C78.0695 40.2722 78.6478 40.1745 79.1475 39.9318C79.1475 39.8432 78.3283 38.9956 78.3777 38.9703C78.6466 38.8773 78.9286 38.8149 79.2166 38.7848C78.3037 37.5999 77.1687 36.5457 76.2558 35.3524C76.2473 35.3434 76.2433 35.332 76.2447 35.3205C76.246 35.309 76.2527 35.2985 76.2632 35.2912C76.2736 35.284 76.2871 35.2805 76.3005 35.2817C76.3139 35.2829 76.3262 35.2886 76.3347 35.2976C77.5897 36.3915 78.7123 37.591 79.6854 38.8776C79.8285 39.0336 78.9995 39.1179 78.8416 39.1306Z" fill="#263238"/>
<path d="M69.1842 41.6774C69.9442 41.3147 70.9311 38.6244 69.1546 35.3522C69.1546 35.3522 70.5166 38.3672 70.5018 38.8985C70.487 39.4298 71.0495 37.3889 69.658 34.7492C70.9526 34.9367 72.272 34.9651 73.5761 34.8336C75.2095 34.5764 76.0829 34.2011 76.1372 34.0703C76.1915 33.9396 73.7439 34.2474 72.8507 33.9228C72.8507 33.9228 77.5436 33.8511 79.3744 33.2312C79.5866 33.1595 77.7755 30.0771 74.1831 29.6891C70.5906 29.3012 67.2153 32.1391 66.5985 33.5812C66.5985 33.5812 65.5474 34.1547 65.1871 36.5118C64.7973 39.0714 68.3651 42.0737 69.1842 41.6774Z" fill="#263238"/>
<path d="M75.9398 41.2179C75.479 41.387 74.972 41.4423 74.4763 41.3775C73.9806 41.3126 73.5161 41.1302 73.1358 40.8509C72.7554 40.5717 72.4744 40.2068 72.3246 39.7978C72.1749 39.3889 72.1625 38.9522 72.2888 38.5375C72.4151 38.1228 72.675 37.7467 73.0391 37.452C73.4031 37.1573 73.8566 36.9558 74.348 36.8704C74.8395 36.785 75.3491 36.8192 75.8189 36.969C76.2887 37.1188 76.6999 37.3783 77.0057 37.718C77.4382 38.2002 77.6291 38.8094 77.5366 39.4118C77.4441 40.0141 77.0757 40.5606 76.5122 40.9311C76.3374 41.0483 76.1448 41.1447 75.9398 41.2179ZM73.9659 37.2921C73.7896 37.3565 73.6237 37.4401 73.4724 37.5409C73.0027 37.85 72.6887 38.3006 72.5943 38.8008C72.4999 39.301 72.6323 39.8131 72.9644 40.2327C73.2966 40.6524 73.8036 40.948 74.382 41.0593C74.9604 41.1706 75.5667 41.0893 76.0773 40.8318C76.588 40.5744 76.9645 40.1602 77.1301 39.6738C77.2958 39.1873 77.2382 38.6652 76.9689 38.2138C76.6997 37.7624 76.2391 37.4158 75.6811 37.2445C75.1231 37.0732 74.5097 37.0902 73.9659 37.2921Z" fill="#498AEC"/>
<path d="M81.0427 38.6499C80.1002 38.9957 78.827 38.4854 78.1312 37.4481C77.7894 36.958 77.6342 36.3892 77.6871 35.8205C77.6936 35.5759 77.7736 35.3368 77.9194 35.1263C78.0653 34.9158 78.2721 34.741 78.52 34.6185C78.7678 34.4961 79.0484 34.4303 79.3347 34.4273C79.6209 34.4244 79.9033 34.4845 80.1545 34.6018C80.7591 34.8466 81.2581 35.2479 81.5806 35.7488C82.3159 36.8409 82.1432 38.1144 81.1858 38.5824C81.1401 38.6078 81.0923 38.6304 81.0427 38.6499ZM78.8418 34.8295C78.8005 34.843 78.7608 34.8599 78.7234 34.8801C78.5296 34.9851 78.3683 35.1284 78.2532 35.298C78.1381 35.4676 78.0726 35.6583 78.0622 35.8542C78.0173 36.3587 78.157 36.8626 78.4619 37.2963C79.0984 38.2451 80.2532 38.7047 81.0378 38.3168C81.8224 37.9288 81.9359 36.8493 81.2993 35.9006C81.0117 35.4571 80.5704 35.1006 80.036 34.8801C79.852 34.8012 79.6508 34.7559 79.4452 34.7472C79.2396 34.7385 79.0341 34.7665 78.8418 34.8295Z" fill="#498AEC"/>
<path d="M77.1099 37.9751L76.8237 37.8866C76.9767 37.5282 77.4702 36.9041 78.2449 37.1065L78.1561 37.3511C77.4652 37.1697 77.1247 37.9414 77.1099 37.9751Z" fill="#498AEC"/>
<path d="M67.9509 43.0564H67.6449C67.6449 42.9383 67.6005 41.8715 68.1384 41.5046C68.6763 41.1377 72.3329 39.7125 72.4908 39.6534L72.6191 39.8896C71.5582 40.3113 68.7158 41.4371 68.3309 41.7028C67.946 41.9684 67.9361 42.7654 67.9509 43.0564Z" fill="#498AEC"/>
<path d="M70.2851 43.6594C70.409 43.6569 70.5318 43.6399 70.6503 43.6088C70.9274 43.5515 71.173 43.4145 71.346 43.2208C71.4194 43.1352 71.4791 43.0416 71.5237 42.9425C71.5831 42.8003 71.6148 42.6508 71.6175 42.4998L70.3838 41.0239C70.3838 41.0239 67.8523 39.7083 67.0874 40.5643C66.3225 41.4203 68.9083 43.7311 70.2851 43.6594Z" fill="#D3766A"/>
<path d="M67.8474 41.2095V41.239C68.8344 41.2137 69.6042 41.7071 70.2605 42.2763C70.1759 42.223 70.0789 42.186 69.976 42.1679C69.873 42.1498 69.7668 42.151 69.6645 42.1715C69.5621 42.1919 69.4663 42.2311 69.3834 42.2864C69.3006 42.3416 69.2328 42.4116 69.1847 42.4914C69.1847 42.4914 69.2094 42.5336 69.2291 42.5209C69.3543 42.4262 69.5109 42.3672 69.6772 42.3521C69.8435 42.3369 70.0111 42.3665 70.1568 42.4366C70.4002 42.5568 70.6284 42.6981 70.8378 42.8583C70.9069 42.9046 71.0254 42.8203 70.9612 42.7613C70.5023 41.8294 69.0317 40.8595 67.8474 41.2095Z" fill="#263238"/>
<path d="M70.2504 43.3895C70.3054 43.4566 70.3893 43.5023 70.4837 43.5165C70.5781 43.5308 70.6752 43.5124 70.7537 43.4654C70.8323 43.4184 70.8857 43.3467 70.9024 43.2661C70.919 43.1854 70.8975 43.1024 70.8426 43.0353C70.7876 42.9682 70.7037 42.9225 70.6093 42.9083C70.5149 42.894 70.4177 42.9124 70.3392 42.9594C70.2607 43.0064 70.2072 43.0781 70.1906 43.1587C70.1739 43.2394 70.1954 43.3224 70.2504 43.3895Z" fill="white"/>
<path d="M69.3571 43.1956C69.3758 43.2194 69.4001 43.2398 69.4282 43.2556C69.4564 43.2713 69.488 43.282 69.5211 43.2871C69.5543 43.2922 69.5883 43.2916 69.6211 43.2853C69.654 43.279 69.685 43.2671 69.7124 43.2504C69.7669 43.2165 69.8037 43.1657 69.8148 43.1089C69.8259 43.0521 69.8103 42.9939 69.7716 42.9468C69.733 42.8998 69.6741 42.8679 69.6079 42.858C69.5418 42.8481 69.4737 42.8611 69.4187 42.8941C69.3638 42.927 69.3264 42.9773 69.3148 43.0339C69.3033 43.0904 69.3184 43.1486 69.3571 43.1956Z" fill="white"/>
<path d="M180.205 97.5957C180.738 98.5698 177.511 99.936 175.828 99.7378C174.39 99.4084 172.979 98.9985 171.604 98.5108C167.128 97.0518 160.846 94.8338 160.846 94.8338L157.989 97.2584L143.284 107.45L129.289 94.0579C129.289 94.0579 136.129 88.5002 142.702 83.3811C143.689 82.5925 144.715 81.8251 145.662 81.0787L145.845 80.9396C150.286 77.5662 154.012 74.8885 154.57 75.015C156.094 75.3397 179.672 96.6174 180.205 97.5957Z" fill="#FFC4C0"/>
<path d="M180.205 97.5956C180.738 98.5739 177.511 99.9359 175.828 99.7378C174.389 99.4082 172.978 98.9968 171.604 98.5065C167.128 97.0559 160.846 94.8337 160.846 94.8337L157.984 97.2625L157.491 97.5999L142.499 83.5454L142.711 83.3768L145.672 81.0786C145.731 81.028 145.795 80.9817 145.855 80.9395C150.296 77.5661 154.022 74.8885 154.584 75.0107C156.094 75.3354 179.672 96.6174 180.205 97.5956Z" fill="#EBEBEB"/>
<path d="M180.664 97.8698C180.141 96.8662 156.45 74.9433 154.925 74.5976C154.352 74.4584 150.41 77.2246 145.766 80.6781L145.618 80.7877L160.718 95.0783L160.994 94.8506C160.994 94.8506 174.456 99.7758 176.178 100.003C177.901 100.231 181.197 98.8692 180.664 97.8698Z" fill="#498AEC"/>
<path opacity="0.1" d="M180.664 97.8698C180.141 96.8662 156.45 74.9433 154.925 74.5976C154.352 74.4584 150.41 77.2246 145.766 80.6781L145.618 80.7877L160.718 95.0783L160.994 94.8506C160.994 94.8506 174.456 99.7758 176.178 100.003C177.901 100.231 181.197 98.8692 180.664 97.8698Z" fill="black"/>
<path d="M179.401 98.4053C175.305 94.7958 159.168 79.898 155.433 76.0565C155.403 76.027 155.433 76.0059 155.462 76.0565C159.617 79.5607 175.611 94.5681 179.475 98.3674C179.553 98.4306 179.509 98.4812 179.401 98.4053Z" fill="#263238"/>
<path d="M162.47 96.6174C160.58 95.4115 158.917 93.4254 158.931 91.3592C158.931 91.279 159.065 91.279 159.094 91.3592C160.073 93.1626 161.274 94.8716 162.677 96.4572C162.689 96.4814 162.692 96.5081 162.685 96.5337C162.678 96.5594 162.663 96.5826 162.64 96.6002C162.617 96.6178 162.588 96.6289 162.558 96.632C162.527 96.6351 162.497 96.63 162.47 96.6174Z" fill="#263238"/>
<path d="M164.34 97.0813C162.455 95.8796 160.792 93.8935 160.802 91.823C160.802 91.7429 160.94 91.7471 160.97 91.823C161.946 93.6275 163.147 95.3367 164.552 96.9211C164.565 96.9458 164.569 96.9734 164.562 96.9999C164.556 97.0264 164.539 97.0504 164.515 97.0683C164.492 97.0863 164.462 97.0972 164.43 97.0996C164.399 97.1019 164.367 97.0955 164.34 97.0813Z" fill="#263238"/>
<path d="M166.215 97.5451C164.33 96.3433 162.667 94.3573 162.677 92.291C162.677 92.2109 162.81 92.2109 162.845 92.291C163.825 94.0857 165.026 95.7862 166.427 97.3638C166.441 97.3757 166.452 97.3898 166.46 97.4054C166.467 97.4209 166.471 97.4376 166.471 97.4545C166.471 97.4713 166.467 97.488 166.46 97.5035C166.452 97.5191 166.441 97.5332 166.427 97.5451C166.413 97.557 166.397 97.5665 166.378 97.5729C166.36 97.5794 166.341 97.5827 166.321 97.5827C166.301 97.5827 166.282 97.5794 166.264 97.5729C166.245 97.5665 166.229 97.557 166.215 97.5451Z" fill="#263238"/>
<path d="M162.519 98.8734C162.342 97.1024 161.281 95.4621 160.501 93.8513C160.479 93.8176 160.449 93.7885 160.412 93.7665C160.375 93.7445 160.333 93.73 160.289 93.7243C160.244 93.7186 160.199 93.7218 160.156 93.7336C160.113 93.7453 160.074 93.7654 160.042 93.7922C160.037 93.7853 160.029 93.7796 160.021 93.7756C160.012 93.7717 160.002 93.7696 159.993 93.7696C159.983 93.7696 159.973 93.7717 159.965 93.7756C159.956 93.7796 159.949 93.7853 159.943 93.7922C158.911 95.4226 158.401 97.2567 158.463 99.1096C158.522 100.189 159.257 101.576 160.797 101.425C162.238 101.29 162.623 99.8939 162.519 98.8734ZM161.532 100.324C159.938 102.053 159.065 99.565 159.065 98.768C159.071 98.2529 159.118 97.7388 159.203 97.2289C159.402 96.1781 159.664 95.1366 159.988 94.1085C160.313 94.9223 160.718 95.7024 161.073 96.4994C161.522 97.4566 162.425 99.3668 161.552 100.316L161.532 100.324Z" fill="#263238"/>
<path d="M152.107 90.9966C151.421 92.1858 152.714 93.2399 153.888 93.6448C155.917 94.3124 158.117 94.5088 160.264 94.214C160.274 94.2128 160.283 94.2096 160.291 94.2048C160.299 94.2001 160.306 94.1938 160.31 94.1864C160.315 94.1791 160.318 94.1709 160.318 94.1626C160.319 94.1542 160.317 94.1458 160.313 94.1381C160.354 94.1214 160.389 94.0968 160.416 94.0662C160.444 94.0357 160.462 94.0001 160.47 93.9623C160.478 93.9245 160.476 93.8856 160.463 93.8488C160.451 93.8119 160.428 93.7781 160.397 93.7502C158.877 92.5906 157.436 91.1864 155.527 90.4611C154.402 90.0352 152.748 89.875 152.107 90.9966ZM157.649 92.3924C158.413 92.949 159.129 93.5309 159.933 94.0791C158.695 93.9652 157.466 93.8978 156.227 93.6785C155.635 93.5807 155.051 93.4482 154.48 93.2821C153.602 93.0122 151.145 91.4858 153.582 90.7774C154.925 90.3726 156.741 91.7303 157.649 92.3924Z" fill="#263238"/>
<path d="M156.207 101.159C156.207 101.159 122.824 120.063 108.45 122.319C101.58 123.398 93.8231 117.819 94.5287 111.406C95.185 105.422 111.879 91.9454 115.555 87.3702C116.715 85.9365 118.27 76.5289 118.27 76.5289L134.243 78.8102C134.243 78.8102 134.1 85.4221 133.483 89.1412C133.475 89.2055 133.46 89.269 133.439 89.331L138.497 85.5359L156.207 101.159Z" fill="#37474F"/>
<path d="M144.399 95.3018C141.749 93.0627 138.971 90.9333 136.321 88.7195C136.267 88.6773 136.183 88.7195 136.232 88.7785C138.828 91.0471 141.33 93.3832 143.975 95.6096C146.62 97.8361 149.368 99.9866 152.073 102.171C152.142 102.226 152.255 102.146 152.186 102.087C149.586 99.8306 147.034 97.5282 144.399 95.3018Z" fill="#263238"/>
<path d="M133.582 89.4447C132.876 90.1827 132.245 90.9839 131.583 91.7471C130.922 92.5103 130.266 93.2525 129.58 93.9904C128.193 95.4705 126.738 96.9084 125.242 98.3126C122.233 101.145 119.005 103.802 115.58 106.265C113.666 107.636 111.726 108.998 109.659 110.208C109.614 110.233 109.659 110.292 109.713 110.263C111.193 109.394 112.718 108.534 114.154 107.615C113.498 108.357 112.861 109.12 112.205 109.866C112.175 109.904 112.239 109.951 112.274 109.913C113.004 109.124 113.754 108.348 114.465 107.551C114.473 107.543 114.479 107.532 114.482 107.521C114.486 107.51 114.486 107.499 114.484 107.488C114.481 107.477 114.476 107.466 114.469 107.457C114.461 107.447 114.452 107.439 114.44 107.433L115.185 106.957C116.972 105.771 118.697 104.525 120.362 103.221C123.654 100.636 126.68 97.8145 129.407 94.7874C130.177 93.944 130.927 93.0796 131.657 92.1941C132.401 91.3347 133.08 90.4361 133.691 89.5038C133.765 89.4447 133.616 89.3857 133.582 89.4447Z" fill="#263238"/>
<path d="M195.394 88.7575C196.174 89.6009 193.42 91.5616 191.708 91.7092C190.22 91.6691 188.736 91.5465 187.267 91.3424C182.515 90.8026 175.803 89.8749 175.803 89.8749L173.676 92.8014L162.539 105.334L144.887 95.3146C144.887 95.3146 150.049 88.5678 155.068 82.289C155.842 81.3276 156.607 80.383 157.357 79.4638L157.491 79.2951C160.905 75.1374 163.817 71.802 164.399 71.8146C165.944 71.8273 194.614 87.9099 195.394 88.7575Z" fill="#FFC4C0"/>
<path d="M195.394 88.7575C196.174 89.6008 193.42 91.5659 191.708 91.7092C190.22 91.6694 188.736 91.5469 187.267 91.3424C182.52 90.8026 175.803 89.8749 175.803 89.8749L173.682 92.8014L173.366 93.1556L154.787 82.639L155.078 82.2806C155.848 81.3192 156.612 80.3746 157.358 79.4554C157.407 79.4005 157.451 79.3415 157.496 79.2867C160.911 75.129 163.822 71.7977 164.404 71.8062C165.944 71.823 194.61 87.9099 195.394 88.7575Z" fill="#EBEBEB"/>
<path d="M195.824 88.8038C195.029 87.9604 165.811 71.5952 164.241 71.5784C163.644 71.5784 160.61 75.0614 157.081 79.3794C157.048 79.426 157.012 79.471 156.973 79.5143L175.685 90.2375L175.887 89.9634C175.887 89.9634 190.346 91.9411 192.083 91.8061C193.82 91.6712 196.623 89.664 195.824 88.8038Z" fill="#498AEC"/>
<path d="M194.753 89.5838C189.749 86.9356 169.857 75.8372 165.145 72.8896C165.105 72.8643 165.145 72.8433 165.145 72.8643C170.173 75.3944 189.956 86.6362 194.787 89.5163C194.906 89.5753 194.857 89.6428 194.753 89.5838Z" fill="#263238"/>
<path d="M177.817 91.3676C175.64 90.5917 173.464 89.0104 172.882 87.0032C172.882 86.9273 172.99 86.8978 173.04 86.9526C174.502 88.5058 176.157 89.9195 177.974 91.1694C177.993 91.1905 178.004 91.2161 178.004 91.2426C178.005 91.269 177.996 91.2951 177.979 91.3169C177.961 91.3388 177.936 91.3555 177.907 91.3646C177.878 91.3737 177.846 91.3747 177.817 91.3676Z" fill="#263238"/>
<path d="M179.766 91.4266C177.59 90.6549 175.414 89.0736 174.832 87.0664C174.832 86.9863 174.94 86.961 174.989 87.0116C176.454 88.5636 178.108 89.9773 179.924 91.2284C179.943 91.2495 179.953 91.2751 179.954 91.3015C179.955 91.328 179.946 91.354 179.929 91.3759C179.911 91.3978 179.886 91.4145 179.857 91.4236C179.828 91.4326 179.796 91.4337 179.766 91.4266Z" fill="#263238"/>
<path d="M181.715 91.4898C179.544 90.714 177.368 89.1369 176.781 87.1255C176.756 87.0496 176.884 87.0243 176.939 87.0749C178.403 88.627 180.057 90.0407 181.873 91.2917C181.892 91.3128 181.903 91.3384 181.903 91.3648C181.904 91.3913 181.895 91.4173 181.878 91.4392C181.86 91.4611 181.835 91.4778 181.806 91.4868C181.777 91.4959 181.745 91.497 181.715 91.4898Z" fill="#263238"/>
<path d="M178.523 93.5435C177.847 91.8568 176.351 90.4948 175.138 89.0948C175.108 89.0654 175.07 89.0425 175.028 89.0281C174.985 89.0136 174.94 89.008 174.894 89.0117C174.849 89.0154 174.805 89.0284 174.767 89.0494C174.728 89.0705 174.697 89.099 174.674 89.1328C174.666 89.1285 174.656 89.1261 174.647 89.1256C174.637 89.125 174.628 89.1265 174.619 89.1298C174.61 89.1331 174.603 89.1382 174.597 89.1446C174.591 89.151 174.587 89.1585 174.585 89.1665C174.049 90.9611 174.077 92.8445 174.664 94.6272C175.024 95.6645 176.144 96.8579 177.585 96.3898C178.937 95.9428 178.898 94.5218 178.523 93.5435ZM177.995 95.1543C176.944 97.1615 175.394 94.9308 175.157 94.1591C175.018 93.6579 174.917 93.1494 174.856 92.6369C174.713 91.5743 174.748 90.5285 174.728 89.4448C175.276 90.1659 175.888 90.8406 176.465 91.5532C177.141 92.3755 178.557 94.0453 177.98 95.1543H177.995Z" fill="#263238"/>
<path d="M166.185 88.0869C165.86 89.3814 167.414 90.1362 168.653 90.2838C170.804 90.5072 172.986 90.2425 174.979 89.5164C174.989 89.5135 174.997 89.5087 175.004 89.5025C175.011 89.4963 175.016 89.4888 175.019 89.4806C175.022 89.4724 175.022 89.4637 175.02 89.4553C175.019 89.4469 175.015 89.4389 175.009 89.4321C175.043 89.4069 175.07 89.3754 175.087 89.3399C175.105 89.3044 175.112 89.266 175.109 89.2276C175.107 89.1891 175.093 89.1518 175.071 89.1185C175.048 89.0852 175.017 89.0569 174.979 89.0357C173.173 88.2261 171.357 87.1719 169.314 86.8598C168.12 86.6616 166.467 86.8472 166.185 88.0869ZM171.959 88.2893C172.862 88.6688 173.736 89.0821 174.648 89.4363C173.415 89.5839 172.181 89.7736 170.943 89.8158C170.339 89.8425 169.734 89.8354 169.131 89.7947C168.209 89.7146 165.391 88.7447 167.552 87.5514C168.722 86.8767 170.868 87.8213 171.939 88.2724L171.959 88.2893Z" fill="#263238"/>
<path d="M121.201 76.9506L143.229 80.1679C143.229 80.1679 147.256 85.9702 147.67 89.7147C148.085 93.4591 132.768 107.931 132.768 107.931L151.574 85.1985L173.005 96.9169C173.005 96.9169 146.777 120.29 129.363 128.23C122.829 131.212 113.616 126.59 113.078 119.287C112.506 111.604 122.898 90.0267 122.898 90.0267L121.201 76.9506Z" fill="#37474F"/>
<path d="M150.888 85.5568C145.529 93.0205 139.997 100.387 133.997 107.484C133.163 108.471 132.329 109.453 131.48 110.436C130.631 111.418 129.782 112.519 128.825 113.48C128.776 113.527 128.869 113.59 128.914 113.539C129.674 112.628 130.547 111.789 131.352 110.908C132.156 110.027 132.921 109.179 133.691 108.302L134.678 107.163L134.539 107.467C134.317 107.922 134.1 108.378 133.893 108.842C133.469 109.79 133.172 110.798 132.664 111.718C132.63 111.772 132.738 111.81 132.763 111.755C133.187 110.802 133.804 109.917 134.273 108.981C134.497 108.525 134.709 108.066 134.909 107.602C135.113 107.192 135.278 106.769 135.403 106.337C136.365 105.215 137.323 104.094 138.265 102.964C141.226 99.3877 144.053 95.7332 146.748 92C148.253 89.9211 149.709 87.817 151.11 85.6749C151.169 85.5568 150.947 85.4219 150.888 85.5568Z" fill="#263238"/>
<path d="M160.264 93.1471C157.086 91.49 153.824 89.9593 150.631 88.3274C150.572 88.2979 150.503 88.3696 150.567 88.4033C153.701 90.09 156.765 91.8821 159.943 93.5309C163.121 95.1796 166.358 96.7314 169.59 98.3253C169.674 98.3675 169.763 98.2663 169.679 98.2199C166.526 96.5416 163.427 94.8043 160.264 93.1471Z" fill="#263238"/>
<path d="M122.879 90.0268C121.482 92.3207 117.525 101.34 116.513 103.778C115.501 106.215 114.623 108.652 113.898 111.14C113.532 112.405 113.226 113.67 112.965 114.935C112.694 116.15 112.55 117.384 112.536 118.621C112.523 120.847 113.381 123.014 114.973 124.777C115.82 125.712 116.844 126.518 118.003 127.164C119.178 127.779 120.447 128.251 121.773 128.568C121.823 128.568 121.842 128.505 121.773 128.496C120.539 128.219 119.384 127.729 118.378 127.058C116.888 126.139 115.654 124.948 114.768 123.572C113.881 122.196 113.363 120.669 113.251 119.101C113.113 116.66 113.779 114.185 114.401 111.819C115.05 109.377 115.842 106.965 116.774 104.591C117.298 103.259 117.855 101.935 118.432 100.619C119.01 99.3036 122.504 91.4394 123.032 90.1027C123.041 90.0855 123.042 90.066 123.036 90.0479C123.029 90.0299 123.015 90.0146 122.996 90.0051C122.976 89.9956 122.954 89.9926 122.932 89.9966C122.911 90.0006 122.891 90.0114 122.879 90.0268Z" fill="#263238"/>
<path d="M128.495 91.1104C126.834 90.5577 125.101 90.1796 123.333 89.9846C121.608 89.7501 119.871 89.5911 118.127 89.5081C118.078 89.5081 118.078 89.5713 118.127 89.5797C119.893 89.7864 121.65 90.0605 123.392 90.3725C125.134 90.6845 126.768 91.0767 128.475 91.2664C128.574 91.2791 128.579 91.1399 128.495 91.1104Z" fill="#263238"/>
<path d="M143.456 88.6477C142.179 88.7517 140.895 88.7841 139.612 88.7447C138.551 88.7236 137.461 88.7025 136.513 88.2345C134.668 87.3236 133.71 85.4894 133.108 83.8195C133.108 83.7816 133.015 83.8195 133.029 83.8406C133.577 85.6665 133.977 87.7833 136.059 88.8332C137.093 89.2947 138.266 89.4798 139.425 89.3645C140.795 89.2687 142.151 89.0554 143.471 88.7278C143.481 88.724 143.489 88.7175 143.494 88.7094C143.499 88.7013 143.501 88.692 143.499 88.683C143.498 88.6739 143.492 88.6656 143.485 88.6592C143.477 88.6528 143.467 88.6488 143.456 88.6477Z" fill="#263238"/>
<path d="M146.013 89.4574C145.656 88.4139 145.213 87.3936 144.685 86.4044C144.162 85.384 143.591 84.3832 142.973 83.4021C142.272 82.2889 141.492 81.2052 140.723 80.1341C140.717 80.1263 140.708 80.1206 140.697 80.1182C140.686 80.1157 140.675 80.1167 140.665 80.1208C140.656 80.125 140.648 80.1321 140.644 80.1408C140.64 80.1495 140.64 80.1591 140.644 80.1679C141.838 81.9979 142.963 83.866 143.979 85.7761C144.483 86.7207 144.957 87.6779 145.401 88.6478C145.889 89.5734 146.109 90.5858 146.042 91.5995C145.922 92.6306 145.446 93.6081 144.675 94.4078C144.675 94.4289 144.675 94.4078 144.675 94.4078C145.358 93.7408 145.838 92.9398 146.071 92.0761C146.305 91.2124 146.284 90.3128 146.013 89.4574Z" fill="#263238"/>
<path d="M151.603 90.6171C150.493 91.6923 149.481 92.8477 148.45 93.9905C147.419 95.1332 146.378 96.2506 145.351 97.3849C143.298 99.6578 141.275 101.952 139.252 104.241C138.102 105.544 136.987 106.868 135.867 108.184C135.832 108.222 135.896 108.268 135.931 108.23C140.145 103.761 144.257 99.2234 148.267 94.6188C149.407 93.3116 150.597 92.0255 151.648 90.6677C151.668 90.6424 151.628 90.6171 151.603 90.6171Z" fill="#263238"/>
<path d="M121.546 79.5186C121.6 80.7077 121.783 84.313 121.887 85.5021C121.931 86.0461 121.975 86.6027 122.079 87.1424C122.168 87.5979 122.341 88.1292 122.888 88.3274C123.52 88.5551 123.826 88.1081 123.875 87.6358C123.924 87.1013 123.94 86.5651 123.925 86.0292C123.925 85.4178 123.772 79.8222 123.772 79.8053C123.772 79.7884 123.772 79.7505 123.826 79.7294C123.834 79.7232 123.845 79.7197 123.856 79.7197C123.867 79.7197 123.877 79.7232 123.885 79.7294C123.999 79.8137 124.379 84.76 124.379 85.3335C124.379 85.9069 124.428 86.4804 124.448 87.0539C124.514 87.482 124.451 87.9175 124.265 88.3189C124.158 88.5087 123.982 88.6636 123.763 88.7602C123.544 88.8568 123.294 88.8899 123.051 88.8544C123.051 88.8966 123.081 88.9346 123.091 88.9767C123.12 89.099 123.135 89.2255 123.155 89.3478C123.175 89.4701 123.194 89.6008 123.204 89.7273C123.209 89.7877 123.209 89.8483 123.204 89.9086C123.204 89.9761 123.165 90.0351 123.16 90.1026C123.155 90.1701 122.972 90.2418 122.938 90.1321C122.903 90.0225 122.879 90.0141 122.854 89.9508C122.83 89.8833 122.814 89.8142 122.805 89.7442C122.805 89.6219 122.78 89.5038 122.77 89.3815C122.76 89.2593 122.77 89.137 122.77 89.0189C122.773 88.9469 122.782 88.8751 122.795 88.8038C122.524 88.7331 122.282 88.6004 122.094 88.4201C121.785 88.0807 121.598 87.672 121.556 87.2436C121.472 86.7376 121.438 86.2232 121.398 85.713C121.309 84.4479 121.112 80.7625 121.285 79.5017C121.287 79.4721 121.304 79.4445 121.33 79.4252C121.356 79.4058 121.391 79.3962 121.425 79.3984C121.46 79.4006 121.492 79.4145 121.515 79.4371C121.538 79.4596 121.549 79.4889 121.546 79.5186Z" fill="#263238"/>
<path d="M140.096 36.3348C138.028 35.2849 133.084 34.5216 129.733 38.7763C124.956 44.8189 130.755 57.5704 132.156 59.4089C132.156 59.4089 143.506 60.5137 151.668 54.1042C151.668 54.1042 144.216 46.1767 143.841 41.454C143.761 40.4026 143.377 39.3846 142.723 38.4913C142.07 37.5979 141.167 36.857 140.096 36.3348Z" fill="#263238"/>
<path d="M146.091 46.2316C146.141 46.2991 146.19 46.3665 146.244 46.434C146.92 47.2761 147.685 48.0637 148.529 48.7869C149.317 49.4972 150.221 50.1065 151.213 50.5959C151.213 50.5959 151.268 50.5748 151.213 50.5622C150.229 50.0223 149.355 49.3469 148.628 48.5635C147.883 47.8324 147.191 47.0636 146.555 46.2611C145.255 44.6313 144.202 42.8673 143.422 41.0113C143.422 40.9733 143.328 41.0113 143.343 41.0113C143.427 41.2769 143.515 41.5426 143.614 41.804C143.608 41.8031 143.601 41.8036 143.595 41.8055C143.588 41.8074 143.583 41.8105 143.578 41.8147C143.574 41.8189 143.571 41.824 143.569 41.8295C143.568 41.835 143.568 41.8407 143.57 41.8462C144.183 43.6019 145.01 45.2979 146.037 46.9063C147.122 48.4588 148.45 49.8775 149.985 51.123C150.843 51.8334 151.751 52.4981 152.704 53.1133C152.704 53.1133 152.733 53.1133 152.704 53.0922C150.049 51.1519 147.811 48.8301 146.091 46.2316Z" fill="#263238"/>
<path d="M131.435 37.6504C126.787 41.4834 126.663 47.3025 127.981 52.2024C128.367 53.7142 128.926 55.1901 129.649 56.6089C129.649 56.6145 129.651 56.6198 129.656 56.6238C129.661 56.6277 129.667 56.6299 129.674 56.6299C129.68 56.6299 129.686 56.6277 129.691 56.6238C129.696 56.6198 129.698 56.6145 129.698 56.6089C128.637 54.0895 128.008 51.4518 127.833 48.7784C127.68 46.2736 127.808 43.6255 128.884 41.2304C129.448 39.9151 130.34 38.7207 131.499 37.7305C131.534 37.6799 131.475 37.6166 131.435 37.6504Z" fill="#263238"/>
<path d="M130.538 80.0372C130.775 80.3028 151.071 81.5552 152.048 81.3401C152.096 81.3281 152.142 81.3125 152.186 81.2938C153.395 80.8426 159.095 76.6216 159.504 76.2674C160.294 75.6096 154.792 64.2623 150.207 57.4733C148.678 55.2089 146.2 53.2566 145.495 52.6452C144.789 52.0337 132.171 51.4898 129.911 52.3163C128.924 52.6662 126.521 54.6608 126.457 55.0276C126.373 55.5632 130.306 79.7631 130.538 80.0372Z" fill="#455A64"/>
<path d="M130.537 80.0371C130.774 80.3027 151.071 81.5551 152.048 81.34C152.095 81.328 152.142 81.3124 152.186 81.2937C150.38 76.748 141.897 55.4197 141.641 55.2805C141.384 55.1414 129.338 54.9179 126.447 55.0317C126.373 55.5631 130.306 79.763 130.537 80.0371Z" fill="#263238"/>
<path d="M138.857 53.3494C139.064 53.1891 139.276 50.8193 138.916 50.3555C138.556 49.8916 133.671 49.9675 133.374 50.4103C133.078 50.853 132.881 53.206 133.004 53.2945C133.128 53.3831 133.952 53.4843 134.065 53.3367C134.179 53.1891 134.233 51.2283 134.322 51.1356C134.411 51.0428 137.801 50.9247 137.914 51.0765C138.028 51.2283 137.678 53.1849 137.811 53.2819C137.944 53.3789 138.655 53.5096 138.857 53.3494Z" fill="#37474F"/>
<path d="M130.912 52.135C130.611 44.684 129.767 38.6161 128.376 29.4109C127.646 24.6165 126.14 16.7818 125.785 14.7156C125.292 11.9915 110.349 16.6426 110.907 18.4727C111.272 19.666 113.128 26.9062 115.62 32.4554C118.822 39.5733 120.722 45.7846 124.502 53.2946C127.359 58.9619 131.115 57.0686 130.912 52.135Z" fill="#FFC4C0"/>
<path d="M112.678 22.2255C110.379 20.3617 104.482 12.468 103.727 10.6927C102.972 8.91748 101.235 3.67185 102.769 3.03933C104.304 2.40682 104.951 3.90798 104.951 3.90798C104.951 3.90798 104.556 1.37793 106.239 1.07854C107.581 0.83819 108.632 2.90861 108.632 2.90861C108.632 2.90861 108.365 0.117126 110.083 0.00327417C111.642 -0.102145 112.116 2.37309 112.116 2.37309C112.116 2.37309 112.17 0.0201416 113.7 0.163511C115.536 0.340615 115.442 4.41399 116.448 6.31996C116.675 6.74164 124.566 15.8414 124.566 15.8414L112.678 22.2255Z" fill="#FFC4C0"/>
<path d="M112.225 2.28869C112.521 5.34584 112.748 6.60665 114.539 9.12826C114.573 9.17465 114.495 9.22946 114.455 9.18308C112.437 6.85122 112.042 5.388 112.057 2.28026C112.057 2.12846 112.215 2.14532 112.225 2.28869Z" fill="#263238"/>
<path d="M108.667 2.90864C108.919 6.02903 109.6 7.41213 111.248 10.1699C111.273 10.2078 111.194 10.2458 111.169 10.2078C109.284 7.61875 108.322 6.03747 108.544 2.89177C108.554 2.76105 108.652 2.77792 108.667 2.90864Z" fill="#263238"/>
<path d="M105.035 4.04726C105.528 7.04958 106.131 8.64773 108.134 11.1525C108.139 11.1583 108.143 11.1649 108.145 11.172C108.147 11.1791 108.148 11.1864 108.147 11.1937C108.146 11.2009 108.143 11.2079 108.138 11.2142C108.134 11.2205 108.128 11.2261 108.122 11.2305C108.115 11.2349 108.107 11.2382 108.099 11.24C108.091 11.2419 108.082 11.2424 108.073 11.2414C108.065 11.2404 108.057 11.238 108.049 11.2343C108.042 11.2306 108.036 11.2258 108.03 11.2199C105.696 8.83748 104.941 6.84718 104.931 4.05147C104.931 3.87858 104.996 3.8575 105.035 4.04726Z" fill="#263238"/>
<path d="M126.135 17.4522C126.135 17.4522 126.836 13.2565 123.288 10.3765C121.852 9.21265 121.546 4.05135 119.937 3.59172C118.126 3.07306 117.514 7.42896 118.64 10.2795C118.64 10.2795 113.927 13.1553 114.855 15.9426C115.057 16.5456 117.431 19.063 118.255 19.1979L126.135 17.4522Z" fill="#FFC4C0"/>
<path d="M118.635 10.6084C116.755 11.671 114.855 13.6276 114.909 15.5462C114.906 15.5556 114.899 15.5639 114.889 15.5697C114.88 15.5756 114.869 15.5787 114.857 15.5787C114.846 15.5787 114.834 15.5756 114.825 15.5697C114.816 15.5639 114.809 15.5556 114.805 15.5462C114.42 13.4926 116.592 11.2071 118.339 10.3469C118.674 10.1951 119.118 10.3301 118.635 10.6084Z" fill="#263238"/>
<path opacity="0.1" d="M130.927 52.5271L122.015 18.3714L121.773 17.3552L120.949 14.18L119.967 10.4988L118.447 4.67542C118.763 3.85738 119.266 3.3851 119.928 3.57485C121.536 4.0387 121.842 9.19578 123.278 10.3596C126.042 12.6029 126.239 15.6474 126.17 16.8787C126.772 20.1509 127.799 25.6833 128.366 29.394C129.758 38.5992 130.601 44.6671 130.907 52.1181C130.922 52.2657 130.927 52.3964 130.927 52.5271Z" fill="black"/>
<path d="M119.741 45.5863L130.898 39.9064C130.898 39.9064 131.683 52.097 130.73 55.736C129.659 59.8347 127.439 58.4685 124.907 55.1162C122.376 51.7639 119.741 45.5863 119.741 45.5863Z" fill="#498AEC"/>
<path d="M126.185 48.4495C125.894 47.9013 125.395 46.8134 124.443 47.1002C123.703 47.3194 123.693 48.1332 123.752 48.6772C123.851 49.5527 124.245 50.3848 124.887 51.0723C125.149 51.3633 125.578 51.7301 125.978 51.7091C126.372 51.7512 126.644 51.4856 126.742 51.0681C126.888 50.1668 126.693 49.2493 126.185 48.4495ZM129.264 46.3791C128.81 46.3411 128.174 47.0791 128.164 48.2302C128.164 49.4953 128.716 50.1531 129.111 50.1151C129.891 50.035 130.133 48.9977 130.138 48.1923C130.162 47.5809 129.812 46.4381 129.264 46.3917V46.3791Z" fill="#263238"/>
<path d="M121.334 47.1129C122.869 46.5521 127.201 44.3214 127.917 43.9588C128.297 43.769 129.772 42.9467 130.152 42.7612C130.202 42.7359 130.152 42.6769 130.103 42.6979C129.378 43.0606 128.623 43.3558 127.872 43.71C127.122 44.0642 122.642 46.1978 121.304 47.0834C121.304 47.087 121.304 47.0908 121.305 47.0943C121.306 47.0979 121.308 47.1012 121.311 47.104C121.314 47.1069 121.317 47.1091 121.321 47.1106C121.325 47.1122 121.33 47.1129 121.334 47.1129Z" fill="#263238"/>
<path opacity="0.1" d="M131.149 51.9958C131.13 53.2504 130.99 54.5014 130.73 55.7361C129.659 59.8306 127.443 58.4686 124.907 55.1205C124.556 54.6566 124.211 54.138 123.861 53.594L131.149 51.9958Z" fill="black"/>
<path d="M147.977 89.1496C147.878 89.2086 115.102 86.1473 114.875 85.7762C114.756 85.5907 121.226 57.8993 130.942 51.2452C132.753 50.0055 137.411 50.7477 139.173 52.5946C144.394 58.0806 148.327 88.9303 147.977 89.1496Z" fill="#EBEBEB"/>
<path d="M131.248 50.9795C128.07 55.2511 123.046 67.7622 122.306 72.8391C121.976 75.0909 121.916 92.6916 121.916 92.6916L113.384 88.323C113.384 88.323 117.455 72.2994 119.765 66.8598C122.074 61.4202 128.021 53.5939 129.244 52.4174C130.562 51.1271 131.248 50.9795 131.248 50.9795Z" fill="#498AEC"/>
<path d="M137.456 51.1946C137.456 51.1946 139.06 51.8313 140.382 53.7879C141.705 55.7445 146.18 71.7597 148.001 74.0283C149.822 76.2969 156.469 74.5933 156.469 74.5933C156.453 75.7317 156.619 76.8667 156.963 77.9667C157.491 79.2781 147.71 93.147 147.133 93.147C146.556 93.147 136.879 83.069 135.966 78.186C135.053 73.303 136.578 57.5745 136.755 55.618C136.933 53.6614 137.456 51.1946 137.456 51.1946Z" fill="#498AEC"/>
<path d="M121.571 77.6759C121.087 78.2581 120.762 78.9251 120.618 79.6282C120.549 80.0162 120.539 80.6107 121.112 80.6655C121.286 80.6622 121.458 80.6252 121.613 80.5573C121.769 80.4894 121.904 80.3923 122.01 80.2734C122.01 79.1475 122.049 78.0638 122.074 77.0897C121.87 77.2603 121.7 77.4583 121.571 77.6759ZM118.437 79.5734C118.348 79.0674 118.028 78.4939 117.322 78.7301C116.616 78.9662 116.305 79.9023 116.222 80.5264C116.135 81.0354 116.153 81.5535 116.276 82.0571C116.317 82.3325 116.462 82.5889 116.69 82.7866C117.352 83.2546 117.717 82.4155 117.924 82.0023C118.357 81.2495 118.535 80.4081 118.437 79.5734ZM147.433 89.8285C147.47 88.988 147.231 88.1555 146.743 87.425C146.412 87.0033 145.849 86.5816 145.321 87.0539C144.793 87.5262 144.951 88.4792 145.173 89.0864C145.339 89.5781 145.603 90.0417 145.953 90.4568C146.122 90.6951 146.379 90.879 146.683 90.9797C147.478 91.1737 147.433 90.2797 147.433 89.8285ZM121.28 74.3489C120.831 74.1802 120.455 74.4163 120.179 74.7705C119.834 75.1929 119.592 75.6705 119.469 76.1747C119.404 76.4741 119.291 77.0181 119.631 77.2373C119.972 77.4566 120.406 77.2036 120.618 76.9759C121.033 76.5669 122.237 74.7368 121.25 74.3489H121.28ZM116.251 84.7347C115.975 84.2245 115.526 83.242 114.697 83.3474C114.44 84.2919 114.203 85.1437 114.031 85.8774C114.227 86.4202 114.538 86.9276 114.948 87.3744C115.215 87.6569 115.644 88.028 116.044 88.0111C116.444 87.9943 116.71 87.7876 116.809 87.3702C116.946 86.4607 116.74 85.5375 116.222 84.7347H116.251ZM119.33 82.6643C118.876 82.6263 118.24 83.3685 118.23 84.5197C118.23 85.7847 118.783 86.4425 119.177 86.4045C119.957 86.3202 120.199 85.2871 120.204 84.4817C120.184 83.8703 119.849 82.7149 119.306 82.6643H119.33ZM119.992 69.6683C119.498 69.7863 119.311 70.2249 119.271 70.6887C119.224 71.0346 119.241 71.3846 119.321 71.726C119.38 71.9495 119.533 72.232 119.858 72.1477C120.184 72.0634 120.381 71.6038 120.455 71.3507C120.52 71.0303 120.914 69.4279 119.962 69.6683H119.992ZM148.993 85.1648C148.499 85.2829 148.317 85.7214 148.277 86.1895C148.231 86.5353 148.247 86.8853 148.327 87.2268C148.381 87.4461 148.534 87.7328 148.86 87.6485C149.185 87.5641 149.388 87.1087 149.457 86.8557C149.521 86.5268 149.901 84.9245 148.963 85.1648H148.993ZM143.352 61.745C142.937 62.2421 142.682 62.8238 142.612 63.4317C142.445 63.9504 142.454 64.4437 143.017 64.4901C143.402 64.5238 143.792 64.1232 144.053 63.8407C143.787 63.1323 143.555 62.4323 143.323 61.745H143.352ZM146.106 69.7568C145.754 70.0036 145.439 70.2869 145.168 70.6002C144.892 70.9122 144.571 71.4435 145.07 71.7176C145.568 71.9917 146.259 71.6881 146.752 71.4604C146.516 70.9459 146.298 70.3767 146.076 69.7695L146.106 69.7568ZM142.721 68.4918C141.892 68.4328 141.181 69.137 140.747 69.6556C140.4 70.0744 140.14 70.5408 139.977 71.0345C139.865 71.2948 139.857 71.5792 139.952 71.8441C140.283 72.5146 141.063 71.92 141.472 71.6333C142.263 71.1328 142.875 70.4538 143.239 69.6725C143.422 69.196 143.451 68.5635 142.691 68.5044L142.721 68.4918ZM137.687 71.4941C136.913 71.4013 136.469 72.114 136.207 72.6284C135.83 73.4428 135.731 74.3317 135.921 75.1922C136.005 75.5548 136.182 76.0356 136.548 76.1958C136.913 76.356 137.258 76.2548 137.574 75.9217C138.187 75.183 138.508 74.2969 138.492 73.3917C138.512 72.7887 138.655 71.6417 137.658 71.5068L137.687 71.4941ZM142.356 72.7591C141.976 72.5441 141.013 72.9489 140.382 73.9736C139.701 75.0699 139.834 75.8922 140.209 76.0103C140.949 76.2506 141.689 75.4241 142.158 74.7157C142.469 74.1718 142.79 73.0248 142.326 72.7676L142.356 72.7591ZM145.168 77.5241C144.561 77.5958 144.231 78.0933 144.088 78.6499C143.958 79.0619 143.906 79.489 143.935 79.915C143.935 80.1891 144.088 80.5517 144.497 80.5053C144.907 80.4589 145.242 79.9276 145.386 79.6324C145.539 79.2572 146.343 77.3807 145.139 77.5452L145.168 77.5241Z" fill="#263238"/>
<path d="M139.109 51.1187C144.083 44.4351 148.12 39.6322 155.196 31.8523C158.883 27.8 163.506 22.9592 165.14 21.2346C167.291 18.9575 178.049 30.0897 176.386 31.5192C175.3 32.4427 171.732 35.4239 165.53 40.1467C158.443 45.523 152.458 49.9928 144.261 55.1246C138.058 58.9913 135.823 55.5378 139.109 51.1187Z" fill="#FFC4C0"/>
<path d="M172.917 33.5475C176.193 32.8981 186.566 28.3904 188.372 27.1127C190.178 25.835 195.078 21.8375 194.077 20.5514C193.075 19.2653 191.53 20.3406 191.53 20.3406C191.53 20.3406 193.504 18.2322 192.137 17.1612C191.057 16.3178 188.792 17.7347 188.792 17.7347C188.792 17.7347 190.795 15.3016 189.285 14.4076C187.923 13.5896 185.929 15.6389 185.929 15.6389C185.929 15.6389 187.36 13.4589 185.875 12.8896C184.094 12.1854 181.612 15.9805 179.509 17.2455C179.016 17.5365 166.082 22.2213 166.082 22.2213L172.917 33.5475Z" fill="#FFC4C0"/>
<path d="M185.894 15.5125C183.698 18.1732 182.702 19.2232 179.479 20.7033C179.415 20.7328 179.455 20.8214 179.524 20.7961C182.84 19.5901 184.128 18.4178 186.067 15.5799C186.151 15.445 185.998 15.3902 185.894 15.5125Z" fill="#263238"/>
<path d="M188.757 17.7263C186.561 20.4629 185.071 21.4159 181.819 23.1785C181.774 23.2038 181.819 23.2755 181.868 23.2502C185.224 21.7491 187.104 20.7455 188.875 17.7684C188.959 17.6335 188.885 17.604 188.757 17.7263Z" fill="#263238"/>
<path d="M191.353 20.4293C189.004 22.9593 187.449 24.1358 184.04 25.4894C184.024 25.496 184.012 25.5072 184.006 25.5208C184 25.5345 184 25.5496 184.006 25.5632C184.012 25.5769 184.024 25.5881 184.04 25.5947C184.055 25.6013 184.072 25.6028 184.089 25.599C187.726 24.4942 189.675 23.0226 191.437 20.4883C191.57 20.3281 191.516 20.2733 191.353 20.4293Z" fill="#263238"/>
<path d="M199.153 22.2061L181.235 1.23328L177.82 3.36402L195.737 24.3369L199.153 22.2061Z" fill="#498AEC"/>
<path d="M195.736 24.3354L177.818 3.36255L163.542 12.2684L181.459 33.2412L195.736 24.3354Z" fill="#498AEC"/>
<path opacity="0.1" d="M195.736 24.3354L177.818 3.36255L163.542 12.2684L181.459 33.2412L195.736 24.3354Z" fill="black"/>
<path d="M198.798 22.4274L180.88 1.45459L178.174 3.14277L196.091 24.1156L198.798 22.4274Z" fill="white"/>
<path d="M179.875 4.17358C185.431 10.4059 191.353 17.3636 196.628 23.773C191.091 17.528 185.15 10.5662 179.875 4.17358Z" fill="#DBDBDB"/>
<path d="M180.408 3.82776C185.925 10.077 191.886 17.0346 197.161 23.4441C191.624 17.1991 185.683 10.2372 180.408 3.82776Z" fill="#DBDBDB"/>
<path d="M180.935 3.49487C186.472 9.74409 192.418 16.7017 197.713 23.1112C192.177 16.8662 186.23 9.90433 180.935 3.49487Z" fill="#DBDBDB"/>
<path d="M181.483 3.16589C187.02 9.4109 192.966 16.3728 198.237 22.7822C192.685 16.533 186.744 9.57535 181.483 3.16589Z" fill="#DBDBDB"/>
<path d="M163.61 22.9846C163.61 22.9846 165.618 18.8227 170.676 17.8233C172.724 17.4016 176.252 12.8391 178.019 13.1553C179.993 13.5138 177.822 17.7938 174.989 19.8726C174.989 19.8726 177.491 24.6713 174.885 26.7923C174.318 27.2519 170.563 28.479 169.724 28.2091L163.61 22.9846Z" fill="#FFC4C0"/>
<path d="M174.792 20.1719C175.843 22.0104 176.341 24.6754 175.083 26.4085C175.079 26.4135 175.076 26.4191 175.074 26.4251C175.072 26.4311 175.072 26.4373 175.073 26.4433C175.074 26.4494 175.077 26.4552 175.081 26.4605C175.084 26.4657 175.089 26.4702 175.095 26.4738C175.101 26.4774 175.108 26.48 175.115 26.4814C175.122 26.4829 175.129 26.4831 175.136 26.4821C175.143 26.4811 175.15 26.479 175.156 26.4757C175.162 26.4725 175.168 26.4683 175.172 26.4633C176.82 24.7766 176.272 21.6773 175.216 20.0834C175.014 19.7755 174.52 19.6996 174.792 20.1719Z" fill="#263238"/>
<path d="M152.62 50.6549L146.303 40.9564C146.303 40.9564 138.467 51.1652 137.155 54.7241C135.674 58.73 138.393 58.4981 142.558 56.6849C146.723 54.8717 152.62 50.6549 152.62 50.6549Z" fill="#498AEC"/>
<path d="M145.706 49.3899C145.257 49.2171 144.882 49.4532 144.606 49.8116C144.266 50.2348 144.024 50.7102 143.895 51.2116C143.831 51.5152 143.718 52.0549 144.063 52.2784C144.409 52.5019 144.833 52.2405 145.05 52.017C145.489 51.6037 146.693 49.7737 145.706 49.3899ZM144.083 43.9335C143.343 44.9286 142.499 46.1009 141.655 47.3069C141.686 47.447 141.75 47.5804 141.842 47.6992C141.934 47.818 142.054 47.9197 142.193 47.9984C142.519 48.1882 142.903 48.0617 143.219 47.7285C144.001 46.5834 144.306 45.2455 144.083 43.9335ZM147.986 44.5618C147.601 44.3509 146.644 44.7557 146.012 45.772C145.331 46.8725 145.465 47.6948 145.84 47.8129C146.575 48.049 147.345 47.2268 147.789 46.5183C148.129 45.9617 148.45 44.8232 147.986 44.5618Z" fill="#263238"/>
<path d="M150.345 51.2916C149.358 50.1488 146.891 46.3622 146.501 45.7381C146.284 45.4092 145.489 44.0514 145.272 43.7436C145.243 43.7014 145.327 43.6719 145.351 43.7141C145.771 44.3339 146.264 44.9201 146.689 45.5441C147.113 46.1682 149.748 49.938 150.4 51.2621C150.395 51.2916 150.365 51.3169 150.345 51.2916Z" fill="#263238"/>
<path d="M141.132 57.8276C141.295 57.6884 141.463 57.5535 141.626 57.4059C140.678 57.895 139.711 58.3462 138.719 58.7679C138.719 58.7679 138.68 58.7468 138.719 58.7342C139.751 58.1228 140.787 57.5324 141.853 56.9716C142.346 56.7059 143.101 56.3264 143.659 56.0144C143.723 55.9764 143.797 56.0608 143.733 56.0945C143.195 56.3897 142.692 56.8619 142.223 57.1107C142.114 57.2222 141.997 57.3278 141.872 57.427C141.675 57.5914 141.468 57.7517 141.256 57.8993C140.826 58.1987 140.382 58.4854 139.948 58.7763C140.343 58.477 140.742 58.1481 141.132 57.8276Z" fill="#263238"/>
<path d="M131.667 50.461C127.813 50.1025 120.056 59.3161 118.092 63.398C117.105 65.4684 117.653 72.0929 117.791 72.1688C117.929 72.2447 118.339 70.7056 118.536 70.1279C118.733 69.5502 120.248 65.2322 121.23 63.2082C122.948 59.6661 131.874 51.1103 132.018 50.9796C132.161 50.8489 132.023 50.4947 131.667 50.461Z" fill="#455A64"/>
<path d="M131.243 56.1662C132.635 56.5162 136.213 54.9012 137.9 53.2145C138.014 53.1006 138.132 51.7006 138.394 50.0055C138.542 48.9724 138.739 47.8297 139.006 46.8008L131.021 46.9441C131.121 48.3154 131.023 49.692 130.73 51.0428C130.693 51.1879 130.639 51.3292 130.567 51.4645C130.565 51.487 130.565 51.5095 130.567 51.532C130.163 52.3247 129.067 55.618 131.243 56.1662Z" fill="#FFC4C0"/>
<path d="M130.552 51.4814C130.538 51.5028 130.527 51.5254 130.518 51.5489C130.77 51.6269 131.029 51.6875 131.293 51.7302C135.62 52.4597 137.831 48.1712 138.408 46.8303L131.006 46.961C131.106 48.3349 131.01 49.7141 130.72 51.0682C130.674 51.2086 130.618 51.3466 130.552 51.4814Z" fill="#263238"/>
<path d="M142.992 39.1727C142.963 41.6268 139.183 47.7284 136.784 48.6688C133.305 50.0308 128.8 49.0356 127.749 45.7171C126.728 42.4786 131.82 34.6017 134.391 33.8511C138.151 32.7126 142.992 35.5252 142.992 39.1727Z" fill="#FFC4C0"/>
<path d="M136.479 40.2184C136.286 40.0792 136.143 39.9274 135.985 39.7967C135.782 39.662 135.636 39.4738 135.571 39.2612C135.566 39.1915 135.587 39.1223 135.633 39.0643C135.678 39.0064 135.745 38.9629 135.823 38.9407C135.983 38.9157 136.149 38.928 136.303 38.9762C136.456 39.0244 136.592 39.1068 136.696 39.2148C136.946 39.4069 137.104 39.6712 137.14 39.957C137.143 40.0235 137.123 40.0892 137.082 40.146C137.041 40.2027 136.982 40.2479 136.911 40.2759C136.841 40.3038 136.762 40.3133 136.685 40.3031C136.608 40.2928 136.536 40.2634 136.479 40.2184Z" fill="#263238"/>
<path d="M131.668 38.1942C131.9 38.2475 132.135 38.2884 132.373 38.3165C132.616 38.3882 132.88 38.3882 133.123 38.3165C133.195 38.2825 133.251 38.2293 133.283 38.1652C133.315 38.1012 133.321 38.0298 133.301 37.9623C133.238 37.8331 133.136 37.7207 133.005 37.6368C132.874 37.553 132.719 37.5009 132.556 37.4858C132.226 37.4061 131.874 37.4362 131.569 37.5702C131.499 37.6029 131.442 37.6531 131.406 37.714C131.37 37.7748 131.357 37.8436 131.368 37.9112C131.378 37.9788 131.413 38.042 131.466 38.0925C131.52 38.1431 131.59 38.1785 131.668 38.1942Z" fill="#263238"/>
<path d="M133.345 44.9242C133.178 45.0028 132.985 45.0297 132.798 45.0001C132.617 44.9198 132.458 44.8094 132.329 44.6754H132.294C132.319 44.7862 132.378 44.8894 132.465 44.9745C132.551 45.0597 132.663 45.1238 132.788 45.1603C132.9 45.1794 133.016 45.1699 133.122 45.1332C133.228 45.0965 133.32 45.0341 133.385 44.9537C133.404 44.9453 133.37 44.92 133.345 44.9242Z" fill="#263238"/>
<path d="M133.552 43.4611C133.333 43.5751 133.088 43.6489 132.833 43.6779C132.578 43.707 132.319 43.6906 132.072 43.6298C131.857 43.5768 131.652 43.5002 131.46 43.402C131.422 43.3849 131.386 43.3651 131.352 43.343L131.253 43.284C131.23 43.2685 131.213 43.247 131.205 43.2227C131.197 43.1985 131.198 43.1726 131.208 43.149L131.238 43.1069V43.0689C131.411 42.7442 131.732 42.272 131.732 42.272C131.559 42.272 130.705 42.2467 130.809 42.0822C131.685 40.6523 132.728 39.3017 133.923 38.051C133.926 38.0463 133.931 38.0422 133.936 38.039C133.942 38.0359 133.948 38.0336 133.954 38.0324C133.96 38.0313 133.967 38.0312 133.974 38.0322C133.98 38.0332 133.986 38.0353 133.992 38.0383C133.997 38.0414 134.002 38.0453 134.006 38.0499C134.009 38.0546 134.012 38.0598 134.013 38.0652C134.015 38.0707 134.015 38.0764 134.014 38.0819C134.012 38.0874 134.01 38.0927 134.006 38.0974C133.207 39.4257 132.141 40.6274 131.312 41.9431C131.618 41.9494 131.922 41.992 132.215 42.0696C132.26 42.1033 131.583 42.9762 131.519 43.128C131.811 43.283 132.136 43.386 132.475 43.431C132.814 43.4759 133.161 43.4618 133.493 43.3894C133.577 43.3894 133.617 43.44 133.552 43.4611Z" fill="#263238"/>
<path d="M131.781 43.3304C131.86 43.6424 132.03 43.9324 132.275 44.1738C132.414 44.3026 132.597 44.391 132.798 44.4268C133.237 44.5027 133.424 44.1991 133.503 43.9081C133.543 43.753 133.561 43.5945 133.558 43.4359C132.968 43.563 132.345 43.5261 131.781 43.3304Z" fill="#263238"/>
<path d="M132.27 44.1864C132.409 44.3152 132.592 44.4036 132.793 44.4394C133.232 44.5153 133.42 44.2117 133.499 43.9207C133.289 43.8403 133.053 43.8228 132.83 43.871C132.607 43.9192 132.41 44.0304 132.27 44.1864Z" fill="#FF9BBC"/>
<path d="M135.817 41.2304C135.856 41.109 135.856 40.9808 135.817 40.8594C135.79 40.7947 135.748 40.7355 135.692 40.6854C135.637 40.6354 135.571 40.5955 135.497 40.5684C135.417 40.5401 135.33 40.5288 135.244 40.5354C135.158 40.542 135.076 40.5664 135.003 40.6064C134.882 40.6725 134.78 40.762 134.707 40.8678C134.662 40.9308 134.624 40.9972 134.594 41.066C134.521 41.2065 134.489 41.3597 134.5 41.513C134.542 41.4078 134.598 41.3073 134.668 41.2136C134.726 41.1271 134.794 41.0452 134.87 40.969C135.023 40.813 135.215 40.7076 135.363 40.775C135.511 40.8425 135.615 41.0027 135.595 41.1967C135.573 41.407 135.525 41.6147 135.452 41.8166C135.626 41.6485 135.751 41.4477 135.817 41.2304Z" fill="#263238"/>
<path d="M131.1 39.1262C131.193 39.0298 131.314 38.9557 131.45 38.9112C131.527 38.8884 131.608 38.8796 131.689 38.8854C131.77 38.8912 131.848 38.9115 131.919 38.9449C131.99 38.981 132.051 39.0306 132.096 39.0898C132.141 39.149 132.17 39.2163 132.181 39.2865C132.194 39.4097 132.174 39.5339 132.121 39.6491C132.09 39.718 132.052 39.7843 132.008 39.8473C131.922 39.9821 131.8 40.0977 131.652 40.1846C131.783 40.006 131.875 39.809 131.924 39.6027C131.973 39.4046 131.954 39.2064 131.791 39.1389C131.699 39.103 131.596 39.0942 131.497 39.1141C131.399 39.1339 131.311 39.1813 131.248 39.2485C131.064 39.3937 130.899 39.5548 130.754 39.7292C130.812 39.5076 130.93 39.3008 131.1 39.1262Z" fill="#263238"/>
<path d="M140.077 44.435C139.756 44.0134 139.928 41.7237 139.928 41.7237C139.928 41.7237 135.675 38.9828 136.306 35.1582C136.306 35.1582 133.311 36.7943 131.15 36.7985C131.15 36.7985 132.452 33.0034 136.721 33.4504C136.721 33.4504 141.162 33.0751 143.536 37.1485C145.909 41.2219 141.281 44.8061 141.281 44.8061L140.077 44.435Z" fill="#263238"/>
<path d="M136.656 34.4878C136.306 35.0691 136.146 35.7202 136.193 36.3727C136.206 37.0181 136.327 37.6585 136.553 38.2745C136.763 38.9107 137.096 39.5122 137.54 40.054C138.087 40.6418 138.734 41.1563 139.459 41.5804C139.459 41.5804 139.459 41.6268 139.43 41.6142C138.662 41.1917 137.963 40.6841 137.352 40.1046C136.861 39.562 136.479 38.9536 136.222 38.304C135.929 37.6599 135.796 36.9705 135.832 36.28C135.908 35.6281 136.163 35.0009 136.577 34.4499C136.602 34.4077 136.686 34.4457 136.656 34.4878Z" fill="#263238"/>
<path d="M135.852 32.6746C136.79 32.3499 138.976 31.7722 140.737 31.9999C142.499 32.2276 144.685 33.3324 145.445 33.6866C146.067 33.9818 148.253 34.53 149.783 35.6052C150.218 35.9677 150.531 36.4237 150.689 36.9252C150.847 37.4268 150.844 37.9555 150.681 38.4558C150.222 39.4593 147.853 38.4558 147.651 38.8353C147.518 39.0925 147.651 40.4882 146.758 40.99C145.865 41.4918 145.914 41.4117 145.406 41.6689C144.167 42.3309 143.925 37.216 142.055 35.5504C140.185 33.8848 135.852 32.6746 135.852 32.6746Z" fill="#498AEC"/>
<path opacity="0.1" d="M136.015 32.7759C136.015 32.7759 140.195 33.8891 142.055 35.5547C143.916 37.2203 143.871 42.0907 145.115 41.4287C145.658 41.1377 145.934 40.6907 146.181 39.9359C145.973 38.5065 145.376 36.28 144.039 34.7156C142.786 33.2482 140.585 32.4681 138.181 32.1855C137.442 32.3311 136.717 32.5286 136.015 32.7759Z" fill="black"/>
<path d="M144.719 43.7857C143.841 42.099 143.19 39.4973 141.635 37.4606C140.081 35.4239 135.358 34.1462 134.692 34.1631C133.069 34.2053 132.694 34.8546 132.442 34.7239C132.19 34.5932 133.858 33.0667 134.322 32.8433C135.028 32.5617 135.798 32.4177 136.577 32.4216C137.278 32.4511 141.601 32.9276 143.121 34.53C144.641 36.1323 146.723 40.6316 146.279 41.7532C146.17 42.0231 145.741 42.1749 145.593 42.5713C145.4 43.0731 145.252 43.655 145.065 44.005C144.907 44.3086 144.774 43.8869 144.719 43.7857Z" fill="#498AEC"/>
<path d="M141.295 36.5625C141.673 36.3781 142.031 36.1665 142.366 35.93C142.71 35.6957 143.022 35.4283 143.294 35.1331C143.294 35.1331 143.353 35.1331 143.338 35.1331C143.118 35.4759 142.835 35.7863 142.5 36.0523C142.156 36.3045 141.761 36.5004 141.335 36.63C141.281 36.6427 141.251 36.5836 141.295 36.5625Z" fill="#263238"/>
<path d="M144.74 43.0181C144.792 42.9264 144.852 42.8377 144.917 42.7525C144.978 42.6508 145.03 42.5451 145.07 42.4362C145.106 42.2226 145.171 42.0132 145.263 41.8122C145.366 41.6596 145.49 41.518 145.633 41.3905C145.809 41.2509 145.923 41.0629 145.954 40.8592C145.954 40.8297 146.008 40.8297 146.003 40.8592C145.923 41.2234 145.736 41.5644 145.46 41.8501C145.362 42.0674 145.286 42.2918 145.233 42.5206C145.163 42.7312 145.016 42.9173 144.814 43.0519C144.774 43.0772 144.725 43.0477 144.74 43.0181Z" fill="#263238"/>
<path d="M144.261 41.6013C144.414 41.4538 144.572 41.3273 144.705 41.1797C144.832 41.027 144.946 40.8663 145.045 40.699C145.149 40.5387 145.233 40.3701 145.331 40.2056C145.43 40.0412 145.593 39.8261 145.697 39.6279C145.697 39.6026 145.751 39.6279 145.736 39.6532C145.632 39.8556 145.563 40.0749 145.465 40.2899C145.366 40.505 145.267 40.6441 145.159 40.8128C145.05 40.9738 144.924 41.1262 144.784 41.2682C144.649 41.4144 144.481 41.5362 144.29 41.6267C144.29 41.6267 144.251 41.6098 144.261 41.6013Z" fill="#263238"/>
<path d="M143.195 39.0882C143.355 38.9971 143.495 38.883 143.609 38.7509C143.742 38.6075 143.876 38.4641 144.004 38.3292L144.374 37.9075C144.509 37.7702 144.607 37.6089 144.66 37.4352C144.662 37.4307 144.666 37.4269 144.671 37.4242C144.676 37.4215 144.682 37.42 144.687 37.42C144.693 37.42 144.699 37.4215 144.704 37.4242C144.708 37.4269 144.712 37.4307 144.714 37.4352C144.687 37.6112 144.622 37.7814 144.522 37.937C144.417 38.1116 144.295 38.2781 144.157 38.4346C144.023 38.5907 143.876 38.7387 143.718 38.8774C143.59 39.0095 143.417 39.1051 143.224 39.1514C143.18 39.1472 143.155 39.1051 143.195 39.0882Z" fill="#263238"/>
<path d="M142.81 37.5366C142.958 37.4227 143.101 37.3046 143.235 37.1824C143.368 37.0601 143.496 36.9294 143.619 36.7986C143.743 36.6679 143.881 36.5245 143.999 36.377C143.998 36.3737 143.997 36.3702 143.997 36.3666C143.997 36.3631 143.999 36.3596 144.001 36.3566C144.003 36.3535 144.006 36.351 144.01 36.3493C144.013 36.3476 144.017 36.3467 144.022 36.3467C144.026 36.3467 144.03 36.3476 144.034 36.3493C144.037 36.351 144.04 36.3535 144.043 36.3566C144.045 36.3596 144.046 36.3631 144.046 36.3666C144.047 36.3702 144.046 36.3737 144.044 36.377C143.96 36.5381 143.861 36.6932 143.748 36.8408C143.515 37.1248 143.244 37.3839 142.939 37.6125C142.798 37.7342 142.63 37.8303 142.445 37.895C142.415 37.895 142.386 37.895 142.406 37.8528C142.527 37.7358 142.663 37.6299 142.81 37.5366Z" fill="#263238"/>
<path d="M140.155 35.7992C140.31 35.6416 140.474 35.491 140.648 35.348C140.822 35.1984 141.007 35.0576 141.201 34.9264C141.57 34.6715 141.972 34.4537 142.4 34.277C142.424 34.277 142.454 34.277 142.434 34.3107C141.694 34.8167 140.954 35.2974 140.204 35.8119L140.155 35.7992Z" fill="#263238"/>
<path d="M139.272 34.6608C139.428 34.5036 139.606 34.3622 139.8 34.2391C140.215 34.0041 140.658 33.8076 141.122 33.653C141.152 33.653 141.176 33.653 141.152 33.6909C140.747 33.906 140.342 34.1126 139.957 34.3445C139.764 34.4587 139.578 34.5811 139.4 34.7114C139.222 34.8463 139.089 35.0065 138.906 35.133H138.872C138.969 34.9557 139.105 34.7955 139.272 34.6608Z" fill="#263238"/>
<path d="M138.023 34.1125C138.169 33.957 138.335 33.8156 138.517 33.6909C138.854 33.4612 139.235 33.2817 139.642 33.1595C139.671 33.1595 139.686 33.1891 139.642 33.2017C139.266 33.3818 138.91 33.5892 138.576 33.8216C138.408 33.9396 138.245 34.0661 138.082 34.1884C137.92 34.3107 137.781 34.4667 137.589 34.5722C137.589 34.5722 137.559 34.5722 137.564 34.5511C137.702 34.3939 137.856 34.2471 138.023 34.1125Z" fill="#263238"/>
<path d="M137.13 33.4506C137.298 33.3466 137.462 33.2454 137.624 33.147C137.787 33.0432 137.969 32.962 138.162 32.9066C138.191 32.9066 138.201 32.9319 138.162 32.9446C137.841 33.1512 137.53 33.3662 137.214 33.5686C136.942 33.7806 136.696 34.015 136.479 34.2686C136.479 34.2686 136.449 34.2686 136.454 34.2686C136.577 33.9437 136.813 33.6585 137.13 33.4506Z" fill="#263238"/>
<path d="M136 33.2144C136.301 32.9874 136.652 32.8127 137.031 32.7C137.056 32.7 137.076 32.7295 137.031 32.7379C136.686 32.8872 136.369 33.079 136.089 33.3072C135.806 33.5347 135.553 33.7878 135.334 34.062C135.334 34.062 135.294 34.062 135.304 34.062C135.454 33.7363 135.693 33.4457 136 33.2144Z" fill="#263238"/>
<path d="M134.485 33.7584C134.526 33.6914 134.572 33.6266 134.623 33.5644C134.725 33.4386 134.842 33.3227 134.974 33.2186C135.244 33.0122 135.538 32.8299 135.852 32.6747C135.882 32.6747 135.906 32.6747 135.882 32.7126C135.58 32.8707 135.302 33.059 135.053 33.2735C134.931 33.379 134.819 33.4917 134.717 33.6108C134.665 33.6685 134.617 33.7291 134.574 33.7921C134.537 33.8564 134.492 33.9172 134.441 33.9734H134.401C134.412 33.8976 134.44 33.8244 134.485 33.7584Z" fill="#263238"/>
<path d="M133.567 33.8049C133.661 33.7079 133.755 33.6109 133.858 33.5224C133.96 33.4315 134.068 33.347 134.184 33.2694C134.297 33.1892 134.421 33.1133 134.534 33.029C134.539 33.0256 134.546 33.0242 134.553 33.025C134.559 33.0258 134.565 33.0287 134.569 33.0332C134.573 33.0377 134.574 33.0433 134.573 33.0488C134.573 33.0544 134.569 33.0594 134.564 33.0627C134.447 33.1447 134.336 33.2334 134.233 33.3284L133.942 33.594L133.646 33.8597C133.547 33.9482 133.463 34.0537 133.355 34.1338H133.32C133.389 34.0172 133.472 33.9069 133.567 33.8049Z" fill="#263238"/>
<path d="M139.395 43.9924C139.395 43.9924 141.922 42.4069 142.82 43.2418C143.718 44.0767 141.246 46.729 139.785 46.7628C139.599 46.779 139.41 46.7627 139.231 46.7149C139.052 46.6672 138.887 46.5889 138.744 46.4848C138.602 46.3808 138.485 46.2531 138.402 46.1095C138.319 45.966 138.271 45.8095 138.26 45.6496L139.395 43.9924Z" fill="#FFC4C0"/>
<path d="M142.089 43.9883C142.114 43.9883 142.089 44.0178 142.089 44.0178C141.058 44.0684 140.293 44.6545 139.662 45.2828C139.745 45.22 139.843 45.1735 139.949 45.1464C140.056 45.1193 140.168 45.1123 140.278 45.126C140.388 45.1396 140.493 45.1735 140.586 45.2254C140.679 45.2772 140.757 45.3457 140.816 45.4262C140.816 45.4473 140.816 45.4726 140.777 45.4599C140.632 45.3738 140.46 45.3276 140.283 45.3276C140.107 45.3276 139.935 45.3738 139.79 45.4599C139.546 45.6046 139.319 45.7699 139.114 45.9533C139.045 46.0123 138.916 45.9322 138.976 45.8605C139.356 44.8527 140.806 43.7268 142.089 43.9883Z" fill="#263238"/>
<path d="M138.408 51.5868C135.674 53.9439 139.203 65.4219 141.705 69.2718C142.978 71.2326 147.843 74.0536 148.001 74.0115C148.159 73.9693 148.406 71.7639 148.001 71.2706C147.597 70.7772 145.435 68.9724 144.197 67.0538C142.025 63.6804 139.129 51.8735 139.114 51.688C139.099 51.5024 138.655 51.3717 138.408 51.5868Z" fill="#455A64"/>
<path d="M101.27 23.1025C101.072 24.7249 100.35 26.2683 99.1847 27.5605C98.0196 28.8526 96.4572 29.8426 94.6719 30.42C92.8865 30.9973 90.9485 31.1393 89.0742 30.83C87.1999 30.5208 85.4631 29.7725 84.0576 28.6686L78.9058 29.318L81.4817 25.523C80.89 24.2834 80.6369 22.945 80.7416 21.6093C80.8463 20.2737 81.3061 18.976 82.0859 17.815C82.8657 16.654 83.945 15.6602 85.2418 14.9092C86.5387 14.1582 88.0188 13.6698 89.5697 13.4811C91.1206 13.2924 92.7015 13.4084 94.1921 13.8202C95.6827 14.232 97.0437 14.9289 98.1718 15.8577C99.2999 16.7866 100.165 17.923 100.702 19.1806C101.239 20.4382 101.433 21.7838 101.27 23.1152V23.1025Z" fill="white"/>
<path d="M101.27 23.1025C101.07 24.7244 100.352 26.268 99.1928 27.5638C98.622 28.2102 97.9399 28.7789 97.1696 29.2505C95.6382 30.2366 93.8178 30.8422 91.9092 31.0005C91.4328 31.0301 90.9545 31.0301 90.4781 31.0005C89.9995 30.992 89.5225 30.9497 89.052 30.874C87.1532 30.5765 85.3894 29.8316 83.9594 28.7234L84.0778 28.7572L78.9309 29.474L78.5559 29.5246L78.7484 29.2421L81.3095 25.447V25.5988C80.7053 24.3367 80.4481 22.9729 80.5576 21.6124C80.6671 20.2519 81.1404 18.9311 81.9411 17.7515C82.7426 16.5722 83.8459 15.5631 85.1684 14.7997C86.4881 14.0539 87.9882 13.5728 89.5563 13.3924C91.1245 13.212 92.72 13.3371 94.2236 13.7582C95.7039 14.1939 97.0524 14.9054 98.1713 15.8413C99.2966 16.7727 100.16 17.91 100.697 19.1677C101.234 20.4254 101.43 21.7707 101.27 23.1025ZM101.27 23.1025C101.51 21.1007 100.935 19.0895 99.6411 17.408C98.3475 15.7266 96.415 14.4777 94.1693 13.8721C92.6905 13.4817 91.1276 13.3817 89.5973 13.5795C88.067 13.7774 86.6087 14.268 85.3312 15.0148C84.0746 15.7712 83.0242 16.7508 82.252 17.8864C81.4912 19.0282 81.044 20.3029 80.9443 21.614C80.8474 22.922 81.0953 24.2318 81.6697 25.447L81.7042 25.5272L81.6549 25.5988L79.0642 29.3939L78.8767 29.162L84.0384 28.5463H84.1074L84.1568 28.5843C85.5326 29.6872 87.2418 30.4394 89.0915 30.7559C89.5517 30.8367 90.0187 30.8861 90.488 30.9035C90.9578 30.933 91.4295 30.933 91.8993 30.9035C92.8397 30.8429 93.7652 30.6683 94.648 30.3848C95.5319 30.11 96.3633 29.7249 97.1153 29.2421C97.4959 29.0032 97.8585 28.7441 98.2009 28.4662C98.5368 28.1808 98.85 27.8765 99.1385 27.5554C100.318 26.2686 101.056 24.7269 101.27 23.1025Z" fill="#263238"/>
<path d="M89.8165 27.2055L85.4197 23.402L86.8952 22.1538L89.4661 24.376L94.8055 17.2202L96.5573 18.1774L89.8165 27.2055Z" fill="#498AEC"/>
</svg>
