<svg width="196" height="170" viewBox="0 0 196 170" fill="none" xmlns="http://www.w3.org/2000/svg">
<path d="M0 146.75C62.7237 146.462 133.09 146.457 195.813 146.75C133.09 147.043 62.7237 147.038 0 146.75Z" fill="#263238"/>
<path d="M42.1018 154.856L42.1829 153.74L115.096 150.347L148.139 160.878L148.058 161.993L76.3908 170L42.1018 154.856Z" fill="#498AEC"/>
<path opacity="0.1" d="M42.1018 154.856L42.1829 153.74L115.096 150.347L148.139 160.878L148.058 161.993L76.3908 170L42.1018 154.856Z" fill="black"/>
<path d="M42.1826 153.74L115.237 148.371L148.139 160.878L76.4716 168.884L42.1826 153.74Z" fill="#498AEC"/>
<path d="M46.7397 153.027L78.1358 166.932L145.297 159.455L113.483 147.454C113.483 147.454 93.5436 147.468 92.6091 147.563C91.6747 147.657 82.7824 149.047 82.7824 149.047C82.7824 149.047 70.4254 149.345 69.5806 149.439C68.7357 149.534 46.7397 153.022 46.7397 153.022V153.027Z" fill="white"/>
<path d="M46.7399 153.027L78.1487 166.895C78.0633 166.895 145.301 159.342 145.284 159.337L145.259 159.568C145.259 159.568 113.381 147.506 113.479 147.534C110.564 147.534 96.8164 147.549 94.235 147.582C93.6589 147.61 92.8781 147.558 92.3191 147.662L90.4118 147.946L82.7868 149.09C81.1654 149.132 72.9046 149.335 71.4496 149.387C70.8352 149.425 69.8026 149.406 69.1881 149.529C66.1586 149.997 50.0851 152.502 46.7356 153.022L46.7399 153.027ZM46.7399 153.027C50.2046 152.474 66.1245 149.969 69.1839 149.477C69.794 149.349 70.8096 149.368 71.4496 149.331C72.8235 149.279 81.2208 149.047 82.7783 149.004L90.4075 147.842L92.3148 147.553C92.8653 147.445 93.676 147.497 94.2392 147.468C96.7524 147.43 110.675 147.388 113.483 147.374C113.513 147.369 145.306 159.337 145.331 159.342L145.796 159.516L145.306 159.568C145.306 159.568 78.1273 166.975 78.1231 166.966L46.7399 153.022V153.027Z" fill="#EBEBEB"/>
<path d="M82.7825 149.047C85.2488 150.252 87.7278 151.443 90.224 152.625L97.7423 156.151L105.325 159.63C107.859 160.783 110.415 161.922 112.979 163.057C110.513 161.851 108.034 160.66 105.538 159.478L98.0196 155.952L90.4373 152.474C87.9028 151.32 85.3469 150.181 82.7825 149.047Z" fill="#DBDBDB"/>
<path d="M53.8485 153.438C56.2422 153.093 58.6232 152.738 60.9999 152.37L68.1171 151.25L69.8921 150.966C70.1865 150.923 70.4895 150.871 70.7711 150.838C71.0698 150.81 71.3898 150.801 71.697 150.782L75.4178 150.569C77.8969 150.422 80.3717 150.252 82.8422 150.073C80.3375 150.153 77.8371 150.252 75.3367 150.366L71.5946 150.545C71.2831 150.564 70.9717 150.569 70.6559 150.597C70.3316 150.635 70.0415 150.682 69.7385 150.72L67.9507 150.99C65.5868 151.377 63.2187 151.76 60.8676 152.167C58.5165 152.568 56.174 152.994 53.8442 153.433L53.8485 153.438Z" fill="#DBDBDB"/>
<path d="M56.0375 154.341C58.4312 153.996 60.8121 153.641 63.1888 153.272L70.3061 152.152L72.0811 151.869C72.3755 151.826 72.6785 151.774 72.9601 151.741C73.2588 151.713 73.5788 151.703 73.886 151.684L77.6068 151.467C80.0858 151.32 82.5606 151.15 85.0312 150.971C82.5265 151.051 80.0261 151.15 77.5257 151.264L73.7836 151.443C73.4721 151.462 73.1606 151.467 72.8449 151.495C72.5206 151.533 72.2304 151.58 71.9275 151.623L70.1396 151.897C67.7758 152.285 65.4076 152.667 63.0566 153.074C60.7055 153.476 58.3629 153.901 56.0332 154.341H56.0375Z" fill="#DBDBDB"/>
<path d="M58.2306 155.239C60.5689 154.903 62.8986 154.558 65.2198 154.194L72.1749 153.102L73.9115 152.828C74.5046 152.743 75.0465 152.63 75.6439 152.606L79.2793 152.389C81.7072 152.242 84.1265 152.086 86.5459 151.916C84.0967 151.987 81.6517 152.077 79.211 152.185C77.9907 152.233 76.7746 152.299 75.5543 152.37C74.927 152.393 74.3297 152.511 73.7536 152.587L72.0085 152.856C69.7001 153.235 67.3831 153.613 65.0875 154.01C62.7877 154.407 60.5006 154.818 58.2263 155.248L58.2306 155.239Z" fill="#DBDBDB"/>
<path d="M60.4236 156.142C62.7277 155.811 65.0233 155.47 67.3147 155.111L74.1716 154.033C75.3109 153.863 76.4629 153.646 77.5851 153.523L81.1608 153.306C83.5503 153.159 85.9398 153.008 88.3207 152.833C85.9056 152.899 83.4948 152.989 81.0925 153.093C79.8893 153.145 78.6945 153.206 77.487 153.277C76.2667 153.41 75.1615 153.603 74.0052 153.778C71.7267 154.152 69.4481 154.52 67.1867 154.917C64.9209 155.305 62.668 155.716 60.4236 156.137V156.142Z" fill="#DBDBDB"/>
<path d="M62.6172 157.044C64.9128 156.714 67.2041 156.373 69.4827 156.019L76.314 154.946C77.449 154.776 78.5968 154.563 79.7147 154.431C80.8881 154.345 82.0914 154.289 83.2776 154.213C85.6586 154.067 88.0395 153.915 90.4119 153.74C88.0054 153.807 85.6031 153.896 83.2093 154C82.0103 154.052 80.8199 154.114 79.6166 154.189C78.4048 154.327 77.2997 154.516 76.1519 154.695C73.8819 155.069 71.6119 155.437 69.3589 155.83C67.1017 156.217 64.8573 156.628 62.6215 157.044H62.6172Z" fill="#DBDBDB"/>
<path d="M64.8103 157.947C67.0974 157.616 69.3802 157.281 71.6544 156.926L78.4644 155.858C79.5952 155.688 80.7387 155.48 81.8524 155.338C83.0173 155.253 84.2205 155.196 85.4025 155.121C87.7749 154.974 90.1473 154.823 92.5154 154.653C90.1174 154.719 87.7237 154.804 85.3342 154.913C84.1352 154.965 82.9532 155.026 81.75 155.102C80.551 155.248 79.4458 155.433 78.3023 155.612C76.0408 155.986 73.7751 156.35 71.5307 156.742C69.2778 157.129 67.0419 157.536 64.8146 157.957L64.8103 157.947Z" fill="#DBDBDB"/>
<path d="M66.999 158.845C69.2562 158.519 71.5092 158.188 73.7536 157.838L80.474 156.784C81.5919 156.614 82.7141 156.416 83.8235 156.264C84.9414 156.156 86.149 156.113 87.3096 156.038C89.6521 155.891 91.9946 155.74 94.3287 155.57C91.9605 155.631 89.5966 155.721 87.2413 155.82C86.0594 155.882 84.8988 155.919 83.6998 156.023C82.5391 156.179 81.434 156.354 80.3118 156.534C78.0802 156.902 75.8443 157.262 73.6298 157.654C71.4067 158.037 69.2008 158.439 66.999 158.85V158.845Z" fill="#DBDBDB"/>
<path d="M69.1926 159.748C71.4498 159.422 73.7028 159.091 75.9472 158.741L82.6676 157.687C83.7855 157.517 84.9077 157.318 86.0171 157.167C87.135 157.059 88.3426 157.016 89.5032 156.94C91.8457 156.794 94.1882 156.643 96.5223 156.472C94.1541 156.534 91.7902 156.624 89.4349 156.723C88.253 156.784 87.0924 156.822 85.8934 156.926C84.7328 157.082 83.6276 157.257 82.5054 157.437C80.2738 157.805 78.038 158.165 75.8234 158.557C73.6004 158.94 71.3944 159.341 69.1926 159.753V159.748Z" fill="#DBDBDB"/>
<path d="M70.9971 160.736C73.2884 160.4 75.5712 160.06 77.8455 159.705L84.664 158.628L88.0648 158.093C89.1784 157.971 90.4158 157.933 91.5935 157.852C93.9702 157.706 96.3468 157.55 98.7193 157.38C96.317 157.446 93.919 157.531 91.5252 157.635C90.3262 157.701 89.1486 157.73 87.9282 157.852C86.7719 158.018 85.6369 158.193 84.5019 158.382C82.2404 158.76 79.9704 159.124 77.7217 159.526C75.4688 159.913 73.2287 160.324 70.9971 160.745V160.736Z" fill="#DBDBDB"/>
<path d="M73.1904 161.662C75.4732 161.327 77.7518 160.982 80.0175 160.622L86.8104 159.535L90.2026 158.996C91.3078 158.864 92.5452 158.831 93.7186 158.751C96.091 158.604 98.4591 158.448 100.827 158.278C98.4293 158.339 96.0355 158.429 93.6503 158.533C92.4513 158.604 91.2779 158.623 90.0618 158.755C88.914 158.925 87.779 159.096 86.6483 159.289C84.3954 159.668 82.1339 160.036 79.8938 160.438C77.6494 160.83 75.4178 161.242 73.1904 161.667V161.662Z" fill="#DBDBDB"/>
<path d="M75.3877 162.655C77.598 162.314 79.8082 161.974 82.0057 161.61C84.2117 161.26 86.3921 160.877 88.5895 160.523L91.8793 159.979C92.434 159.88 92.9418 159.823 93.5392 159.795L95.2673 159.691C97.5714 159.545 99.8756 159.393 102.175 159.223C99.8414 159.28 97.5159 159.365 95.1947 159.469L93.4581 159.559C93.168 159.578 92.8778 159.587 92.5834 159.62C92.2804 159.653 92.0116 159.701 91.73 159.743C90.6206 159.913 89.524 160.093 88.4274 160.282C86.2427 160.66 84.0495 161.029 81.8819 161.435C79.7058 161.827 77.5468 162.239 75.3877 162.659V162.655Z" fill="#DBDBDB"/>
<path d="M77.5768 163.501C79.8212 163.212 82.0656 162.919 84.2972 162.607C86.5373 162.31 88.7561 161.974 90.9877 161.667C92.1014 161.52 93.2236 161.341 94.3202 161.213L97.7465 160.901C100.025 160.679 102.304 160.452 104.569 160.197C102.257 160.339 99.9525 160.504 97.6526 160.679L94.2135 160.963C93.0486 161.09 91.9563 161.256 90.8384 161.416C88.6196 161.747 86.388 162.064 84.182 162.423C81.9674 162.763 79.77 163.132 77.5725 163.501H77.5768Z" fill="#DBDBDB"/>
<path d="M110.475 159.871C112.613 159.616 114.72 159.323 116.82 159.015L118.399 158.798C118.919 158.718 119.431 158.675 119.986 158.633L123.241 158.373L129.744 157.834C131.912 157.654 134.071 157.446 136.234 157.257C134.054 157.399 131.865 157.526 129.685 157.682L123.152 158.146L119.892 158.387C119.359 158.425 118.783 158.467 118.253 158.543C117.72 158.614 117.2 158.699 116.675 158.779C114.575 159.1 112.51 159.464 110.475 159.876V159.871Z" fill="#DBDBDB"/>
<path d="M108.367 158.765C110.462 158.576 112.544 158.363 114.609 158.117C115.646 158.009 116.679 157.871 117.703 157.782L120.848 157.517L127.133 156.969C129.228 156.789 131.31 156.576 133.401 156.383C131.293 156.529 129.177 156.657 127.073 156.817L120.758 157.29C118.672 157.46 116.521 157.588 114.481 157.881C112.421 158.136 110.385 158.434 108.367 158.765Z" fill="#DBDBDB"/>
<path d="M106.323 157.763C108.405 157.578 110.475 157.37 112.523 157.129L115.6 156.789L118.736 156.576L125.017 156.137C127.112 155.99 129.194 155.815 131.28 155.655C129.173 155.763 127.06 155.853 124.957 155.976L118.646 156.34L115.493 156.539C114.439 156.633 113.428 156.77 112.404 156.898C110.355 157.148 108.333 157.446 106.328 157.767L106.323 157.763Z" fill="#DBDBDB"/>
<path d="M104.574 157.006C106.639 156.756 108.649 156.42 110.671 156.123C111.192 156.056 111.653 155.962 112.182 155.948L113.769 155.863L116.948 155.702C121.185 155.485 125.413 155.253 129.642 154.998C125.379 155.135 121.125 155.291 116.88 155.475L113.696 155.622L112.105 155.697C111.567 155.716 111.017 155.792 110.522 155.872C108.499 156.198 106.511 156.562 104.582 157.006H104.574Z" fill="#DBDBDB"/>
<path d="M102.657 156.099C104.723 155.849 106.732 155.513 108.755 155.215C109.275 155.149 109.736 155.054 110.265 155.04L111.853 154.955L115.032 154.794C119.269 154.577 123.497 154.345 127.726 154.09C123.463 154.227 119.209 154.383 114.963 154.568L111.78 154.714L110.189 154.79C109.651 154.809 109.101 154.884 108.606 154.965C106.583 155.291 104.595 155.655 102.666 156.099H102.657Z" fill="#DBDBDB"/>
<path d="M100.742 155.191C102.807 154.941 104.817 154.605 106.839 154.307C107.36 154.241 107.821 154.147 108.35 154.133L109.937 154.047L113.116 153.887C117.353 153.669 121.582 153.438 125.81 153.182C121.547 153.32 117.293 153.476 113.048 153.66L109.865 153.806L108.273 153.882C107.735 153.901 107.185 153.977 106.686 154.057C104.663 154.383 102.675 154.747 100.746 155.191H100.742Z" fill="#DBDBDB"/>
<path d="M98.8262 154.284C100.891 154.033 102.901 153.698 104.924 153.4C105.444 153.334 105.905 153.239 106.434 153.225L108.021 153.14L111.2 152.979C115.437 152.762 119.67 152.53 123.894 152.275C119.632 152.412 115.378 152.568 111.132 152.753L107.949 152.899L106.357 152.975C105.82 152.994 105.269 153.069 104.774 153.15C102.752 153.476 100.763 153.84 98.8347 154.284H98.8262Z" fill="#DBDBDB"/>
<path d="M96.3298 153.485C98.395 153.235 100.405 152.899 102.427 152.601C102.948 152.535 103.409 152.441 103.938 152.426L105.525 152.341L108.704 152.181C112.941 151.963 117.169 151.732 121.398 151.476C117.135 151.613 112.881 151.769 108.636 151.954L105.453 152.1L103.861 152.176C103.323 152.195 102.773 152.27 102.278 152.351C100.255 152.677 98.267 153.041 96.3384 153.485H96.3298Z" fill="#DBDBDB"/>
<path d="M93.9021 152.696C95.9673 152.445 97.977 152.11 99.9995 151.812C100.52 151.746 100.981 151.651 101.51 151.637L103.097 151.552L106.276 151.391C110.513 151.174 114.742 150.942 118.97 150.687C114.708 150.824 110.453 150.98 106.208 151.164L103.025 151.311L101.433 151.386C100.896 151.405 100.345 151.481 99.8459 151.561C97.8234 151.887 95.835 152.251 93.9064 152.696H93.9021Z" fill="#DBDBDB"/>
<path d="M91.9863 151.788C94.0473 151.538 96.0527 151.202 98.071 150.904C98.5873 150.838 99.0524 150.739 99.5772 150.73L101.164 150.659L104.348 150.531C108.589 150.356 112.83 150.167 117.063 149.959C112.796 150.049 108.538 150.162 104.288 150.304L101.1 150.418L99.5046 150.479C98.9585 150.493 98.4166 150.574 97.9173 150.649C95.8991 150.975 93.915 151.339 91.9863 151.784V151.788Z" fill="#DBDBDB"/>
<path d="M90.0703 150.881C92.127 150.63 94.1324 150.295 96.1464 150.002C96.6627 149.935 97.1321 149.836 97.6484 149.827L99.2357 149.77L102.423 149.675C106.669 149.548 110.918 149.415 115.16 149.255C110.893 149.293 106.626 149.359 102.372 149.449L99.1802 149.529L97.5844 149.576C97.0297 149.586 96.4963 149.671 95.9971 149.746C93.9831 150.072 91.999 150.432 90.0788 150.881H90.0703Z" fill="#DBDBDB"/>
<path d="M88.1545 149.973C90.2069 149.723 92.2081 149.392 94.2178 149.094C94.7299 149.033 95.2035 148.924 95.7113 148.924L97.2985 148.896L100.49 148.863C104.749 148.815 109.003 148.763 113.257 148.692C108.981 148.645 104.714 148.626 100.448 148.636L97.2516 148.655L95.6515 148.678C95.084 148.683 94.5635 148.773 94.0642 148.848C92.0545 149.17 90.0747 149.534 88.1545 149.978V149.973Z" fill="#DBDBDB"/>
<path d="M79.787 164.73C82.0783 164.475 84.3611 164.215 86.6397 163.936L93.4582 163.09C94.5932 162.953 95.7325 162.792 96.8547 162.664L100.302 162.31C102.598 162.064 104.885 161.804 107.164 161.525C104.838 161.695 102.521 161.889 100.208 162.092L96.748 162.414C95.5831 162.541 94.4567 162.678 93.3174 162.83C91.0517 163.132 88.7816 163.421 86.5287 163.742C84.2715 164.054 82.0228 164.385 79.7827 164.725L79.787 164.73Z" fill="#DBDBDB"/>
<path d="M112.028 160.925C114.341 160.698 116.649 160.466 118.945 160.216L125.831 159.45L129.262 159.067L132.739 158.755C135.056 158.538 137.365 158.306 139.665 158.056C137.318 158.197 134.984 158.363 132.654 158.543L129.164 158.826C127.986 158.94 126.851 159.067 125.703 159.199C123.416 159.474 121.125 159.734 118.846 160.027C116.564 160.31 114.294 160.617 112.028 160.929V160.925Z" fill="#DBDBDB"/>
<path d="M145.293 159.455L146.462 160.344L113.807 164.007L76.8857 168.1L45.6689 154.327L46.7357 153.027L78.1317 166.932C78.1317 166.932 93.3689 165.136 96.7483 164.522C100.123 163.907 106.246 162.39 112.975 163.052C112.975 163.052 120.677 161.813 124.321 161.185C127.965 160.556 145.293 159.455 145.293 159.455Z" fill="#EBEBEB"/>
<path d="M69.8285 28.0506C69.1927 28.2349 68.5911 28.5469 68.062 28.9912C65.6725 31.0047 65.0282 34.4882 65.0026 37.6125C64.9855 40.9589 65.6639 44.5417 64.6356 47.77C64.2345 49.032 63.5433 50.2278 62.4723 50.8895C61.2605 51.6316 59.8908 51.4 58.6449 50.9132C57.3307 50.4074 55.8714 49.4857 54.4377 49.982C53.2472 50.3885 52.4749 51.66 52.1079 52.9173C51.1522 56.1786 52.8675 59.6101 53.1192 62.862C53.3966 66.3408 52.7053 69.8527 51.1564 72.9013C49.7142 75.7467 47.4741 78.0533 44.8627 79.5469C43.5912 80.2748 42.2087 80.8231 40.8049 81.1209C39.2261 81.447 37.6132 81.3903 36.0259 81.6361C34.5538 81.8724 32.9324 82.4585 32.0705 83.8954C31.4006 85.0062 31.2427 89.9313 34.3789 94.8611C34.605 95.2156 34.0119 95.641 33.6706 95.3716C33.0007 94.8706 32.3649 94.327 31.759 93.7409C26.7112 88.8725 24.0017 81.4801 24.6503 74.0877C25.0002 70.1363 26.2589 66.3739 28.2303 63.0794C29.3269 61.255 30.5771 59.5061 31.3878 57.4926C32.1089 55.6965 32.3137 53.7775 32.2198 51.8301C32.0278 48.1197 31.0379 44.5133 31.4262 40.7699C31.7803 37.4329 32.9708 34.2472 34.7117 31.5057C38.3685 25.7818 44.1843 22.251 50.4524 21.5846C56.6309 20.9323 70.1741 27.9419 69.8242 28.0506H69.8285Z" fill="#263238"/>
<path d="M69.6277 28.1122C68.4244 28.6415 67.2425 29.3174 66.3592 30.3904C65.5656 31.3593 65.0578 32.5788 64.7847 33.8455C64.166 36.6957 64.6439 39.5553 65.0365 42.396C65.4034 45.0665 65.668 47.9119 64.55 50.417C64.0764 51.4758 63.3724 52.4731 62.4507 53.0875C61.4053 53.7871 60.2148 53.8343 59.0457 53.5366C56.9165 52.9883 54.3862 51.5467 52.3594 53.2341C50.4009 54.86 50.6996 58.1261 50.8959 60.4941C51.378 66.2606 52.7733 73.6624 48.3229 78.0771C46.07 80.3128 42.8997 81.5795 40.0024 82.3499C37.9116 82.9029 35.2619 83.5883 34.2378 85.9327C34.1994 86.0178 34.3274 86.065 34.3658 85.98C35.4838 83.5174 38.2487 83.3425 40.4078 82.8746C42.9381 82.3263 45.5153 81.3384 47.6786 79.7597C49.9102 78.1338 51.3012 75.6854 51.8986 72.8211C52.5088 69.9095 52.3338 66.9318 52.0266 63.9918C51.8687 62.484 51.681 60.981 51.5658 59.4684C51.4591 58.1072 51.4036 56.6608 51.8474 55.361C52.3168 53.9714 53.4091 53.2293 54.7318 53.2388C56.029 53.2482 57.2237 53.806 58.4569 54.1605C59.562 54.4772 60.7013 54.6237 61.8021 54.2219C62.6854 53.9005 63.4577 53.2908 64.0764 52.5345C65.5015 50.7951 66.0946 48.4507 66.0818 46.1394C66.0648 42.8592 65.0663 39.6876 65.1005 36.4073C65.1175 34.7341 65.3821 32.99 66.1928 31.5484C67.0462 30.0359 68.3945 29.256 69.7685 28.4383C69.9519 28.3296 69.8197 28.0318 69.6277 28.1169V28.1122Z" fill="#263238"/>
<path d="M48.2034 19.8027C41.8799 20.3462 36.4694 25.1957 33.8623 31.449C32.3988 34.9562 31.8398 38.8084 31.9806 42.6511C32.1129 46.2386 32.6932 49.8828 32.1171 53.4561C31.4814 57.4123 29.0065 60.2766 26.9883 63.4387C25.3541 66.0052 24.2404 68.8979 23.7198 71.9891C22.7214 77.9116 23.9118 84.2594 27.0224 89.2128C27.4193 89.8415 27.8374 90.4512 28.2897 91.0373C28.3452 91.1129 28.4476 91.0137 28.3921 90.9381C24.8762 86.2918 23.5022 79.9393 24.1935 73.979C24.5348 71.0438 25.3839 68.1889 26.7536 65.6413C28.4433 62.4981 30.9523 59.941 32.2665 56.5426C33.4996 53.3568 33.3289 49.8024 33.0729 46.4276C32.7956 42.7409 32.5396 39.1014 33.3844 35.4761C34.9546 28.7407 39.5501 22.9884 45.703 21.1545C52.5685 19.1126 59.4084 22.2369 65.3223 25.9142C66.1117 26.4058 66.9011 26.902 67.6862 27.4031C67.7758 27.4598 67.8654 27.318 67.7801 27.2565C61.9344 23.1869 55.3548 19.1835 48.2077 19.798L48.2034 19.8027Z" fill="#263238"/>
<path d="M70.7542 24.0047C69.7642 23.5462 68.1983 23.7967 67.7716 24.4395C67.3449 25.0824 67.5582 31.2789 68.6292 32.2621C69.7045 33.2452 71.6118 31.3404 71.6118 31.3404L70.7542 24.0047Z" fill="#498AEC"/>
<path d="M81.554 65.0883C99.8207 89.3594 118.164 116.755 117.328 125.371C115.344 145.852 103.64 144.283 101.839 143.772C89.546 140.284 72.8751 96.2981 68.2114 73.5584C64.0511 53.2671 71.3433 51.523 81.554 65.0883Z" fill="#498AEC"/>
<path d="M99.5775 90.2479L76.0241 100.41C74.4538 96.0332 73.0329 91.6848 71.7998 87.549L91.7306 78.9513C94.4529 82.7704 97.0941 86.5611 99.5775 90.2479Z" fill="#498AEC"/>
<path opacity="0.5" d="M99.5775 90.2479L76.0241 100.41C74.4538 96.0332 73.0329 91.6848 71.7998 87.549L91.7306 78.9513C94.4529 82.7704 97.0941 86.5611 99.5775 90.2479Z" fill="white"/>
<path d="M104.595 97.9003L79.2158 108.847C78.6909 107.543 78.1789 106.224 77.6797 104.9L102.266 94.2939C103.064 95.5134 103.844 96.7187 104.595 97.9003Z" fill="#498AEC"/>
<path opacity="0.5" d="M104.595 97.9003L79.2158 108.847C78.6909 107.543 78.1789 106.224 77.6797 104.9L102.266 94.2939C103.064 95.5134 103.844 96.7187 104.595 97.9003Z" fill="white"/>
<path opacity="0.1" d="M117.328 125.376C115.344 145.856 103.64 144.287 101.835 143.777C89.5416 140.284 72.8707 96.3074 68.2113 73.563C65.4036 59.87 67.8102 54.6235 72.811 56.8214L112.818 111.948C115.881 117.88 117.601 122.597 117.332 125.371L117.328 125.376Z" fill="black"/>
<path d="M95.2632 146.702L91.3804 119.652C91.3804 119.652 97.0042 108.97 95.4595 101.634C94.124 95.2912 80.713 62.6304 71.5434 55.427C64.0123 49.514 53.0037 53.4891 48.2461 60.8673C40.476 72.9154 28.119 101.039 22.5464 146.726L95.2675 146.702H95.2632Z" fill="#498AEC"/>
<path d="M91.4359 90.2103H34.8992C36.6315 85.0961 38.398 80.5397 40.1304 76.5315H85.3214C87.6212 81.2345 89.7334 86.032 91.4359 90.2103Z" fill="#498AEC"/>
<path opacity="0.5" d="M91.4359 90.2103H34.8992C36.6315 85.0961 38.398 80.5397 40.1304 76.5315H85.3214C87.6212 81.2345 89.7334 86.032 91.4359 90.2103Z" fill="white"/>
<path d="M94.828 99.3563H32.0146C32.4456 97.8863 32.8808 96.4494 33.3161 95.0551H93.326C93.9447 96.7141 94.4525 98.1699 94.828 99.3563Z" fill="#498AEC"/>
<path opacity="0.5" d="M94.828 99.3563H32.0146C32.4456 97.8863 32.8808 96.4494 33.3161 95.0551H93.326C93.9447 96.7141 94.4525 98.1699 94.828 99.3563Z" fill="white"/>
<path d="M78.7332 112.832C74.846 113.361 70.946 114.042 67.1655 115.2C65.2838 115.777 63.4405 116.448 61.6015 117.166C60.6841 117.525 59.7624 117.847 58.8322 118.163C57.8807 118.49 56.8567 118.797 55.8539 118.854C55.7643 118.858 55.7686 119.01 55.8582 119.01C56.8353 119.019 57.7655 119.024 58.7384 118.887C59.66 118.759 60.5774 118.518 61.4735 118.253C63.385 117.686 65.2753 117.024 67.1826 116.434C71.0314 115.247 74.8759 114.061 78.7929 113.186C78.9721 113.144 78.9209 112.804 78.7374 112.832H78.7332Z" fill="#263238"/>
<path d="M88.4617 116.452C85.253 116.159 81.9803 116.036 78.7588 116.15C77.1373 116.206 75.533 116.367 73.9243 116.575C73.1563 116.674 72.3882 116.788 71.6245 116.915C70.7839 117.052 69.9561 117.317 69.1113 117.44C69.0216 117.454 69.0259 117.606 69.1155 117.596C69.9134 117.506 70.7284 117.563 71.5306 117.52C72.337 117.483 73.1435 117.435 73.9499 117.398C75.5628 117.317 77.1757 117.26 78.7929 117.161C82.023 116.967 85.2402 116.811 88.4745 116.745C88.6495 116.745 88.6324 116.466 88.466 116.452H88.4617Z" fill="#263238"/>
<path d="M46.7269 62.4746C27.3679 85.1623 6.60504 129.909 11.4267 139.277C16.7987 149.709 43.7529 117.913 43.6121 116.093C43.5054 114.722 49.4236 88.6789 56.3787 67.8582C63.3295 47.0564 51.5144 56.8689 46.7269 62.4793V62.4746Z" fill="#F7A9A0"/>
<path d="M43.7954 116.126C44.5806 113.073 53.8184 77.8975 57.36 65.9723C60.5388 55.2665 58.6785 50.9464 50.8316 57.7243C36.3838 70.1978 14.0081 106.664 8.99444 126.014C4.16002 144.656 15.3052 144.651 26.4973 135.85C35.6627 128.642 43.7954 116.126 43.7954 116.126Z" fill="#498AEC"/>
<path d="M52.4703 83.4938C51.2969 87.8328 50.0765 92.3751 48.9373 96.6479L25.2473 91.1462C27.752 86.9773 30.3932 82.8699 33.0643 78.9846L52.4703 83.4938Z" fill="#498AEC"/>
<path opacity="0.5" d="M52.4703 83.4938C51.2969 87.8328 50.0765 92.3751 48.9373 96.6479L25.2473 91.1462C27.752 86.9773 30.3932 82.8699 33.0643 78.9846L52.4703 83.4938Z" fill="white"/>
<path d="M47.6958 101.313C47.3118 102.759 46.9448 104.144 46.5992 105.454L20.5198 99.3894C21.2238 98.0991 21.9492 96.7992 22.6916 95.5042L47.6958 101.313Z" fill="#498AEC"/>
<path opacity="0.5" d="M47.6958 101.313C47.3118 102.759 46.9448 104.144 46.5992 105.454L20.5198 99.3894C21.2238 98.0991 21.9492 96.7992 22.6916 95.5042L47.6958 101.313Z" fill="white"/>
<path d="M42.136 121.41C45.5197 106.852 49.4666 92.46 53.9767 78.2802C50.5973 92.8381 46.6419 107.231 42.136 121.41Z" fill="#263238"/>
<path d="M51.8176 86.6699C52.4491 84.7935 53.3622 83.1108 54.4076 81.4849C53.8956 83.3944 52.9526 85.1243 51.8176 86.6699Z" fill="#263238"/>
<path d="M60.9657 56.2214C60.7566 57.819 65.4502 68.7422 71.6074 71.0488C73.6129 71.7956 76.0535 61.1749 76.0535 61.1749L76.5442 60.3714L83.4012 49.1126L73.5958 34.1387L72.1408 32.0874C72.1408 32.0874 70.4468 35.3062 68.3773 39.3333C68.2792 39.5176 68.1853 39.7067 68.0829 39.9052C67.9592 40.1274 67.844 40.3401 67.7373 40.5575C67.4216 41.153 67.1015 41.7675 66.7943 42.3819C66.5596 42.8499 66.325 43.3036 66.0945 43.8046C65.8513 44.3009 65.6252 44.7878 65.3777 45.2841C63.065 50.2376 61.0681 55.5408 60.97 56.2167L60.9657 56.2214Z" fill="#EB9481"/>
<path d="M68.3775 39.333C68.1001 50.5351 73.7709 57.6108 76.5486 60.3664L83.4056 49.1076L73.6002 34.1337L72.1452 32.0824C72.1452 32.0824 70.4512 35.3012 68.3818 39.3283L68.3775 39.333Z" fill="#263238"/>
<path d="M105.743 39.8626C98.3182 62.2289 85.3766 59.8277 81.0201 58.0505C77.0647 56.4388 63.7903 50.384 69.0855 27.2898C74.385 4.19563 86.1276 0.94845 95.3441 4.11055C104.565 7.27265 113.167 17.4963 105.738 39.8626H105.743Z" fill="#EB9481"/>
<path d="M69.1152 30.4942C74.308 30.3051 76.45 25.3894 76.45 25.3894C82.7992 25.4131 87.4971 22.1753 87.9792 21.8539C87.672 22.2368 85.4746 25.0018 84.314 26.3726C97.6993 29.7332 105.623 21.0693 105.623 21.0693C107.91 27.4313 107.603 30.6549 107.633 32.3517C107.633 32.3517 111.004 23.9762 109.293 16.475C107.202 7.28653 100.166 5.47624 100.166 5.47624C100.166 5.47624 91.7811 -2.29902 80.798 3.12712C68.9701 8.98811 69.1109 30.4989 69.1109 30.4989L69.1152 30.4942Z" fill="#263238"/>
<path d="M94.6143 28.6086C92.1608 28.8969 89.6433 28.6748 87.2538 28.1549C87.2325 28.1549 87.241 28.117 87.2623 28.1218C91.1794 28.6984 95.1007 28.169 98.7276 26.3824C100.259 25.6261 101.697 24.6761 103.012 23.5228C104.39 22.3175 105.862 20.805 106.698 19.0798C106.762 18.9474 106.946 19.0561 106.882 19.1885C105.998 21.013 105.171 22.6909 103.792 24.1231C102.482 25.4843 100.934 26.5951 99.2695 27.3513C97.7803 28.0225 96.2143 28.4243 94.6143 28.6086Z" fill="#263238"/>
<path d="M100.17 5.47167C94.6273 0.173147 86.1745 -0.729637 79.8637 3.36833C76.7489 5.41967 74.5002 8.75193 72.8916 12.3111C71.2787 15.9458 70.1949 19.8736 69.5847 23.8723C69.8706 19.8027 70.7581 15.7568 72.2942 11.9944C73.8346 8.22728 76.1771 4.72486 79.4242 2.55535C85.9356 -1.69859 94.9089 -0.583111 100.166 5.46694L100.17 5.47167Z" fill="#263238"/>
<path d="M101.126 5.82153C107.706 7.39549 111.277 14.4712 110.791 21.6037C110.688 23.9008 110.253 26.1507 109.6 28.3013C110.219 23.9055 110.522 19.3018 109.199 15.0668C107.932 10.8317 104.894 7.45221 101.13 5.82153H101.126Z" fill="#263238"/>
<path d="M71.7267 30.3147C71.7267 30.3147 70.3271 21.372 66.8539 21.6178C63.3806 21.8636 62.4419 33.283 65.1172 36.3033C67.7926 39.3236 70.3655 36.6342 70.3655 36.6342L71.7267 30.3147Z" fill="#EB9481"/>
<path d="M66.662 24.898C66.6108 24.865 66.5682 24.9406 66.6023 24.9831C68.4413 27.181 68.6504 30.1351 68.4627 32.99C68.181 31.7091 67.477 30.7212 65.9751 31.0237C65.894 31.0379 65.9111 31.1702 65.9793 31.1892C67.0034 31.4538 67.6007 31.9785 67.8781 33.1318C68.0744 33.9495 68.0658 34.8428 68.1 35.6842C68.1128 35.963 68.5267 36.0339 68.5608 35.7361C68.5608 35.7125 68.5608 35.6889 68.5651 35.67C69.9817 32.4937 69.6318 26.8359 66.6578 24.898H66.662Z" fill="#263238"/>
<path opacity="0.1" d="M89.3961 33.6896C86.8829 32.0447 84.0966 37.7356 86.4264 39.2623C88.7177 40.7606 91.504 35.0698 89.3961 33.6896Z" fill="black"/>
<path opacity="0.1" d="M100.494 38.6147C98.2028 37.5606 96.1291 43.6154 98.254 44.5891C100.345 45.5486 102.414 39.4985 100.494 38.6147Z" fill="black"/>
<path d="M104.284 33.5051C103.968 33.0608 103.605 32.711 103.251 32.3093C102.85 31.8555 102.573 31.4443 101.988 31.3119C101.672 31.2363 101.284 31.5294 101.19 31.8602C100.972 32.6307 101.339 33.3255 101.8 33.8927C102.299 34.5119 102.829 34.8427 103.571 34.9751C104.288 35.098 104.702 34.0959 104.284 33.5098V33.5051Z" fill="#263238"/>
<path d="M88.3166 29.9649C88.8201 29.8562 89.298 29.8515 89.8058 29.7995C90.3776 29.7428 90.8256 29.6341 91.3504 29.9507C91.632 30.1209 91.7558 30.6266 91.632 30.9433C91.3419 31.6854 90.6592 31.9454 89.9722 32.0446C89.2298 32.1533 88.6324 32.0257 87.9924 31.5861C87.3737 31.1655 87.651 30.102 88.3124 29.9602L88.3166 29.9649Z" fill="#263238"/>
<path d="M82.6115 47.4912C82.7566 48.0158 82.8377 48.6634 83.2857 48.9895C83.7167 49.3015 84.3524 49.396 84.8559 49.4669C84.9071 49.4764 84.9242 49.5473 84.8773 49.5756C84.2714 49.9207 83.3924 49.8403 82.8505 49.3629C82.3214 48.895 82.3086 48.1624 82.4579 47.4817C82.4793 47.3872 82.5945 47.4156 82.6158 47.4912H82.6115Z" fill="#263238"/>
<path d="M86.6697 45.8605C89.2512 46.2481 90.5313 47.217 91.8839 47.9875C92.0503 48.0253 92.4471 48.0442 92.5282 47.8929V47.8835C92.5495 47.8268 93.5096 44.6363 93.5096 44.6363C93.8211 45.005 95.4468 46.7633 95.6132 46.1488C97.0042 41.0346 98.5488 35.3532 98.9584 29.9413C98.9798 29.7617 98.7408 29.7097 98.6982 29.8798C97.1877 34.7341 96.458 39.853 95.0073 44.7545C94.4739 44.2393 93.6205 43.3459 93.0701 43.1332C92.9079 43.1191 92.1954 46.6309 91.9692 47.1272C91.9692 47.1272 89.904 45.2838 86.5844 45.5107C85.8462 45.5627 85.7182 45.7187 86.6612 45.8652L86.6697 45.8605Z" fill="#263238"/>
<path d="M88.4235 49.0035C89.1403 49.1123 91.3164 46.9428 90.3564 46.1959C89.3963 45.4444 86.6527 44.8347 84.9929 46.0589C83.5378 47.1365 87.0965 47.7321 87.489 48.2331C87.8133 48.6538 87.9114 48.9279 88.4277 49.0035H88.4235Z" fill="#263238"/>
<path d="M87.4889 48.2378C87.5614 48.3371 87.6127 48.4174 87.6724 48.4836C88.1033 47.6328 87.9881 46.2716 86.5758 45.4208C86.004 45.5106 85.4536 45.7044 84.9928 46.0494C83.5463 47.1318 87.1006 47.7321 87.4889 48.2378Z" fill="#FF9ABB"/>
<path d="M90.1729 35.755C90.1857 35.6936 90.0364 35.7787 90.015 35.8401C89.486 37.3952 88.6454 39.0826 87.2031 39.0164C87.1562 39.0164 87.1349 39.092 87.1818 39.1062C88.8032 39.5647 89.8998 37.3196 90.1729 35.7503V35.755Z" fill="#263238"/>
<path d="M89.533 33.5857C87.3739 32.3804 85.3514 37.2536 87.3568 38.3738C89.3282 39.4751 91.3464 34.5972 89.533 33.5857Z" fill="#263238"/>
<path d="M88.5599 33.4013C88.0607 33.4816 87.4847 33.7794 86.9982 33.5903C86.4393 33.3776 86.243 32.6592 86.0979 31.9927C86.0808 31.9219 86.0254 31.9455 85.9998 32.0117C85.5987 32.9381 85.5261 34.063 86.3753 34.6633C87.1476 35.2116 88.082 34.6822 88.6837 33.8503C88.7946 33.6943 88.7647 33.3682 88.5642 33.4013H88.5599Z" fill="#263238"/>
<path d="M98.4205 39.1392C98.4547 39.0872 98.4973 39.2668 98.4675 39.3283C97.789 40.8124 97.2343 42.6369 98.2541 43.7713C98.284 43.8044 98.2541 43.88 98.2072 43.8516C96.8076 42.8401 97.5629 40.4248 98.4205 39.1439V39.1392Z" fill="#263238"/>
<path d="M100.298 38.1987C102.56 39.1487 100.682 44.0927 98.5829 43.2136C96.5177 42.3486 98.3994 37.4046 100.298 38.1987Z" fill="#263238"/>
<path d="M101.105 38.9596C101.356 39.385 101.527 40.0231 101.937 40.25C102.41 40.5147 102.978 40.146 103.481 39.7821C103.532 39.7442 103.554 39.801 103.528 39.8671C103.191 40.8219 102.538 41.6774 101.646 41.4742C100.836 41.2898 100.597 40.2216 100.75 39.1865C100.78 38.9927 101.002 38.7847 101.1 38.9549L101.105 38.9596Z" fill="#263238"/>
<path d="M94.5762 58.2962C95.0755 56.9775 96.2019 55.9518 97.7082 55.8573C98.9029 55.7817 100.102 56.415 100.785 57.5021C101.689 58.9438 101.638 60.6595 100.891 61.9404C101.399 62.5076 101.762 63.2592 101.928 64.1336C102.269 65.9486 101.497 67.8912 100.055 68.8318C98.1647 70.0655 95.9288 69.4368 94.7469 67.6738L94.5976 67.7352C92.4641 68.6097 90.0576 67.0924 89.7887 64.4266C89.6522 63.1032 90.177 61.7372 91.1243 60.9148C91.551 60.5461 92.0075 60.305 92.4726 60.1774" fill="white"/>
<path d="M94.5763 58.2961C96.761 52.818 103.793 56.968 101.105 62.0916L101.071 61.7371C103.874 64.8519 101.412 70.3253 97.4778 69.7392C96.3129 69.5833 95.2291 68.8743 94.5379 67.8392L94.8323 67.9337C89.8742 69.9567 87.3055 61.7513 92.4684 60.1726C87.7578 61.8553 90.224 69.5171 94.8281 67.324C96.0228 69.3469 98.7408 69.7582 100.379 68.17C102.065 66.6764 102.18 63.5805 100.563 61.9734C103.332 57.2657 96.8164 53.3285 94.5763 58.2961Z" fill="#263238"/>
<path d="M90.305 58.7642C89.1358 56.6845 88.1416 54.5055 87.3267 52.2273C88.4958 54.307 89.49 56.4907 90.305 58.7642Z" fill="#263238"/>
<path d="M93.0699 56.1266C91.6149 54.5431 90.3092 52.8179 89.1614 50.9509C90.6164 52.5343 91.9178 54.2595 93.0699 56.1266Z" fill="#263238"/>
<path d="M92.4516 58.7027C91.0478 56.7742 89.8018 54.7276 88.7266 52.5533C90.1346 54.4771 91.3763 56.5331 92.4516 58.7027Z" fill="#263238"/>
<path d="M100.413 137.864C97.2729 129.058 96.9956 106.668 100.806 75.1751C101.429 70.0278 130.137 68.884 130 74.433C129.825 81.4284 124.867 119.78 124.492 121.742C121.326 138.28 102.496 143.711 100.409 137.859L100.413 137.864Z" fill="#EB9481"/>
<path d="M129.424 77.543C129.424 77.543 135.103 66.1849 136.422 59.199C138.184 49.8403 136.23 40.9543 135.21 37.2865C133.077 29.6294 123.135 12.7459 118.249 15.0714C113.824 17.1748 124.769 33.8644 124.769 33.8644C124.769 33.8644 116.141 14.8115 111.234 18.4273C106.327 22.0432 120.028 40.614 120.028 40.614C120.028 40.614 110.769 21.2586 106.238 25.8717C102.816 29.36 114.37 46.9571 114.37 46.9571C114.37 46.9571 106.306 30.3809 102.649 33.7982C98.6042 37.5795 108.35 54.5575 108.35 54.5575C100.371 64.9844 100.422 73.5679 101.113 79.6652C101.28 81.1399 129.424 77.543 129.424 77.543Z" fill="#EB9481"/>
<path d="M128.135 40.2359C127.197 37.9577 126.258 35.6416 125.136 33.4627C124.018 31.2837 122.827 29.1473 121.53 27.0959C118.347 22.0621 115.642 19.4578 115.796 19.6374C119.371 23.9149 123.489 31.6429 124.611 33.8266C125.729 36.0009 126.945 38.1137 128.063 40.2879C128.093 40.3446 128.157 40.2879 128.135 40.2359Z" fill="#263238"/>
<path d="M121.108 44.8585C119.794 42.0084 118.582 39.1204 117.157 36.3317C115.736 33.5572 114.166 31.0616 112.578 28.4005C112.455 28.1972 112.395 28.3343 112.514 28.547C114.008 31.2743 115.198 33.9259 116.662 36.672C118.121 39.4087 119.687 42.1029 121.052 44.8963C121.074 44.9389 121.129 44.8963 121.112 44.8585H121.108Z" fill="#263238"/>
<path d="M115.719 50.0294C113.914 45.558 111.362 41.46 108.772 37.5039C108.644 37.3054 108.585 37.4991 108.708 37.7071C111.089 41.824 112.979 45.0333 115.578 50.1003C115.621 50.1806 115.757 50.1239 115.719 50.0294Z" fill="#263238"/>
<path d="M108.354 54.5575C105.794 50.1051 103.375 45.4683 101.979 40.3825C101.395 38.1562 100.699 33.9259 103.456 33.1933C104.138 33.146 104.723 33.4911 105.239 33.8408C106.754 34.9232 107.927 36.5492 109.19 37.8868L108.888 38.1751C107.275 35.0556 105.585 31.7564 105.354 28.098C105.209 25.8718 106.891 24.52 108.785 25.0493C110.428 25.5976 111.499 27.1291 112.625 28.4336L112.378 28.6416C110.927 25.9899 107.817 18.2714 112.664 17.9216C113.961 18.0351 115.083 18.9048 116.009 19.8501C114.72 18.5597 112.48 17.1323 110.978 18.7724C109.045 21.183 111.426 26.0939 112.642 28.462L113.372 29.8043L112.395 28.6699C111.303 27.441 110.215 25.9474 108.691 25.4369C107.957 25.2006 107.147 25.3991 106.519 25.8576C105.901 26.3255 105.717 27.2378 105.739 28.0886C105.986 31.6382 107.684 34.8901 109.229 37.9388L109.941 39.2575L108.922 38.2271C107.629 36.8564 106.532 35.2824 105.03 34.1953C104.548 33.8597 104.006 33.5667 103.481 33.6045C101.079 34.3135 101.779 38.2886 102.261 40.2974C103.597 45.3548 105.913 50.0531 108.35 54.5575H108.354Z" fill="#263238"/>
<path d="M132.164 85.9517L95.0157 88.0975C95.0157 88.0975 93.1809 131.54 97.8105 139.722C103.178 149.203 122.337 143.12 125.964 121.099L132.164 85.9564V85.9517Z" fill="#498AEC"/>
<path d="M128.912 95.9815C113.368 98.6521 99.5003 98.4299 96.5945 98.6899C96.4579 98.7041 96.4537 98.4535 96.5945 98.4488C99.4619 98.3543 115.685 96.2604 128.912 95.7121C129.066 95.7074 129.061 95.9484 128.912 95.9768V95.9815Z" fill="#263238"/>
<path d="M95.5832 129.313C95.4083 123.939 95.2078 118.565 95.084 113.191C94.9603 107.817 94.9773 102.447 95.0584 97.078C95.1053 94.1145 95.3272 91.3541 95.4424 88.3905C96.8335 88.1117 97.657 88.1495 99.3509 87.847C99.56 87.8092 99.496 87.2562 99.2869 87.2798C97.4351 87.5114 94.6445 87.379 94.636 87.5161C94.3032 92.8855 94.2861 98.6473 94.269 104.036C94.252 109.448 94.3842 114.86 94.7043 120.257C94.8835 123.292 95.1608 126.312 95.515 129.323C95.5192 129.375 95.5875 129.365 95.5875 129.313H95.5832Z" fill="#263238"/>
<path d="M12.2841 140.648C18.7784 145.379 31.9973 141.196 62.2925 134.9C66.4826 134.03 67.3957 100.075 62.8728 100.75C57.1807 101.601 35.253 106.266 33.6913 106.834C20.4937 111.603 7.88069 137.438 12.2884 140.652L12.2841 140.648Z" fill="#EB9481"/>
<path d="M72.0341 96.194C81.4213 95.088 83.9857 96.3972 91.4571 90.8009C96.3598 87.1284 100.584 89.0237 97.6697 95.0313C92.9078 104.858 81.0671 109.107 76.5783 109.268L72.0298 96.194H72.0341Z" fill="#EB9481"/>
<path d="M69.2689 129.45C69.2689 129.45 63.9992 136.219 68.4539 139.825C72.9128 143.432 77.1285 135.812 77.1285 135.812L69.2689 129.455V129.45Z" fill="#455A64"/>
<path d="M100.55 82.969V82.9548H100.558L107.641 79.0837L109.596 80.6624L108.427 89.3121V89.3216H108.418L76.9452 136.096L69.0813 129.734L100.55 82.9643V82.969Z" fill="#455A64"/>
<path d="M78.7613 134.881L69.5815 127.455L68.2503 129.474L77.4301 136.9L78.7613 134.881Z" fill="#263238"/>
<path d="M80.235 132.656L71.0552 125.229L69.724 127.249L78.9038 134.675L80.235 132.656Z" fill="#263238"/>
<path d="M71.0444 125.225L74.0057 127.621L81.4771 112.44L80.3421 111.627L71.0444 125.225Z" fill="#263238"/>
<path d="M109.323 80.4593L109.472 79.3958C109.523 79.0319 109.182 78.753 108.879 78.9137L108 79.3911L109.323 80.4593Z" fill="#455A64"/>
<path opacity="0.5" d="M109.323 80.4593L109.472 79.3958C109.523 79.0319 109.182 78.753 108.879 78.9137L108 79.3911L109.323 80.4593Z" fill="black"/>
<path opacity="0.2" d="M108.017 89.0192C105.397 87.5918 103.016 85.6492 101.011 83.3C103.631 84.7228 106.012 86.6748 108.017 89.0192Z" fill="black"/>
<path d="M46.9231 105.274C46.9231 105.274 57.6117 99.1907 67.5067 96.9125C74.3509 95.3385 89.588 93.7504 103.622 110.851C106.95 114.907 109.096 123.301 101.488 118.868C96.0823 115.715 93.5136 111.905 90.0702 110.709C90.0702 110.709 91.6575 121.746 87.8599 125.282C86.1617 126.86 81.4382 131.053 77.3377 133.737C77.3377 133.737 76.5697 132.906 75.7333 131.7C75.7333 131.7 68.1852 136.796 59.8007 135.425L46.9231 105.279V105.274Z" fill="#EB9481"/>
<path d="M74.2569 96.5627C77.4486 98.5526 84.1519 102.901 88.517 108.568C93.3685 114.864 101.177 128.439 96.9484 132.357C93.8464 135.231 90.4499 130.339 90.4499 130.339C90.4499 130.339 92.609 136.706 89.2936 138.62C86.2726 140.364 83.8532 136.408 83.8532 136.408C83.8532 136.408 84.5658 140.52 81.3614 141.579C77.5083 142.855 76.6507 134.031 71.7394 131.587C70.6386 131.039 74.2569 96.5627 74.2569 96.5627Z" fill="#EB9481"/>
<path d="M81.66 113.134C84.3865 115.554 89.302 122.805 90.5053 130.174C90.5309 130.339 90.4328 130.453 90.3773 130.306C87.4971 122.502 83.4649 115.881 81.6045 113.182C81.5789 113.144 81.6258 113.106 81.66 113.13V113.134Z" fill="#263238"/>
<path d="M76.0664 118.745C78.2255 121.098 82.9916 128.822 83.9815 136.342C84.0029 136.512 83.8962 136.616 83.8493 136.465C81.1398 128.174 77.7262 121.609 76.0109 118.792C75.9896 118.754 76.0408 118.716 76.0664 118.745Z" fill="#263238"/>
<path d="M57.343 98.2598L43.7956 146.022C43.7956 146.022 15.0536 146.254 10.1552 140.26C6.65203 135.978 18.881 111.135 33.5123 105.889L57.3388 98.2598H57.343Z" fill="#498AEC"/>
<path d="M18.2539 118.854C19.6833 115.89 25.1109 109.022 33.5252 105.851C33.5978 105.822 33.6575 105.945 33.585 105.983C27.5217 109.017 19.9564 116.211 18.3563 118.934C18.3136 119.005 18.2198 118.929 18.2539 118.854Z" fill="#263238"/>
<path d="M37.7366 139.083C38.7137 134.366 39.917 129.715 41.133 125.064C42.3491 120.413 43.5567 115.758 44.8794 111.135C45.6261 108.526 46.36 105.907 47.1878 103.331C47.2091 103.265 47.3158 103.289 47.303 103.36C46.3301 108.067 45.1397 112.733 43.9577 117.384C42.7715 122.044 41.5384 126.695 40.2669 131.332C39.55 133.95 38.7862 136.555 37.9585 139.135C37.9158 139.263 37.7152 139.22 37.7451 139.083H37.7366Z" fill="#263238"/>
<path d="M57.2194 97.8533C55.5297 98.1038 53.8998 98.6332 52.257 99.1342C50.6142 99.6305 48.9843 100.16 47.3543 100.703C44.1157 101.786 37.1393 103.676 31.6008 106.683C31.5411 106.716 31.9977 106.876 32.0574 106.839C34.6303 105.26 55.3932 99.2334 57.0018 98.5197C56.989 98.6662 56.1996 101.724 56.2039 101.876C56.2082 101.98 56.3319 102.046 56.3874 101.942C56.5197 101.691 57.3602 98.5197 57.4754 98.2645C57.5693 98.0518 57.437 97.8249 57.2194 97.858V97.8533Z" fill="#263238"/>
<path d="M45.9587 138.393C45.3486 141.05 44.6872 143.692 44.013 146.329C40.1984 146.433 36.388 146.339 32.5777 146.112C26.988 145.72 21.3343 145.143 15.9367 143.389C15.3436 143.167 14.7547 142.931 14.1702 142.699C18.9875 144.084 23.9627 144.467 28.9081 144.907C33.862 145.294 38.8287 145.54 43.7954 145.701L43.5223 145.923C44.3074 143.404 45.1096 140.889 45.9587 138.393Z" fill="#263238"/>
<path d="M126.297 143.413H63.3425V146.75H126.297V143.413Z" fill="#455A64"/>
<path d="M126.297 143.413V146.75H89.6309L91.935 143.413H126.297Z" fill="#37474F"/>
<path d="M101.42 146.75H155.986L164.498 100.769H109.933L101.42 146.75Z" fill="#37474F"/>
<path d="M104.168 146.75H158.734L167.246 100.769H112.681L104.168 146.75Z" fill="#455A64"/>
<path d="M138.944 123.76C138.662 125.901 137.292 127.636 135.88 127.636C134.468 127.636 133.55 125.901 133.832 123.76C134.113 121.619 135.483 119.884 136.895 119.884C138.308 119.884 139.225 121.619 138.944 123.76Z" fill="white"/>
<path d="M152.666 125.764L152.23 127.553L162.574 130.647L163.01 128.858L152.666 125.764Z" fill="#EBEBEB"/>
<path d="M163.009 128.855L162.629 130.661L162.617 130.722C159.57 129.942 155.239 128.675 152.171 127.777L151.962 127.716L152.018 127.489C152.039 127.39 152.517 125.499 152.517 125.485C156.016 126.544 159.566 127.697 163.001 128.855H163.009ZM163.009 128.855C159.489 127.924 156.071 127.002 152.611 125.977L152.858 125.816L152.432 127.607L152.282 127.319C155.329 128.25 159.608 129.559 162.587 130.576L162.514 130.623L163.009 128.85V128.855Z" fill="#263238"/>
<path opacity="0.1" d="M152.668 125.757L152.38 126.939L162.723 130.033L163.012 128.851L152.668 125.757Z" fill="black"/>
<path d="M141.564 117.28C142.323 119.548 144.154 121.562 146.714 121.779C147.077 121.812 147.452 121.808 147.845 121.76C148.378 121.699 148.928 121.567 149.513 121.344L148.724 118.792C148.408 118.92 148.109 119 147.828 119.047C145.063 119.548 144.03 116.93 143.842 116.348C142.963 113.716 143.684 108.526 145.592 107.013C145.72 106.9 146.193 106.796 147.764 107.685C148.054 107.855 148.378 108.044 148.745 108.28C149.15 108.55 149.389 108.706 149.637 108.791L149.995 107.51L150.426 106.252C150.324 106.2 150.17 106.096 149.965 105.959C149.381 105.586 148.596 105.075 147.746 104.716C146.556 104.211 145.229 103.988 144.179 104.825C141.073 107.292 140.459 113.98 141.559 117.28H141.564Z" fill="#EBEBEB"/>
<path d="M141.564 117.279C142.746 120.895 146.258 122.696 149.5 121.297L149.471 121.363L148.664 118.82L148.754 118.868C148.37 119.024 147.964 119.142 147.55 119.175C144.064 119.548 143.002 115.379 143.403 112.265C143.625 110.374 144.034 108.285 145.4 106.975C145.656 106.664 146.104 106.777 146.403 106.871C147.585 107.235 148.6 108.115 149.684 108.649L149.505 108.753L149.867 107.467L150.303 106.21L150.371 106.394C148.51 105.212 145.929 103.279 143.953 105.142C141.12 107.85 140.484 113.479 141.564 117.289V117.279ZM141.564 117.279C140.612 113.966 140.984 110.166 142.396 107.079C143.126 105.572 144.406 103.984 146.095 104.182C147.721 104.314 149.142 105.293 150.482 106.125L150.588 106.191L150.55 106.309L150.128 107.566C150.102 107.67 149.748 108.932 149.731 108.998C148.378 108.474 147.243 107.217 145.78 107.127C145.686 107.136 145.669 107.188 145.596 107.25C144.325 108.479 143.902 110.502 143.685 112.302C143.292 115.252 144.197 119.312 147.533 119C147.956 118.976 148.37 118.858 148.771 118.702L148.792 118.778L149.56 121.335L149.577 121.387C148.784 121.68 147.951 121.855 147.115 121.836C144.61 121.836 142.383 119.855 141.564 117.284V117.279Z" fill="#263238"/>
<path opacity="0.1" d="M148.728 118.797C148.412 118.924 148.113 119.005 147.832 119.052L147.845 121.76C148.378 121.699 148.928 121.567 149.513 121.344L148.724 118.792L148.728 118.797Z" fill="black"/>
<path opacity="0.1" d="M147.746 104.721L147.763 107.694C148.054 107.864 148.378 108.053 148.745 108.29C149.15 108.559 149.389 108.715 149.637 108.8L149.995 107.519L150.426 106.262C150.324 106.21 150.17 106.106 149.965 105.969C149.381 105.595 148.595 105.085 147.746 104.726V104.721Z" fill="black"/>
<path d="M176.868 109.807C176.868 109.807 172.781 121.113 169.44 125.391C166.099 129.659 162.975 129.314 161.115 128.761C159.254 128.203 159.425 128.255 157.735 127.749C156.041 127.243 156.216 127.295 154.352 126.738C152.491 126.18 149.637 124.738 148.69 119.184C147.747 113.626 149.351 101.578 149.351 101.578L176.868 109.807Z" fill="#EBEBEB"/>
<path d="M176.868 109.807C175.976 112.283 175.008 114.722 173.971 117.128C172.226 120.943 170.527 125.14 167.289 127.697C163.944 130.301 161.213 128.883 157.701 127.877C153.886 126.719 151.019 126.487 149.261 121.94C148.267 119.279 148.199 116.348 148.254 113.512C148.348 109.457 148.732 105.416 149.248 101.403C156.174 103.497 169.956 107.68 176.868 109.807ZM176.868 109.807C169.994 107.812 156.178 103.738 149.317 101.71L149.47 101.597C148.988 105.548 148.63 109.533 148.553 113.522C148.519 116.471 148.57 119.548 149.718 122.261C151.386 126.293 154.352 126.539 157.761 127.612L161.243 128.661C162.966 129.195 164.84 128.992 166.41 128.033C169.068 126.416 170.732 123.457 172.183 120.607C173.95 117.124 175.464 113.489 176.864 109.802L176.868 109.807Z" fill="#263238"/>
<g opacity="0.1">
<path d="M173.032 119.066C172.559 120.078 172.064 121.07 171.56 121.997L148.395 115.068C148.382 113.99 148.408 112.856 148.455 111.716L173.032 119.066Z" fill="black"/>
<path d="M170.954 123.089C170.66 123.599 170.365 124.077 170.075 124.511L148.544 118.069C148.489 117.53 148.455 116.954 148.429 116.349L170.954 123.089Z" fill="black"/>
<path d="M174.287 116.273C174.078 116.76 173.86 117.256 173.63 117.762L148.536 110.256C148.566 109.693 148.604 109.14 148.647 108.606L174.287 116.278V116.273Z" fill="black"/>
</g>
<path d="M164.908 144.897H154.194V146.75H164.908V144.897Z" fill="#498AEC"/>
<path d="M154.194 144.892L154.236 146.745L154.19 146.693C155.973 146.641 157.761 146.627 159.545 146.594L164.899 146.565L164.742 146.74L164.75 144.888L164.904 145.058C161.827 145.058 157.317 144.954 154.19 144.883L154.194 144.892ZM154.194 144.892C157.373 144.826 161.768 144.722 164.908 144.727H165.062V144.897L165.07 146.75V146.929H164.912C161.733 146.911 157.287 146.892 154.151 146.797V146.75L154.198 144.897L154.194 144.892Z" fill="#263238"/>
<path opacity="0.1" d="M164.908 144.897H154.194V146.121H164.908V144.897Z" fill="black"/>
<path d="M177.623 139.92C176.356 141.891 174.112 143.304 171.59 142.775C171.231 142.699 170.873 142.586 170.502 142.43C170.003 142.217 169.499 141.929 168.987 141.546L170.348 139.31C170.626 139.523 170.894 139.688 171.15 139.816C173.702 141.097 175.319 138.871 175.635 138.36C177.103 136.073 177.632 130.854 176.143 128.846C176.045 128.699 175.614 128.463 173.89 128.869C173.57 128.95 173.211 129.039 172.802 129.162C172.349 129.304 172.081 129.384 171.82 129.394L171.778 128.052L171.658 126.714C171.769 126.69 171.944 126.638 172.17 126.567C172.823 126.374 173.698 126.109 174.607 126.01C175.874 125.863 177.205 126.033 178.024 127.144C180.439 130.424 179.458 137.056 177.619 139.925L177.623 139.92Z" fill="#498AEC"/>
<path d="M177.623 139.92C176.224 142.161 173.608 143.432 171.189 142.709C170.378 142.482 169.614 142.075 168.919 141.565L168.944 141.518L170.288 139.268L170.327 139.202C170.677 139.466 171.048 139.703 171.449 139.849C174.598 141.116 176.424 137.458 176.74 134.494C176.953 132.698 177.026 130.618 176.087 129.063C176.032 128.983 176.027 128.926 175.938 128.893C174.504 128.557 173.113 129.441 171.679 129.555C171.679 129.507 171.641 128.156 171.637 128.056L171.526 126.723L171.517 126.601L171.637 126.567C173.126 126.152 174.73 125.622 176.33 125.962C178.012 126.265 178.869 128.165 179.219 129.829C179.855 133.218 179.317 136.994 177.619 139.915L177.623 139.92ZM177.623 139.92C179.56 136.56 180.273 130.94 178.178 127.503C176.71 125.131 173.762 126.256 171.688 126.856L171.795 126.7L171.918 128.042L171.965 129.389L171.82 129.238C172.994 129.039 174.18 128.482 175.404 128.472C175.712 128.472 176.177 128.486 176.347 128.865C177.354 130.524 177.261 132.66 177.026 134.546C176.603 138.427 173.885 142.094 170.305 139.377L170.404 139.358L169.025 141.579L169.013 141.504C169.682 142.009 170.416 142.416 171.202 142.652C173.6 143.394 176.215 142.142 177.623 139.92Z" fill="#263238"/>
<path opacity="0.1" d="M170.352 139.315C170.63 139.528 170.899 139.693 171.155 139.821L170.502 142.435C170.003 142.222 169.499 141.934 168.987 141.551L170.348 139.315H170.352Z" fill="black"/>
<path opacity="0.1" d="M174.615 126.01L173.898 128.874C173.578 128.954 173.22 129.044 172.81 129.167C172.358 129.309 172.089 129.389 171.829 129.399L171.786 128.056L171.667 126.719C171.778 126.695 171.953 126.643 172.179 126.572C172.832 126.378 173.706 126.114 174.615 126.014V126.01Z" fill="black"/>
<path d="M145.306 122.498C145.306 122.498 146.586 134.593 148.805 139.688C151.024 144.774 154.121 145.346 156.046 145.346C157.97 145.346 157.795 145.346 159.545 145.346C161.303 145.346 161.119 145.346 163.052 145.346C164.976 145.346 168.074 144.779 170.297 139.693C172.52 134.598 173.809 122.507 173.809 122.507L145.306 122.498Z" fill="#498AEC"/>
<path d="M145.306 122.498C145.788 126.459 146.394 130.405 147.277 134.281C148.007 137.453 148.916 140.79 151.1 143.12C152.389 144.5 154.151 145.237 155.943 145.219H159.553C163.095 145.157 166.018 145.781 168.578 142.373C170.327 140.085 171.099 137.131 171.761 134.272C172.627 130.401 173.22 126.449 173.685 122.493L173.809 122.644C166.705 122.635 152.41 122.55 145.306 122.498ZM145.306 122.498C152.483 122.45 166.773 122.38 173.95 122.37C173.497 126.397 172.917 130.405 172.055 134.347C171.445 137.103 170.686 139.911 169.098 142.193C166.338 146.069 163.5 145.474 159.553 145.483C155.926 145.436 152.961 146.027 150.341 142.539C147.819 139.131 147.166 134.588 146.381 130.401C145.946 127.777 145.588 125.14 145.31 122.493L145.306 122.498Z" fill="#263238"/>
<g opacity="0.1">
<path d="M146.825 132.546C147.047 133.657 147.29 134.758 147.555 135.798L171.547 135.808C171.816 134.768 172.06 133.667 172.281 132.556L146.825 132.546Z" fill="black"/>
<path d="M147.883 137.032C148.049 137.609 148.216 138.157 148.399 138.658L170.702 138.668C170.882 138.166 171.052 137.618 171.219 137.042L147.883 137.032Z" fill="black"/>
<path d="M146.274 129.484C146.36 130.013 146.454 130.556 146.556 131.109L172.546 131.119C172.648 130.566 172.742 130.022 172.832 129.493L146.274 129.484Z" fill="black"/>
</g>
<path d="M145.72 134.423H107.864V146.75H145.72V134.423Z" fill="#EBEBEB"/>
<path d="M160.108 134.423H145.719V146.75H160.108V134.423Z" fill="#C7C7C7"/>
<path d="M145.72 141.881H107.864L137.429 142.921L145.72 141.881Z" fill="#C7C7C7"/>
<path d="M145.72 135.949H121.74L143.057 136.796L145.72 135.949Z" fill="#C7C7C7"/>
<path d="M107.864 139.65H134.912L130.401 140.161L107.864 139.65Z" fill="#C7C7C7"/>
<path d="M128.251 139.461H145.792L148.928 140.818L128.251 139.461Z" fill="#EBEBEB"/>
<path d="M128.353 137.334H145.895L149.031 138.686L128.353 137.334Z" fill="#C7C7C7"/>
<path d="M125.542 137.287H108L104.864 138.644L125.542 137.287Z" fill="#EBEBEB"/>
<path d="M145.719 137.963H159.809L162.941 139.319L145.719 137.963Z" fill="#C7C7C7"/>
<path d="M150.635 142.822H161.563L160.108 141.711L150.635 142.822Z" fill="#C7C7C7"/>
</svg>
