<svg width="26" height="26" viewBox="0 0 26 26" fill="none" xmlns="http://www.w3.org/2000/svg">
<path d="M2.69338 17.586L2.69282 17.5864L2.69271 17.5864C2.69293 17.5863 2.69316 17.5861 2.69338 17.586ZM2.69338 17.586C2.6936 17.5858 2.69382 17.5857 2.69404 17.5855C2.69403 17.5855 2.69403 17.5855 2.69402 17.5856L2.69338 17.586ZM2.68459 17.5919C2.32547 17.8381 2.16646 18.2889 2.29291 18.7065C2.42061 19.1283 2.80933 19.4167 3.25 19.4167H22.75C23.1907 19.4167 23.5794 19.1283 23.7071 18.7065C23.8335 18.2889 23.6745 17.838 23.3154 17.5919C23.3144 17.5912 23.3128 17.59 23.3106 17.5884C23.3011 17.5813 23.2806 17.5656 23.2505 17.5406C23.1905 17.4906 23.0923 17.4031 22.9681 17.272C22.7203 17.0103 22.3659 16.5722 22.0029 15.9066C21.2796 14.5805 20.5 12.3111 20.5 8.66675C20.5 6.67762 19.7098 4.76997 18.3033 3.36345C16.8968 1.95692 14.9891 1.16675 13 1.16675C11.0109 1.16675 9.10322 1.95692 7.6967 3.36345C6.29018 4.76997 5.5 6.67762 5.5 8.66675C5.5 12.3111 4.72043 14.5805 3.9971 15.9066C3.63406 16.5722 3.27973 17.0103 3.03186 17.272C2.90767 17.4031 2.80952 17.4906 2.74946 17.5406C2.71942 17.5656 2.69889 17.5813 2.68935 17.5884C2.6872 17.59 2.68562 17.5912 2.6846 17.5919C2.6846 17.5919 2.6846 17.5919 2.68459 17.5919Z" stroke="#1C1C1C" stroke-width="2" stroke-linecap="round" stroke-linejoin="round"/>
<path d="M14.8742 22.75C14.6837 23.0783 14.4103 23.3509 14.0814 23.5403C13.7525 23.7298 13.3796 23.8295 13 23.8295C12.6204 23.8295 12.2475 23.7298 11.9186 23.5403C11.5897 23.3509 11.3163 23.0783 11.1258 22.75" stroke="#1C1C1C" stroke-width="2" stroke-linecap="round" stroke-linejoin="round"/>
</svg>
