<svg width="202" height="170" viewBox="0 0 202 170" fill="none" xmlns="http://www.w3.org/2000/svg">
<path d="M149.088 1.08268C150.435 1.22931 156.265 0.417952 160.276 5.71622C164.069 10.731 165.686 26.1908 166.55 29.5437C167.414 32.8967 171.791 33.3171 172.901 37.2125C173.866 40.5655 171.453 41.8559 171.265 44.3339C171.111 46.2548 173.075 49.0897 171.405 51.9636C169.89 54.5736 167.115 54.0898 165.464 54.9305C163.813 55.7711 162.853 59.7106 159.783 60.8299C156.714 61.9492 153.929 59.1583 152.288 59.2072C150.647 59.2561 148.813 64.393 143.456 64.0607C138.099 63.7283 136.458 59.173 134.233 58.3225C132.008 57.4721 126.511 59.1436 123.905 56.4016C121.299 53.6596 120.802 49.9401 119.634 48.5813C118.466 47.2226 116.091 47.5012 114.605 44.3535C113.118 41.2058 116 39.1285 116.352 36.3621C116.598 34.4363 114.88 32.7061 116 29.749C117.549 25.6776 122.438 26.4352 124.204 22.2562C125.594 18.9765 128.316 4.78755 136.671 1.13155C142.443 -1.38561 149.088 1.08268 149.088 1.08268Z" fill="#263238"/>
<path d="M166.351 28.7371C166.685 29.441 167.182 30.053 167.799 30.5211L169.575 31.9874C170.782 32.8938 171.844 33.9836 172.722 35.2182C173.126 35.8093 173.39 36.4867 173.494 37.1978C173.598 37.909 173.538 38.6347 173.321 39.3189C173.061 40.0068 172.698 40.6498 172.244 41.2251C171.717 41.8504 171.286 42.5523 170.965 43.3073C170.776 44.1615 170.871 45.0551 171.236 45.8489C171.496 46.5967 171.791 47.3152 172.013 48.0239C172.495 49.4462 172.611 50.9565 171.96 52.2713C171.654 52.9117 171.144 53.4285 170.512 53.7376C169.844 54.0476 169.122 54.2219 168.388 54.2509C167.64 54.3242 166.873 54.3144 166.105 54.3437C165.338 54.373 164.508 54.4219 163.885 54.9009C164.58 54.5868 165.347 54.4751 166.101 54.5783C166.863 54.6174 167.63 54.6907 168.407 54.6859C169.209 54.6959 170.004 54.5465 170.748 54.246C171.515 53.9031 172.146 53.3115 172.544 52.5646C173.412 51.0983 173.214 49.2556 172.761 47.7698C172.539 47.0024 172.249 46.2692 172.013 45.5556C171.776 44.842 171.583 44.1333 171.781 43.5614C172.215 42.3151 173.572 41.1811 174.059 39.5633C174.313 38.7656 174.373 37.9178 174.234 37.0917C174.095 36.2656 173.762 35.4854 173.263 34.8174C172.291 33.5731 171.127 32.4954 169.817 31.6257L167.93 30.3011C167.299 29.9001 166.761 29.3668 166.351 28.7371Z" fill="#263238"/>
<path d="M129.04 9.26953C127.631 11.6792 126.781 14.3527 125.686 16.8797C125.136 18.1456 124.634 19.4311 123.997 20.6334C123.699 21.2311 123.336 21.7934 122.915 22.3099C122.83 22.4292 122.726 22.5332 122.607 22.6178C122.499 22.7208 122.377 22.8065 122.245 22.872C121.96 23.0333 121.656 23.175 121.352 23.3168C120.078 23.8659 118.834 24.4843 117.626 25.1692C116.347 25.8728 115.316 26.9628 114.677 28.2876C114.369 28.9695 114.236 29.7195 114.291 30.4675C114.382 31.1891 114.61 31.8861 114.962 32.5203C115.628 33.7422 116.255 34.9642 116.323 36.3816C116.463 34.969 115.879 33.5956 115.358 32.3395C115.071 31.7405 114.899 31.0921 114.851 30.4284C114.838 29.7829 114.989 29.145 115.29 28.5759C115.931 27.4246 116.884 26.4832 118.036 25.8633C119.234 25.2181 120.465 24.6373 121.723 24.1232C122.042 23.9668 122.356 23.8104 122.689 23.6345C123.028 23.4378 123.328 23.1773 123.572 22.8671C124.017 22.2955 124.399 21.6759 124.711 21.0196C125.318 19.7572 125.846 18.4578 126.294 17.1289L127.631 13.1846C128.024 11.8528 128.495 10.5455 129.04 9.26953Z" fill="#263238"/>
<path d="M118.296 47.6771C118.899 48.464 118.996 49.5002 119.237 50.4485C119.479 51.3967 119.691 52.4035 119.966 53.3811C120.232 54.3633 120.597 55.315 121.057 56.2208C121.521 57.1811 122.21 58.0117 123.064 58.6402C124.961 59.8133 127.176 59.6178 129.088 59.2268C130.053 59.0215 131.018 58.7673 131.983 58.5914C132.93 58.3374 133.924 58.3206 134.879 58.5425C133.952 58.1533 132.939 58.02 131.945 58.1564C130.951 58.2541 129.981 58.4349 129.015 58.5523C127.123 58.7966 125.101 58.87 123.586 57.8973C122.845 57.3539 122.24 56.6425 121.819 55.82C121.359 54.9679 120.965 54.0805 120.642 53.166C120.299 52.2471 120 51.2989 119.676 50.3556C119.512 49.8668 119.339 49.4123 119.146 48.9479C118.981 48.4546 118.687 48.0156 118.296 47.6771Z" fill="#263238"/>
<path d="M176.661 115.538C176.661 115.538 165.078 158.623 162.293 164.982H117.409C125.164 144.454 133.364 117.537 133.601 115.67C133.601 115.582 133.601 115.538 133.601 115.538H176.661Z" fill="#37474F"/>
<path d="M170.367 121.271C170.087 124.766 157.524 161.976 156.467 164.982H155.821C155.821 164.982 169.464 123.823 170.198 121.271C170.212 121.164 170.381 121.164 170.367 121.271Z" fill="#263238"/>
<path d="M139.807 115.533L145.599 154.214L145.806 155.529L146.318 159.024L146.356 159.273L146.496 160.207L147.206 164.967H162.283C165.073 158.613 176.651 115.518 176.651 115.518L139.807 115.533Z" fill="#263238"/>
<path d="M199.17 164.982H156.699C156.699 164.796 156.675 164.654 156.67 164.532C156.665 164.41 156.641 164.239 156.641 164.239C156.405 164.107 156.158 163.975 155.927 163.848C153.427 162.47 151.236 161.404 149.431 160.583C149.122 160.446 148.827 160.314 148.543 160.177C147.722 159.82 146.988 159.517 146.38 159.278C144.817 158.647 143.967 158.369 143.967 158.369C143.914 158.237 143.871 158.11 143.822 157.978C137.664 142.107 133.958 117.923 133.61 115.67C133.61 115.548 133.61 115.499 133.61 115.499H194.252C197.862 126.941 205.106 147.978 199.17 164.982Z" fill="#37474F"/>
<path d="M141.766 157.235C146.911 159.029 151.877 161.575 156.626 164.244C156.667 164.262 156.698 164.296 156.714 164.337C156.73 164.379 156.729 164.425 156.711 164.466C156.693 164.507 156.66 164.539 156.619 164.555C156.577 164.571 156.532 164.57 156.491 164.552C151.482 162.377 146.356 160.295 141.496 157.841C141.417 157.805 141.355 157.738 141.324 157.655C141.293 157.573 141.296 157.481 141.332 157.401C141.368 157.321 141.434 157.258 141.515 157.227C141.597 157.196 141.687 157.199 141.766 157.235Z" fill="#263238"/>
<path d="M140.174 122.439C140.174 122.263 140.493 122.224 140.493 122.415C140.491 128.073 140.771 133.727 141.332 139.356C141.564 141.971 143.639 156.404 148.089 155.353C148.837 155.172 149.223 154.429 149.339 153.286C149.479 151.912 148.967 150.226 148.745 148.857C148.263 145.837 147.848 142.806 147.592 139.752C147.071 134.07 147.133 128.348 147.775 122.679C147.775 122.64 147.791 122.603 147.818 122.575C147.845 122.548 147.882 122.532 147.92 122.532C147.959 122.532 147.995 122.548 148.023 122.575C148.05 122.603 148.065 122.64 148.065 122.679C148.065 130.568 148.263 138.437 149.426 146.252C149.986 150.006 151.839 155.656 147.978 156.238C144.117 156.819 141.477 147.357 140.995 144.766C139.662 137.552 139.609 129.751 140.174 122.439Z" fill="#263238"/>
<path d="M148.012 155.744C148.409 156.719 148.744 157.718 149.015 158.735C149.303 159.517 149.445 160.345 149.435 161.179C149.428 161.212 149.412 161.243 149.389 161.266C149.365 161.29 149.335 161.307 149.303 161.314C149.27 161.321 149.236 161.319 149.205 161.307C149.174 161.295 149.146 161.275 149.127 161.248C148.6 160.573 148.378 159.654 148.084 158.853C147.746 157.929 147.384 157.01 147.071 156.077C147.027 155.95 147.035 155.811 147.092 155.691C147.15 155.57 147.252 155.478 147.377 155.434C147.502 155.39 147.639 155.398 147.758 155.456C147.877 155.514 147.968 155.618 148.012 155.744Z" fill="#263238"/>
<path d="M168.229 127.161C168.218 126.532 168.282 125.903 168.417 125.289C168.423 125.269 168.436 125.252 168.452 125.24C168.469 125.228 168.488 125.222 168.509 125.222C168.529 125.222 168.549 125.228 168.565 125.24C168.582 125.252 168.594 125.269 168.6 125.289C168.728 125.819 168.797 126.361 168.808 126.907C168.871 127.527 168.953 128.148 169.015 128.769C169.149 130.039 169.368 131.298 169.672 132.537C170.242 134.888 171.429 137.038 173.108 138.759C174.772 140.414 176.739 141.722 178.9 142.611C181.313 143.642 183.832 144.023 186.313 144.761C186.332 144.77 186.347 144.785 186.357 144.804C186.367 144.823 186.371 144.844 186.367 144.865C186.364 144.886 186.354 144.906 186.339 144.921C186.324 144.935 186.305 144.945 186.284 144.947C183.532 144.944 180.806 144.401 178.258 143.349C176 142.49 173.948 141.157 172.235 139.439C170.51 137.672 169.296 135.461 168.721 133.046C168.437 131.804 168.276 130.537 168.238 129.263C168.193 128.563 168.189 127.861 168.229 127.161Z" fill="#263238"/>
<path d="M193.219 164.982C196.048 152.816 195.049 139.414 192.563 127.259C192.023 124.473 191.226 121.442 190.57 118.691C191.202 120.543 191.849 122.395 192.413 124.272C196.043 136.98 197.481 152.279 193.219 164.982Z" fill="#263238"/>
<path d="M151.129 58.7673C143.523 72.6288 128.986 97.9568 118.793 100.621C109.02 103.182 89.2085 86.9351 72.8282 76.8664C69.5705 74.8625 90.7867 54.0409 94.1554 56.3381C102.958 62.3988 113.383 72.14 115.709 71.5437C117.611 71.055 131.501 58.9677 140.381 51.9929C154.532 40.9272 156.486 49.0163 151.129 58.7673Z" fill="#AD6359"/>
<path d="M72.8332 76.8665C70.0195 75.107 57.8236 65.9034 54.9761 62.5749C52.1286 59.2464 44.7299 49.0604 47.0128 46.6068C49.2956 44.1532 51.728 46.9587 51.728 46.9587C51.728 46.9587 49.2521 42.159 51.7859 39.9009C54.3197 37.6428 57.9442 42.1346 57.9442 42.1346C57.9442 42.1346 55.7579 37.0123 58.4269 34.9448C61.0958 32.8773 64.035 38.0093 64.035 38.0093C64.035 38.0093 61.8197 33.4198 64.7444 32.6622C68.2579 31.7482 71.395 40.678 74.7927 44.1141C75.5649 44.8961 91.5301 58.8212 91.5301 58.8212L72.8332 76.8665Z" fill="#AD6359"/>
<path d="M63.7695 37.5741C66.0909 44.1334 68.229 46.5968 73.5668 50.8197C73.5864 50.8364 73.5995 50.8596 73.6035 50.8852C73.6076 50.9108 73.6024 50.937 73.5889 50.959C73.5753 50.981 73.5544 50.9973 73.53 51.0049C73.5056 51.0126 73.4792 51.011 73.4558 51.0006C67.8574 47.3446 64.7396 44.6466 63.451 37.6718C63.3882 37.3297 63.6585 37.2613 63.7695 37.5741Z" fill="#263238"/>
<path d="M57.7609 41.6116C60.7628 48.21 63.0698 50.8982 68.3256 55.7371C68.4028 55.8055 68.2966 55.9423 68.2146 55.8788C62.6547 51.5678 59.5997 48.8063 57.4569 41.8169C57.3652 41.4992 57.6306 41.3086 57.7609 41.6116Z" fill="#263238"/>
<path d="M52.0032 47.1981C55.3816 53.3762 57.7561 56.4359 63.4656 60.4682C63.4877 60.4891 63.502 60.5171 63.506 60.5474C63.51 60.5778 63.5034 60.6086 63.4874 60.6346C63.4715 60.6606 63.4471 60.6801 63.4184 60.6899C63.3898 60.6997 63.3587 60.6991 63.3304 60.6882C57.1142 57.1495 54.1026 53.3566 51.8295 47.3203C51.675 46.9098 51.7909 46.812 52.0032 47.1981Z" fill="#263238"/>
<path d="M32.3167 19.6022L60.806 21.5182L83.5136 10.3889L103.166 43.5129L80.1738 52.0663L80.5116 52.9608L75.7095 54.1387L75.2945 53.3616L49.918 52.0565L32.3167 19.6022Z" fill="#455A64"/>
<path d="M76.8196 52.4232C76.8196 52.4232 85.1787 48.3028 92.3505 46.0692C95.7288 45.0134 99.8843 43.2294 99.8843 43.2294L99.9132 40.9908C99.9132 40.9908 83.3399 44.1434 76.8196 52.4232Z" fill="#EBEBEB"/>
<path d="M60.3767 20.6872C60.3767 20.6872 63.369 16.4691 70.3091 14.3919C73.4655 13.4437 78.4124 13.2921 82.341 10.2178L99.9134 41.0103C99.9134 41.0103 85.0003 44.549 76.8198 52.4426L60.3767 20.6872Z" fill="white"/>
<path d="M60.3764 20.6873C62.9922 17.437 66.8146 15.3549 70.7528 14.2209C72.7557 13.6931 74.802 13.4096 76.776 12.8328C78.8007 12.297 80.7026 11.3656 82.3744 10.0908C82.4227 10.0908 99.9854 40.8833 100.034 40.9078L100.111 41.0495L99.9565 41.0886C97.8667 41.6165 95.8011 42.2665 93.7596 42.985C87.693 45.1796 81.6939 48.0145 76.8966 52.4672L76.8098 52.5503C76.7422 52.5503 60.4584 20.7167 60.4005 20.6678L60.3764 20.6873ZM60.3764 20.6873C60.3185 20.6873 77.2345 52.6578 76.7856 52.3596C78.3855 50.8747 80.1138 49.5382 81.9497 48.3664C85.6592 46.091 89.597 44.2216 93.6968 42.7895C95.7383 42.0612 97.804 41.4014 99.913 40.8735L99.8358 41.0495C99.8744 41.0495 82.0366 10.0468 82.4082 10.257C79.0829 12.8964 74.7827 13.3754 70.8011 14.2942C66.8629 15.394 63.0356 17.4419 60.4005 20.6483L60.3764 20.6873Z" fill="#EBEBEB"/>
<path d="M76.8198 52.4232L60.3767 20.6874C60.3767 20.6874 44.3632 15.7997 38.6586 16.8212L33.147 18.9913L50.7242 51.0155L76.8198 52.4232Z" fill="white"/>
<path d="M76.8201 52.4231C76.8201 52.4231 60.1743 20.5602 60.3529 20.7704C55.0541 19.1414 49.6458 17.9033 44.1704 17.0655C42.3545 16.7823 40.5101 16.738 38.683 16.9335C38.7747 16.8846 33.1666 19.1232 33.181 19.1037L33.239 18.9326L50.7776 50.9812C50.459 50.9128 76.8828 52.4475 76.8394 52.4475L76.8201 52.4231ZM76.8201 52.4231L50.6714 51.0888C50.5749 50.8639 33.0556 19.1281 32.9639 18.9277L33.0942 18.8788L38.6347 16.7087C40.4879 16.514 42.3582 16.5617 44.1994 16.8504C49.6834 17.707 55.0995 18.9615 60.406 20.6042C60.5218 20.6042 76.7477 52.3742 76.8152 52.4231H76.8201Z" fill="#EBEBEB"/>
<path d="M38.6634 16.8209L54.6914 48.4492C54.6914 48.4492 69.73 49.9742 76.8198 52.4229L50.7145 51.0153L33.147 18.9911L38.6634 16.8209Z" fill="#EBEBEB"/>
<path d="M60.3767 20.6871C61.8117 23.2939 63.2274 25.9153 64.6238 28.5514L68.7744 36.4646L72.8429 44.4218C74.1911 47.0742 75.5167 49.7412 76.8198 52.423C75.388 49.8162 73.9739 47.1948 72.5775 44.5587L68.4269 36.6455L64.3584 28.6932C63.0135 26.0343 61.6862 23.3656 60.3767 20.6871Z" fill="#DBDBDB"/>
<path d="M63.9624 22.4273C65.1721 21.3507 66.4981 20.4161 67.9151 19.6413C69.326 18.8524 70.8099 18.2058 72.3456 17.7107C73.8852 17.2219 75.4441 16.8358 77.0029 16.435C77.78 16.2346 78.557 16.0342 79.3292 15.8142C80.1081 15.6197 80.8726 15.3698 81.6168 15.0664C80.1303 15.6877 78.5971 16.1878 77.0319 16.562C75.4827 16.9824 73.9286 17.3978 72.4083 17.9013C70.874 18.3713 69.3885 18.9917 67.973 19.7537C66.5584 20.519 65.2159 21.414 63.9624 22.4273Z" fill="#263238"/>
<path d="M77.9104 17.6129C79.3293 17.0851 80.8062 16.738 82.2106 16.259C81.546 16.6234 80.8413 16.9072 80.1112 17.1046C79.3877 17.3161 78.6529 17.4858 77.9104 17.6129Z" fill="#263238"/>
<path d="M64.5564 23.6199C65.3566 22.8922 66.2191 22.2379 67.1336 21.6648C68.0429 21.0736 68.9892 20.5429 69.9666 20.0763C71.9505 19.22 74.0134 18.5651 76.1249 18.1212C75.0969 18.4389 74.0641 18.7517 73.041 19.0988C71.0018 19.7828 69.0434 20.6926 67.2012 21.8114C66.2861 22.3625 65.4031 22.9663 64.5564 23.6199Z" fill="#263238"/>
<path d="M65.1497 24.8124C66.3593 23.7359 67.6853 22.8013 69.1024 22.0264C70.5132 21.2375 71.9972 20.5909 73.5329 20.0958C75.0724 19.607 76.6313 19.2209 78.1902 18.8201C78.9672 18.6197 79.7443 18.4193 80.5165 18.1994C81.2954 18.0048 82.0598 17.7549 82.8041 17.4515C81.3175 18.0728 79.7843 18.573 78.2192 18.9472C76.6699 19.3675 75.1159 19.783 73.5956 20.2864C72.0612 20.7564 70.5758 21.3768 69.1603 22.1388C67.7456 22.9042 66.4031 23.7991 65.1497 24.8124Z" fill="#263238"/>
<path d="M65.7437 26.0048C66.9533 24.9283 68.2793 23.9937 69.6964 23.2188C71.1063 22.4215 72.5903 21.7667 74.1269 21.2638C75.6664 20.775 77.2253 20.3889 78.7842 19.9881C79.5612 19.7877 80.3383 19.5873 81.1105 19.3673C81.8894 19.1728 82.6538 18.9229 83.3981 18.6195C81.9129 19.2401 80.3814 19.7402 78.818 20.1151C77.2639 20.5355 75.7099 20.9509 74.1896 21.4544C72.6552 21.9244 71.1698 22.5448 69.7543 23.3068C68.3387 24.0799 66.9962 24.983 65.7437 26.0048Z" fill="#263238"/>
<path d="M73.0649 23.1752C73.9594 22.8494 74.8571 22.5235 75.758 22.1977C76.6557 21.8702 77.5871 21.6551 78.5041 21.3912L81.2696 20.6727C82.1925 20.445 83.1014 20.1627 83.9916 19.8271C83.1258 20.2286 82.2281 20.5556 81.3082 20.8047C80.396 21.0784 79.4694 21.3179 78.5524 21.5672C77.6354 21.8164 76.7039 22.0559 75.8014 22.3296C74.8989 22.6034 73.9819 22.9113 73.0649 23.1752Z" fill="#263238"/>
<path d="M66.3369 27.1976C67.1479 26.4107 68.0412 25.7158 69.001 25.1252C69.4836 24.8319 69.9663 24.5435 70.473 24.2943C70.9746 24.0418 71.4885 23.815 72.0126 23.6149C70.0302 24.6553 68.1323 25.8533 66.3369 27.1976Z" fill="#263238"/>
<path d="M66.9304 28.3952C68.1388 27.3155 69.4649 26.3792 70.8831 25.6043C72.2931 24.807 73.777 24.1522 75.3136 23.6493C76.8532 23.1605 78.4121 22.7744 79.971 22.3736C80.748 22.1732 81.525 21.9728 82.2972 21.7528C83.0775 21.5576 83.8435 21.3077 84.5897 21.005C83.1026 21.6249 81.5695 22.125 80.0047 22.5006C78.4507 22.921 76.8966 23.3364 75.3764 23.8399C73.842 24.3099 72.3565 24.9303 70.941 25.6923C69.5243 26.4653 68.1816 27.3702 66.9304 28.3952Z" fill="#263238"/>
<path d="M68.1179 30.7804C69.3263 29.7008 70.6524 28.7644 72.0706 27.9896C73.4819 27.1994 74.9678 26.5543 76.5059 26.0638C78.0407 25.575 79.5996 25.184 81.1585 24.7832C81.9355 24.5828 82.7125 24.3824 83.4847 24.1625C84.265 23.9672 85.031 23.7173 85.7772 23.4147C84.2901 24.0346 82.757 24.5347 81.1922 24.9103C79.6382 25.3307 78.0841 25.7461 76.5639 26.2495C75.0307 26.7187 73.5468 27.3391 72.1334 28.102C70.7153 28.8661 69.371 29.7628 68.1179 30.7804Z" fill="#263238"/>
<path d="M77.4277 27.2513C78.2385 26.9433 79.0687 26.7038 79.894 26.4643C80.7192 26.2248 81.5638 26.0196 82.4133 25.868C81.6024 26.176 80.7772 26.4106 79.947 26.655C79.1169 26.8993 78.282 27.0949 77.4277 27.2513Z" fill="#263238"/>
<path d="M68.7117 31.973C69.67 31.0622 70.7292 30.2668 71.868 29.6025C72.4375 29.275 73.0119 28.9524 73.6103 28.6787C74.206 28.3999 74.8167 28.1552 75.4395 27.9456C74.2511 28.4926 73.0913 29.1011 71.9646 29.7687C71.3999 30.0961 70.8497 30.4578 70.3092 30.8195C69.7686 31.1812 69.2281 31.5625 68.7117 31.973Z" fill="#263238"/>
<path d="M69.3049 33.1654C70.5133 32.0858 71.8394 31.1494 73.2576 30.3746C74.669 29.5844 76.1548 28.9393 77.693 28.4488C79.2277 27.96 80.7866 27.569 82.3455 27.1682C83.1225 26.9678 83.8995 26.7674 84.6717 26.5475C85.452 26.3522 86.218 26.1024 86.9642 25.7997C85.4771 26.4196 83.944 26.9197 82.3793 27.2953C80.8252 27.7157 79.2711 28.1311 77.7509 28.6345C76.2177 29.1037 74.7338 29.7241 73.3204 30.487C71.9024 31.2511 70.558 32.1478 69.3049 33.1654Z" fill="#263238"/>
<path d="M70.4924 35.5507C71.7008 34.471 73.0269 33.5347 74.4451 32.7598C75.8565 31.9697 77.3423 31.3246 78.8805 30.8341C80.4152 30.3453 81.9789 29.9543 83.533 29.5535C84.31 29.3531 85.087 29.1527 85.8592 28.9328C86.6447 28.735 87.4156 28.4818 88.1662 28.1752C86.6791 28.7951 85.146 29.2951 83.5812 29.6708C82.0272 30.096 80.4731 30.5066 78.9529 31.01C77.4188 31.4786 75.9346 32.1008 74.5224 32.8674C73.098 33.6303 71.7486 34.5288 70.4924 35.5507Z" fill="#263238"/>
<path d="M71.0862 36.7433C72.2945 35.6637 73.6207 34.7273 75.0389 33.9524C76.4516 33.1652 77.9372 32.5202 79.4742 32.0267C81.009 31.5379 82.5727 31.1469 84.1267 30.7461C84.9038 30.5457 85.6808 30.3453 86.453 30.1254C87.2333 29.9301 87.9993 29.6802 88.7454 29.3776C87.2591 29.9996 85.7259 30.4998 84.1605 30.8732C82.6065 31.2984 81.0524 31.709 79.5321 32.2124C77.9981 32.681 76.5139 33.3032 75.1016 34.0697C73.6827 34.8303 72.3382 35.7255 71.0862 36.7433Z" fill="#263238"/>
<path d="M83.8948 33.576C84.889 33.2241 85.9073 32.9553 86.916 32.6669L88.4315 32.2466C88.9141 32.0951 89.4353 31.9484 89.9324 31.7578C88.9837 32.2271 87.9888 32.5941 86.9643 32.8527C85.9508 33.1264 84.9276 33.3805 83.8948 33.576Z" fill="#263238"/>
<path d="M77.5481 35.7364C77.968 35.5164 78.3879 35.3014 78.8174 35.101C79.2469 34.9006 79.691 34.7442 80.135 34.5829C81.0279 34.2835 81.9386 34.0419 82.8618 33.8595C81.9786 34.1919 81.0809 34.4607 80.1977 34.7686C79.3145 35.0765 78.4361 35.4333 77.5481 35.7364Z" fill="#263238"/>
<path d="M72.2732 39.1286C72.8026 38.5824 73.3847 38.0911 74.0106 37.6622C74.3292 37.457 74.6429 37.2468 74.9759 37.0611C75.3032 36.8725 75.6399 36.7012 75.9846 36.5479C74.7394 37.413 73.4991 38.239 72.2732 39.1286Z" fill="#263238"/>
<path d="M85.2708 34.5634C86.1395 34.2506 87.0275 34.0111 87.9059 33.752L89.2235 33.3757C89.6626 33.2437 90.1018 33.1166 90.5362 32.9553C89.7121 33.3727 88.8465 33.7004 87.9541 33.9329C87.0613 34.1821 86.1684 34.407 85.2708 34.5634Z" fill="#263238"/>
<path d="M72.8672 40.3211C73.6298 39.614 74.4536 38.9776 75.3286 38.4198C76.1977 37.8498 77.1002 37.334 78.0313 36.8752C79.9166 36.0182 81.8851 35.3629 83.9048 34.9202C82.9396 35.233 81.9357 35.536 80.9608 35.8635C79.9876 36.1956 79.0365 36.5907 78.1133 37.0463C77.1816 37.4808 76.2759 37.9704 75.401 38.5126C74.5247 39.0686 73.6789 39.6723 72.8672 40.3211Z" fill="#263238"/>
<path d="M73.4604 41.5137C74.6688 40.434 75.995 39.4977 77.4132 38.7228C78.8259 37.9356 80.3114 37.2906 81.8485 36.7971C83.3832 36.3083 84.9469 35.9173 86.501 35.5165C87.278 35.3161 88.055 35.1157 88.8272 34.8958C89.6076 34.7005 90.3736 34.4506 91.1197 34.1479C89.6334 34.77 88.1002 35.2702 86.5348 35.6436C84.9807 36.0688 83.4315 36.4794 81.9064 36.9828C80.3731 37.4537 78.8892 38.0757 77.4759 38.8401C76.0587 39.6037 74.7144 40.4987 73.4604 41.5137Z" fill="#263238"/>
<path d="M80.782 38.6789C82.5555 37.9559 84.3781 37.3629 86.2357 36.9046L89.0011 36.1861C89.9254 35.9578 90.8359 35.6755 91.7279 35.3406C89.9953 36.1666 88.1131 36.5772 86.2839 37.0953L83.5281 37.8382C82.5967 38.0972 81.6797 38.3612 80.782 38.6789Z" fill="#263238"/>
<path d="M74.0542 42.7062C74.8367 41.9476 75.6956 41.2743 76.6169 40.6974C77.0996 40.4188 77.5436 40.1353 78.031 39.8909C78.5133 39.6436 79.0078 39.4218 79.5127 39.2262C77.6129 40.2516 75.7886 41.4147 74.0542 42.7062Z" fill="#263238"/>
<path d="M74.6526 43.8988C75.8609 42.8192 77.1871 41.8828 78.6053 41.108C80.018 40.3207 81.5036 39.6757 83.0406 39.1822C84.5754 38.6934 86.1391 38.3024 87.6931 37.9016C88.4702 37.7012 89.2472 37.5008 90.0242 37.2809C90.8027 37.0849 91.5671 36.835 92.3119 36.5331C90.8256 37.1552 89.2923 37.6553 87.7269 38.0287C86.1777 38.4539 84.6236 38.8645 83.0985 39.3679C81.5653 39.8388 80.0813 40.4609 78.668 41.2253C77.2508 41.9888 75.9066 42.8838 74.6526 43.8988Z" fill="#263238"/>
<path d="M75.2415 45.0915C75.9699 44.4171 76.7529 43.8056 77.5822 43.2635C78.4093 42.716 79.2665 42.2166 80.1498 41.7679C81.0375 41.3293 81.9612 40.9695 82.9104 40.6926C83.8467 40.3896 84.7926 40.111 85.7434 39.847C84.8167 40.1729 83.8869 40.4987 82.9538 40.8246C82.0162 41.1213 81.1055 41.499 80.2318 41.9536C79.3459 42.3798 78.4854 42.858 77.6546 43.3857C76.821 43.9108 76.0155 44.4802 75.2415 45.0915Z" fill="#263238"/>
<path d="M43.229 19.8368C45.9317 20.0225 48.6151 20.4282 51.2888 20.8583C52.6209 21.1027 53.9481 21.3732 55.2705 21.6697C56.5977 21.9483 57.9056 22.3002 59.2087 22.6717C57.8863 22.3735 56.5688 22.0705 55.2416 21.7968C53.9143 21.523 52.5871 21.2738 51.2551 21.0538C49.923 20.8339 48.591 20.5651 47.2493 20.3891C45.9076 20.2131 44.5707 20.003 43.229 19.8368Z" fill="#263238"/>
<path d="M52.8044 22.183C53.3932 22.2563 53.982 22.3345 54.5612 22.4616L56.3035 22.8379C57.457 23.1116 58.6153 23.3805 59.7543 23.7226C58.5766 23.5418 57.4183 23.2827 56.26 23.0286C55.1017 22.7744 53.9579 22.4616 52.8044 22.183Z" fill="#263238"/>
<path d="M43.7644 20.8826C45.0192 20.9266 46.2644 21.0732 47.5048 21.2296C48.7451 21.386 49.9806 21.6108 51.2017 21.8992C49.9517 21.7721 48.7161 21.5864 47.4758 21.4104C46.2354 21.2345 45.0096 21.0879 43.7644 20.8826Z" fill="#263238"/>
<path d="M44.3196 21.9336C46.3611 22.0509 48.3833 22.3442 50.4007 22.6276C52.418 22.9111 54.4258 23.3315 56.4094 23.8398C54.392 23.4977 52.3939 23.1066 50.3717 22.8232C48.3495 22.5397 46.3418 22.2171 44.3196 21.9336Z" fill="#263238"/>
<path d="M44.865 22.9845C47.5677 23.1702 50.2463 23.5759 52.92 24.006C54.2585 24.2504 55.5873 24.5209 56.9065 24.8174C58.2289 25.1009 59.5416 25.4479 60.8399 25.8242C59.5223 25.5212 58.2048 25.2182 56.8775 24.9445C55.5503 24.6708 54.2231 24.4215 52.8862 24.2015C51.5494 23.9816 50.2221 23.7128 48.8853 23.5368C47.5484 23.3608 46.2067 23.1556 44.865 22.9845Z" fill="#263238"/>
<path d="M56.8774 25.8094C57.6448 25.9072 58.3977 26.0783 59.1554 26.2445C59.9132 26.4106 60.6564 26.6159 61.3852 26.875C60.613 26.7772 59.8649 26.6013 59.1072 26.4351C58.3494 26.2689 57.611 26.0685 56.8774 25.8094Z" fill="#263238"/>
<path d="M45.4109 24.0353C47.0856 24.1184 48.7507 24.3285 50.4061 24.5632C52.0615 24.7978 53.7169 25.1057 55.3481 25.5016C52.0325 25.003 48.7265 24.5045 45.4109 24.0353Z" fill="#263238"/>
<path d="M58.0598 27.9309C58.8127 28.0238 59.5511 28.19 60.2895 28.3561C61.028 28.5223 61.7374 28.7178 62.4758 28.972C61.7181 28.8791 60.9845 28.708 60.2461 28.5468C59.5077 28.3855 58.7789 28.1753 58.0598 27.9309Z" fill="#263238"/>
<path d="M53.6587 27.0997C54.2562 27.142 54.8507 27.2187 55.4396 27.3295C56.03 27.4325 56.6135 27.5729 57.1867 27.7498C56.5892 27.7079 55.9946 27.6312 55.4058 27.5201C54.8155 27.4164 54.232 27.2761 53.6587 27.0997Z" fill="#263238"/>
<path d="M46.4958 26.1323C47.3694 26.1617 48.2333 26.2643 49.0972 26.362C49.9611 26.4598 50.8202 26.5967 51.6696 26.7873C50.796 26.7579 49.9321 26.6553 49.0731 26.5576C48.214 26.4598 47.3549 26.3229 46.4958 26.1323Z" fill="#263238"/>
<path d="M47.0417 27.1976C49.7445 27.3834 52.4279 27.789 55.1016 28.2241C56.4336 28.4652 57.7609 28.734 59.0833 29.0305C60.4105 29.314 61.7184 29.661 63.0215 30.0374C61.6991 29.7392 60.3815 29.4313 59.0591 29.1576C57.7367 28.8839 56.3999 28.6346 55.0678 28.4147C53.7358 28.1947 52.4037 27.9259 51.0669 27.7499C49.73 27.574 48.3883 27.354 47.0417 27.1976Z" fill="#263238"/>
<path d="M47.5869 28.2338C50.2896 28.4195 52.973 28.8252 55.6468 29.2553C56.9788 29.4997 58.306 29.7701 59.6284 30.0667C60.9556 30.3453 62.2636 30.6972 63.5666 31.0735C62.2443 30.7705 60.9267 30.4674 59.5995 30.1937C58.2722 29.92 56.945 29.6708 55.613 29.4508C54.2809 29.2309 52.9489 28.962 51.6072 28.7861C50.2655 28.6101 48.9334 28.4048 47.5869 28.2338Z" fill="#263238"/>
<path d="M48.1323 29.2847C49.9904 29.3824 51.8341 29.6219 53.6729 29.8907C55.5117 30.1596 57.336 30.5164 59.141 30.966C57.307 30.6777 55.4779 30.3551 53.6439 30.0863C51.8099 29.8174 49.9711 29.5437 48.1323 29.2847Z" fill="#263238"/>
<path d="M50.3184 31.7677L56.4091 44.1091C61.2493 44.6692 66.052 45.5228 70.7913 46.6654L64.2421 34.3826C64.2421 34.3826 53.9622 31.8068 50.3184 31.7677Z" fill="#455A64"/>
<path d="M96.1585 59.6861C96.1585 59.6861 93.9578 51.2402 92.2107 47.7259C90.4635 44.2117 79.1218 33.6493 76.728 35.9954C73.6392 39.0258 78.9867 46.4356 82.0707 49.7201C82.0707 49.7201 74.9134 56.7193 77.6161 62.8778C80.3188 69.0363 96.1585 59.6861 96.1585 59.6861Z" fill="#AD6359"/>
<path d="M76.149 37.1294C75.2996 41.9536 79.6239 45.9957 82.3846 49.4073C82.4271 49.4559 82.4575 49.5141 82.4732 49.5771C82.4889 49.6401 82.4894 49.7059 82.4748 49.7691C82.4601 49.8323 82.4307 49.8911 82.3889 49.9404C82.3472 49.9897 82.2944 50.0281 82.235 50.0525C79.4261 53.1904 76.371 58.4447 77.3604 62.7947C77.3687 62.8206 77.3666 62.8488 77.3543 62.8731C77.3421 62.8974 77.3209 62.9158 77.2953 62.9242C77.2697 62.9327 77.2418 62.9304 77.2178 62.9181C77.1939 62.9057 77.1757 62.8842 77.1674 62.8582C75.4782 58.3371 78.0699 52.9264 81.3614 49.6908C78.4656 46.2352 74.3102 41.9878 76.1056 37.1196L76.149 37.1294Z" fill="#263238"/>
<path d="M97.3359 57.0127L80.1833 85.9039C80.1833 85.9039 110.849 104.472 120.019 101.696C129.189 98.9198 145.902 70.4979 151.269 59.3881C156.636 48.2784 153.682 42.2812 142.756 50.0233C131.829 57.7654 116.988 70.0531 115.193 70.2095C113.398 70.3659 97.3359 57.0127 97.3359 57.0127Z" fill="#498AEC"/>
<path d="M141.163 77.4187C141.1 77.5165 141.033 77.6191 140.97 77.7266H140.622C140.208 77.7253 139.811 77.5581 139.518 77.2614C139.225 76.9647 139.06 76.5626 139.059 76.143C139.057 75.8051 138.924 75.4814 138.688 75.2424C138.452 75.0034 138.133 74.8686 137.799 74.8673H136.834V74.5594H137.799C138.214 74.5594 138.611 74.7262 138.905 75.0232C139.198 75.3202 139.363 75.723 139.363 76.143C139.364 76.481 139.497 76.8047 139.733 77.0436C139.969 77.2826 140.289 77.4174 140.622 77.4187H141.163ZM142.905 62.0469L142.254 61.4115C142.018 61.1723 141.885 60.8479 141.885 60.5097C141.885 60.1715 142.018 59.8471 142.254 59.6079C142.547 59.311 142.711 58.9084 142.711 58.4887C142.711 58.0689 142.547 57.6663 142.254 57.3694L141.564 56.6704L141.346 56.8855L142.036 57.5844C142.273 57.8236 142.405 58.148 142.405 58.4862C142.405 58.8244 142.273 59.1488 142.036 59.388C141.891 59.5351 141.775 59.7099 141.696 59.9024C141.617 60.0949 141.577 60.3013 141.577 60.5097C141.577 60.7181 141.617 60.9245 141.696 61.117C141.775 61.3095 141.891 61.4843 142.036 61.6314L142.688 62.2913L142.905 62.0469ZM148.842 50.2431C149.078 50.004 149.398 49.8697 149.732 49.8697C150.066 49.8697 150.386 50.004 150.622 50.2431C150.767 50.3908 150.939 50.508 151.129 50.5877C151.319 50.6674 151.522 50.7081 151.728 50.7074C151.933 50.7081 152.137 50.6674 152.326 50.5877C152.516 50.508 152.688 50.3908 152.833 50.2431L153.523 49.5442L153.306 49.3242L152.616 50.0232C152.5 50.1422 152.361 50.2368 152.209 50.3014C152.056 50.366 151.893 50.3993 151.728 50.3995C151.562 50.3993 151.399 50.366 151.246 50.3014C151.094 50.2368 150.956 50.1422 150.84 50.0232C150.545 49.7274 150.147 49.5614 149.732 49.5614C149.317 49.5614 148.919 49.7274 148.624 50.0232L147.973 50.6879L148.19 50.9029L148.842 50.2431ZM131.062 85.0093H130.154C129.989 85.0093 129.825 84.9763 129.672 84.9122C129.519 84.8481 129.381 84.7541 129.264 84.6357C129.147 84.5172 129.054 84.3766 128.99 84.2218C128.927 84.067 128.895 83.9011 128.895 83.7336C128.893 83.314 128.728 82.912 128.435 82.6153C128.142 82.3186 127.745 82.1513 127.331 82.15H126.366V82.4579H127.331C127.664 82.4592 127.983 82.5942 128.218 82.8333C128.454 83.0724 128.586 83.3961 128.586 83.7336C128.587 84.1541 128.753 84.5569 129.047 84.8537C129.341 85.1505 129.739 85.3172 130.154 85.3172H131.076L131.062 85.0093ZM99.2662 83.4843H98.3444C98.0112 83.4843 97.6915 83.3506 97.4554 83.1124C97.2193 82.8742 97.086 82.551 97.0848 82.2135C97.0848 81.7931 96.9202 81.3898 96.6271 81.092C96.3339 80.7943 95.9362 80.6263 95.5211 80.625H94.5558V80.9623H95.5211C95.8543 80.9636 96.1735 81.0986 96.4086 81.3377C96.6438 81.5768 96.7759 81.9005 96.7759 82.238C96.7772 82.6584 96.943 83.0612 97.237 83.3581C97.531 83.6549 97.9292 83.8216 98.3444 83.8216H99.2662V83.4843ZM129.884 68.6942L129.228 68.0343C128.994 67.7939 128.863 67.47 128.863 67.1325C128.863 66.7951 128.994 66.4712 129.228 66.2308C129.521 65.933 129.686 65.5296 129.686 65.109C129.686 64.6885 129.521 64.2851 129.228 63.9873L128.542 63.2933L128.325 63.5083L129.015 64.2073C129.249 64.4477 129.38 64.7716 129.38 65.109C129.38 65.4465 129.249 65.7704 129.015 66.0108C128.87 66.1575 128.754 66.3319 128.675 66.524C128.596 66.7161 128.556 66.9221 128.556 67.1301C128.556 67.3381 128.596 67.5441 128.675 67.7362C128.754 67.9283 128.87 68.1027 129.015 68.2494L129.667 68.9141L129.884 68.6942ZM119.898 97.3605L119.247 96.6958C119.011 96.4566 118.878 96.1322 118.878 95.794C118.878 95.4558 119.011 95.1314 119.247 94.8922C119.54 94.5953 119.704 94.1927 119.704 93.7729C119.704 93.3532 119.54 92.9506 119.247 92.6537L118.571 91.9547L118.354 92.1747L119.044 92.8736C119.28 93.1128 119.413 93.4372 119.413 93.7754C119.413 94.1136 119.28 94.438 119.044 94.6772C118.752 94.9747 118.589 95.3771 118.589 95.7965C118.589 96.2158 118.752 96.6182 119.044 96.9157L119.696 97.5756L119.898 97.3605ZM93.8367 92.6537L93.1417 91.9547L92.9294 92.1747L93.6195 92.8687C93.7825 93.0393 93.899 93.2498 93.9573 93.4797L94.2855 93.6459C94.2537 93.2705 94.0912 92.9189 93.827 92.6537H93.8367ZM105.704 72.8585L105.058 72.1986C104.822 71.9594 104.689 71.6351 104.689 71.2969C104.689 70.9587 104.822 70.6343 105.058 70.3951C105.351 70.0981 105.515 69.6956 105.515 69.2758C105.515 68.856 105.351 68.4535 105.058 68.1565L104.368 67.4576L104.15 67.6775L104.841 68.3765C104.957 68.4945 105.05 68.6347 105.113 68.789C105.176 68.9433 105.209 69.1087 105.209 69.2758C105.209 69.4429 105.176 69.6083 105.113 69.7626C105.05 69.9169 104.957 70.0571 104.841 70.1751C104.548 70.4735 104.385 70.8767 104.385 71.2969C104.385 71.717 104.548 72.1202 104.841 72.4186L105.492 73.0784L105.704 72.8585ZM108.861 84.4423C109.101 84.2102 109.42 84.0806 109.751 84.0806C110.083 84.0806 110.402 84.2102 110.642 84.4423C110.936 84.7393 111.334 84.9061 111.749 84.9061C112.165 84.9061 112.563 84.7393 112.857 84.4423L113.542 83.7434L113.33 83.5234L112.64 84.2224C112.404 84.4615 112.083 84.5958 111.749 84.5958C111.415 84.5958 111.095 84.4615 110.859 84.2224C110.566 83.9257 110.168 83.7591 109.754 83.7591C109.339 83.7591 108.942 83.9257 108.648 84.2224L107.982 84.8724L108.2 85.0875L108.861 84.4423ZM86.4622 86.2557L85.7527 86.9546C85.6362 87.0728 85.4977 87.1666 85.3454 87.2306C85.193 87.2946 85.0296 87.3276 84.8647 87.3276C84.6997 87.3276 84.5364 87.2946 84.384 87.2306C84.2316 87.1666 84.0932 87.0728 83.9767 86.9546C83.8308 86.8072 83.6577 86.6903 83.4673 86.6106C83.2768 86.5309 83.0727 86.49 82.8666 86.4903C82.4898 86.4926 82.1258 86.6293 81.8386 86.8764L82.1282 87.0426C82.3735 86.8708 82.6698 86.79 82.9671 86.8141C83.2643 86.8381 83.5443 86.9655 83.7595 87.1746C84.0527 87.4712 84.4502 87.6379 84.8647 87.6379C85.2792 87.6379 85.6767 87.4712 85.9699 87.1746L86.6601 86.4756L86.4622 86.2557ZM117.307 76.6611C117.307 76.3228 117.439 75.9983 117.676 75.7591C117.912 75.5198 118.232 75.3854 118.566 75.3854C118.981 75.3841 119.378 75.2169 119.671 74.9202C119.964 74.6235 120.129 74.2214 120.13 73.8018V72.8683H119.821V73.8018C119.824 73.9702 119.793 74.1373 119.732 74.2937C119.67 74.4501 119.579 74.5927 119.463 74.7131C119.346 74.8335 119.208 74.9294 119.055 74.9953C118.902 75.0612 118.737 75.0958 118.571 75.0971C118.156 75.097 117.758 75.2637 117.464 75.5606C117.17 75.8574 117.004 76.2602 117.003 76.6807V77.6582H117.312L117.307 76.6611ZM107.249 96.036V96.9695C107.249 97.3078 107.116 97.6323 106.88 97.8716C106.644 98.1108 106.323 98.2452 105.989 98.2452C105.639 98.2461 105.299 98.3666 105.024 98.5873L105.367 98.7291C105.556 98.6153 105.773 98.5561 105.994 98.558C106.409 98.5567 106.807 98.3888 107.1 98.091C107.393 97.7933 107.558 97.39 107.558 96.9695V96.036H107.249ZM95.7913 60.9227V61.8612C95.7913 62.0287 95.7587 62.1946 95.6954 62.3494C95.6321 62.5041 95.5394 62.6448 95.4224 62.7632C95.3054 62.8817 95.1665 62.9756 95.0137 63.0397C94.8609 63.1039 94.6971 63.1369 94.5317 63.1369C94.3245 63.1394 94.12 63.1839 93.9302 63.2679C93.7403 63.3518 93.5691 63.4735 93.4265 63.6256L93.0404 64.2757C92.994 64.4244 92.9696 64.5792 92.968 64.7351V65.7127H93.272V64.7351C93.2733 64.3972 93.4064 64.0735 93.6424 63.8345C93.8783 63.5955 94.198 63.4607 94.5317 63.4594C94.9468 63.4594 95.3451 63.2928 95.6391 62.9959C95.9331 62.6991 96.0989 62.2963 96.1002 61.8758V60.9227H95.7913Z" fill="white"/>
<path d="M88.5573 88.2257C94.0351 76.7934 101.506 65.6006 102.674 63.5575C102.727 63.4646 102.877 63.5575 102.814 63.6553C101.569 65.6103 94.4019 79.2959 88.7166 88.3332C88.649 88.4408 88.509 88.3381 88.5573 88.2257Z" fill="#263238"/>
<path opacity="0.1" d="M151.294 59.388C145.922 70.4977 129.238 98.9148 120.034 101.691C117.215 102.546 112.384 101.393 107.037 99.3791C118.099 85.6545 138.649 61.6608 150.671 46.5236C154.769 46.5138 154.986 51.7485 151.294 59.388Z" fill="black"/>
<path d="M133.557 115.499L134.436 98.255C134.436 98.255 129.127 94.1347 129.489 84.7259C129.764 77.8831 144.185 49.8864 145.377 48.6644C150.169 43.7767 159.373 44.0162 162.558 46.9929C178.707 62.174 186.588 84.9409 194.252 115.499H133.557Z" fill="#498AEC"/>
<path d="M178.234 93.7143H177.312C176.898 93.7143 176.5 93.5474 176.207 93.2504C175.913 92.9535 175.749 92.5507 175.749 92.1307C175.749 91.7923 175.616 91.4679 175.38 91.2286C175.143 90.9894 174.823 90.855 174.489 90.855H173.524V90.547H174.489C174.904 90.547 175.301 90.7139 175.595 91.0109C175.888 91.3079 176.053 91.7107 176.053 92.1307C176.053 92.469 176.185 92.7935 176.422 93.0327C176.658 93.272 176.978 93.4063 177.312 93.4063H178.234V93.7143ZM141.555 77.4138H140.633C140.299 77.4138 139.98 77.2801 139.744 77.0419C139.508 76.8037 139.374 76.4805 139.373 76.143C139.373 75.7226 139.208 75.3192 138.915 75.0215C138.622 74.7237 138.224 74.5558 137.809 74.5545H136.844V74.8673H137.809C137.975 74.8673 138.139 74.9003 138.291 74.9644C138.444 75.0285 138.583 75.1225 138.7 75.241C138.817 75.3594 138.91 75.5 138.973 75.6548C139.036 75.8096 139.069 75.9755 139.069 76.143C139.07 76.5626 139.235 76.9646 139.528 77.2614C139.821 77.5581 140.218 77.7253 140.633 77.7266H141.555V77.4138ZM164.865 73.142H163.939C163.605 73.142 163.284 73.0075 163.048 72.7683C162.812 72.5291 162.679 72.2046 162.679 71.8663C162.678 71.4467 162.513 71.0446 162.22 70.7479C161.927 70.4512 161.53 70.2839 161.115 70.2826H160.15V70.5906H161.115C161.449 70.5919 161.768 70.7268 162.003 70.9659C162.238 71.205 162.37 71.5288 162.37 71.8663C162.375 72.2842 162.543 72.6832 162.836 72.9769C163.13 73.2706 163.526 73.4353 163.939 73.4352H164.861L164.865 73.142ZM153.109 98.0692H152.187C151.853 98.0692 151.532 97.9348 151.296 97.6956C151.06 97.4563 150.927 97.1319 150.927 96.7935C150.926 96.3739 150.761 95.9719 150.468 95.6752C150.175 95.3785 149.778 95.2112 149.363 95.2099H148.398V95.5227H149.363C149.697 95.5227 150.016 95.6564 150.252 95.8946C150.488 96.1328 150.622 96.456 150.623 96.7935C150.623 97.214 150.788 97.6173 151.081 97.915C151.374 98.2128 151.772 98.3807 152.187 98.382H153.109V98.0692ZM166.54 102.752L165.888 102.087C165.772 101.969 165.679 101.829 165.616 101.674C165.553 101.52 165.52 101.355 165.52 101.188C165.52 101.021 165.553 100.855 165.616 100.701C165.679 100.546 165.772 100.406 165.888 100.288C166.182 99.9905 166.346 99.5871 166.346 99.1665C166.346 98.7459 166.182 98.3426 165.888 98.0448L165.198 97.3458L164.981 97.5658L165.671 98.2647C165.907 98.5039 166.04 98.8283 166.04 99.1665C166.04 99.5047 165.907 99.8291 165.671 100.068C165.38 100.366 165.216 100.768 165.216 101.188C165.216 101.607 165.38 102.009 165.671 102.307L166.352 102.957L166.54 102.752ZM184.296 113.558L183.611 112.859L183.393 113.079L184.083 113.773C184.305 114.001 184.435 114.303 184.448 114.622C184.462 114.941 184.357 115.253 184.156 115.499H184.532C184.716 115.198 184.795 114.842 184.756 114.49C184.716 114.139 184.561 113.81 184.315 113.558H184.296ZM175.609 80.1607L174.996 79.496C174.76 79.2567 174.627 78.9324 174.627 78.5942C174.627 78.256 174.76 77.9316 174.996 77.6924C175.287 77.3948 175.451 76.9925 175.451 76.5731C175.451 76.1538 175.287 75.7514 174.996 75.4538L174.305 74.7549L174.088 74.9748L174.778 75.6738C174.895 75.7918 174.988 75.932 175.051 76.0863C175.114 76.2406 175.147 76.4061 175.147 76.5731C175.147 76.7402 175.114 76.9056 175.051 77.0599C174.988 77.2142 174.895 77.3544 174.778 77.4724C174.486 77.7709 174.323 78.174 174.323 78.5942C174.323 79.0143 174.486 79.4175 174.778 79.7159L175.435 80.3757L175.609 80.1607ZM142.906 62.0469L142.254 61.4115C142.018 61.1723 141.886 60.8479 141.886 60.5097C141.886 60.1715 142.018 59.8471 142.254 59.6079C142.547 59.311 142.712 58.9084 142.712 58.4886C142.712 58.0689 142.547 57.6663 142.254 57.3693L141.564 56.6704L141.347 56.8855L142.037 57.5844C142.273 57.8236 142.406 58.148 142.406 58.4862C142.406 58.8244 142.273 59.1488 142.037 59.388C141.891 59.5351 141.776 59.7099 141.697 59.9024C141.618 60.0949 141.577 60.3013 141.577 60.5097C141.577 60.7181 141.618 60.9245 141.697 61.117C141.776 61.3095 141.891 61.4843 142.037 61.6314L142.689 62.2913L142.906 62.0469ZM162.785 58.9921L162.134 58.3273C162.017 58.2093 161.924 58.0691 161.861 57.9148C161.798 57.7605 161.765 57.5951 161.765 57.428C161.765 57.2609 161.798 57.0955 161.861 56.9412C161.924 56.7869 162.017 56.6467 162.134 56.5287C162.427 56.2309 162.592 55.8275 162.592 55.4069C162.592 54.9864 162.427 54.583 162.134 54.2852L161.444 53.5912L161.226 53.8111L161.916 54.5101C162.153 54.7493 162.285 55.0736 162.285 55.4118C162.285 55.75 162.153 56.0744 161.916 56.3136C161.625 56.6112 161.461 57.0135 161.461 57.4329C161.461 57.8523 161.625 58.2546 161.916 58.5522L162.573 59.2169L162.785 58.9921ZM141.067 92.7856L140.416 92.1209C140.299 92.0028 140.206 91.8627 140.143 91.7083C140.08 91.554 140.047 91.3886 140.047 91.2215C140.047 91.0545 140.08 90.8891 140.143 90.7347C140.206 90.5804 140.299 90.4402 140.416 90.3222C140.709 90.0244 140.873 89.621 140.873 89.2005C140.873 88.7799 140.709 88.3765 140.416 88.0788L139.725 87.3798L139.508 87.5998L140.198 88.2987C140.434 88.5379 140.567 88.8623 140.567 89.2005C140.567 89.5387 140.434 89.8631 140.198 90.1023C139.907 90.3998 139.743 90.8022 139.743 91.2215C139.743 91.6409 139.907 92.0433 140.198 92.3408L140.85 93.0056L141.067 92.7856ZM172.143 108.109C172.379 107.871 172.699 107.738 173.031 107.738C173.364 107.738 173.683 107.871 173.919 108.109C174.213 108.406 174.612 108.572 175.027 108.572C175.442 108.572 175.841 108.406 176.135 108.109L176.825 107.41L176.608 107.195L175.917 107.893C175.68 108.13 175.36 108.263 175.027 108.263C174.694 108.263 174.374 108.13 174.137 107.893C173.992 107.746 173.819 107.629 173.63 107.549C173.44 107.469 173.237 107.428 173.031 107.428C172.826 107.428 172.623 107.469 172.433 107.549C172.243 107.629 172.071 107.746 171.926 107.893L171.27 108.553L171.487 108.773L172.143 108.109ZM193.268 111.603L192.616 112.268L192.829 112.483L193.364 111.941L193.268 111.603ZM139.745 105.142C139.981 104.903 140.301 104.768 140.635 104.768C140.969 104.768 141.289 104.903 141.526 105.142C141.819 105.438 142.216 105.605 142.631 105.605C143.045 105.605 143.443 105.438 143.736 105.142L144.426 104.443L144.209 104.223L143.519 104.912C143.283 105.15 142.964 105.283 142.631 105.283C142.298 105.283 141.979 105.15 141.743 104.912C141.597 104.764 141.425 104.647 141.235 104.567C141.045 104.487 140.841 104.446 140.635 104.446C140.429 104.446 140.226 104.487 140.035 104.567C139.845 104.647 139.673 104.764 139.527 104.912L138.876 105.572L139.093 105.792L139.745 105.142ZM149.354 82.4286C149.59 82.1895 149.91 82.0552 150.244 82.0552C150.578 82.0552 150.898 82.1895 151.135 82.4286C151.429 82.7244 151.827 82.8903 152.242 82.8903C152.657 82.8903 153.055 82.7244 153.35 82.4286L154.04 81.7296L153.823 81.5097L153.133 82.2086C152.896 82.4465 152.576 82.58 152.242 82.58C151.909 82.58 151.589 82.4465 151.352 82.2086C151.207 82.0611 151.035 81.9441 150.845 81.8642C150.655 81.7844 150.452 81.7433 150.247 81.7433C150.041 81.7433 149.838 81.7844 149.648 81.8642C149.458 81.9441 149.286 82.0611 149.141 82.2086L148.495 82.8636L148.712 83.0835L149.354 82.4286ZM184.967 83.9878C184.668 83.8247 184.326 83.7632 183.991 83.8125C183.655 83.8618 183.344 84.0192 183.104 84.2615L182.462 84.9213L182.674 85.1364L183.326 84.4863C183.441 84.3657 183.579 84.2698 183.732 84.2043C183.884 84.1388 184.048 84.105 184.214 84.105C184.379 84.105 184.544 84.1388 184.696 84.2043C184.849 84.2698 184.987 84.3657 185.102 84.4863L185.165 84.5401C185.092 84.3494 185.029 84.1637 184.967 83.9829V83.9878ZM148.842 50.2626C149.078 50.0236 149.399 49.8893 149.733 49.8893C150.067 49.8893 150.387 50.0236 150.623 50.2626C150.768 50.4104 150.94 50.5275 151.13 50.6072C151.319 50.6869 151.523 50.7276 151.728 50.727C151.934 50.7276 152.137 50.6869 152.327 50.6072C152.517 50.5275 152.689 50.4104 152.833 50.2626L153.524 49.5637L153.306 49.3438L152.616 50.0427C152.5 50.1618 152.362 50.2563 152.209 50.3209C152.057 50.3855 151.894 50.4189 151.728 50.419C151.563 50.4189 151.399 50.3855 151.247 50.3209C151.095 50.2563 150.956 50.1618 150.84 50.0427C150.546 49.7469 150.147 49.5809 149.733 49.5809C149.318 49.5809 148.92 49.7469 148.625 50.0427L147.973 50.7074L148.191 50.9225L148.842 50.2626ZM183.693 102.527C183.694 102.19 183.826 101.868 184.061 101.63C184.297 101.392 184.615 101.257 184.947 101.256C185.363 101.255 185.761 101.087 186.055 100.789C186.349 100.492 186.515 100.088 186.516 99.6675V98.7339H186.207V99.6675C186.207 99.835 186.174 100.001 186.111 100.156C186.048 100.31 185.955 100.451 185.838 100.57C185.721 100.688 185.582 100.782 185.429 100.846C185.277 100.91 185.113 100.943 184.947 100.943C184.533 100.944 184.136 101.112 183.843 101.408C183.55 101.705 183.385 102.107 183.384 102.527V103.504H183.693V102.527ZM153.982 110.738C153.982 110.4 154.115 110.075 154.351 109.836C154.587 109.597 154.908 109.462 155.242 109.462C155.656 109.462 156.054 109.296 156.347 108.999C156.641 108.702 156.805 108.299 156.805 107.879V106.94H156.501V107.845C156.501 108.183 156.369 108.507 156.132 108.747C155.896 108.986 155.576 109.12 155.242 109.12C154.827 109.12 154.429 109.287 154.136 109.584C153.843 109.881 153.678 110.284 153.678 110.704V111.681H153.982V110.738ZM161.246 88.1619C161.247 87.8244 161.38 87.5011 161.616 87.263C161.852 87.0248 162.172 86.891 162.505 86.8911C162.92 86.8898 163.318 86.7218 163.611 86.4241C163.904 86.1263 164.069 85.723 164.069 85.3025V84.369H163.765V85.3025C163.765 85.6409 163.632 85.9654 163.396 86.2046C163.16 86.4438 162.839 86.5782 162.505 86.5782C162.091 86.5795 161.694 86.7468 161.401 87.0435C161.108 87.3402 160.943 87.7423 160.942 88.1619V89.1394H161.246V88.1619ZM132.481 94.9753V95.9088C132.484 95.9593 132.484 96.0099 132.481 96.0604C132.563 96.1826 132.645 96.295 132.722 96.3976C132.773 96.2397 132.799 96.0748 132.8 95.9088V94.9753H132.481ZM150 68.7919C150.003 68.4548 150.137 68.1323 150.373 67.8944C150.608 67.6565 150.927 67.5224 151.26 67.5211C151.675 67.5198 152.073 67.3519 152.366 67.0541C152.659 66.7564 152.824 66.3531 152.824 65.9326V64.9795H152.52V65.9131C152.52 66.2514 152.387 66.5759 152.151 66.8151C151.915 67.0543 151.594 67.1887 151.26 67.1887C150.846 67.19 150.449 67.3573 150.156 67.654C149.863 67.9507 149.698 68.3527 149.696 68.7724V69.7499H150V68.7919ZM130.155 85.0093C129.923 85.0107 129.696 84.9463 129.499 84.8236C129.499 84.936 129.499 85.0533 129.499 85.1657C129.707 85.2641 129.934 85.3157 130.165 85.3172H131.086V85.0093H130.155ZM174.074 61.0596V61.6852C174.074 62.0235 173.941 62.348 173.705 62.5872C173.469 62.8265 173.148 62.9609 172.814 62.9609C172.399 62.9622 172.001 63.1301 171.708 63.4279C171.415 63.7256 171.25 64.1289 171.25 64.5494V65.5269H171.555V64.5494C171.555 64.3819 171.587 64.216 171.65 64.0612C171.714 63.9064 171.806 63.7658 171.923 63.6473C172.04 63.5289 172.179 63.4349 172.332 63.3708C172.485 63.3067 172.649 63.2737 172.814 63.2737C173.23 63.2724 173.628 63.1046 173.922 62.807C174.216 62.5094 174.381 62.1061 174.383 61.6852V61.5434C174.248 61.3626 174.151 61.2013 174.045 61.04L174.074 61.0596Z" fill="white"/>
<path d="M152.442 94.9902C149.687 94.9339 146.932 95.0858 144.199 95.4447C142.843 95.6451 141.506 95.9042 140.169 96.1926C139.498 96.3392 138.832 96.4565 138.161 96.5738C137.46 96.7186 136.744 96.7761 136.028 96.7449C136.015 96.7449 136.003 96.75 135.994 96.7592C135.985 96.7683 135.98 96.7808 135.98 96.7938C135.98 96.8067 135.985 96.8191 135.994 96.8283C136.003 96.8375 136.015 96.8426 136.028 96.8426C136.694 96.9485 137.367 97.0106 138.041 97.0284C138.695 97.0202 139.348 96.9679 139.995 96.8719C141.371 96.6862 142.742 96.4321 144.117 96.2317C146.887 95.826 149.662 95.4203 152.457 95.2199C152.582 95.2101 152.573 94.9902 152.442 94.9902Z" fill="#263238"/>
<path d="M158.924 98.1767C156.702 97.6888 154.454 97.3297 152.191 97.1014C151.062 96.9938 149.933 96.9498 148.813 96.9352C148.268 96.9352 147.727 96.9352 147.182 96.9352C146.636 96.9352 145.99 97.0378 145.391 97.0378C145.328 97.0378 145.319 97.1356 145.391 97.1405C145.956 97.1405 146.52 97.2627 147.08 97.3115L148.774 97.4533C149.904 97.5461 151.033 97.6537 152.153 97.7416C154.416 97.9127 156.67 98.1033 158.909 98.3526C159.03 98.377 159.04 98.2011 158.924 98.1767Z" fill="#263238"/>
<path d="M157.887 48.4592C157.814 49.73 154.026 57.9462 148.456 58.6598C146.646 58.8895 144.388 49.6664 144.388 49.6664L144.098 48.9626L140.058 39.0797L150.647 29.2212L152.196 27.8917C152.196 27.8917 153.128 30.6679 154.248 34.1382L154.412 34.627C154.479 34.8225 154.547 35.0033 154.6 35.1891C154.774 35.7072 154.952 36.235 155.116 36.7629C155.242 37.1637 155.367 37.5547 155.488 37.9848L155.86 39.2507C157.047 43.4835 157.911 47.9215 157.887 48.4592Z" fill="#AD6359"/>
<path d="M154.248 34.1382C153.722 37.2061 152.543 40.1214 150.793 42.6814C149.043 45.2415 146.763 47.3848 144.113 48.9626L140.073 39.0797L150.662 29.2212L152.211 27.8917C152.211 27.8917 153.128 30.6679 154.248 34.1382Z" fill="#263238"/>
<path d="M122.736 23.9571C122.896 42.7258 134.015 44.7493 138.011 44.7102C141.641 44.676 153.991 44.0895 155.748 25.3989C157.505 6.70837 148.837 0.852903 140.536 0.471663C132.234 0.0904223 122.577 5.20295 122.736 23.9571Z" fill="#AD6359"/>
<path d="M126.12 21.9874C126.549 21.8994 126.935 21.7479 127.35 21.6208C127.8 21.5514 128.215 21.3351 128.533 21.0049C128.612 20.8815 128.648 20.7352 128.637 20.5885C128.626 20.4419 128.567 20.3031 128.47 20.1936C128.244 20.0065 127.973 19.8838 127.684 19.8383C127.396 19.7928 127.101 19.826 126.829 19.9345C126.243 20.0667 125.727 20.4152 125.381 20.9121C125.309 21.0304 125.272 21.1676 125.276 21.3068C125.28 21.446 125.323 21.581 125.402 21.6953C125.48 21.8096 125.59 21.8982 125.718 21.95C125.845 22.0019 125.985 22.0149 126.12 21.9874Z" fill="#263238"/>
<path d="M139.406 22.9943C138.98 22.9636 138.557 22.9081 138.137 22.8281C137.681 22.8335 137.236 22.6856 136.872 22.4078C136.775 22.2973 136.717 22.1573 136.706 22.0096C136.696 21.862 136.734 21.7149 136.815 21.5915C137.008 21.3714 137.255 21.2077 137.532 21.1174C137.809 21.0271 138.104 21.0136 138.388 21.0783C138.984 21.1216 139.543 21.3841 139.961 21.8164C140.05 21.9213 140.107 22.0501 140.125 22.1871C140.143 22.3242 140.121 22.4635 140.062 22.5883C140.004 22.7131 139.91 22.8178 139.794 22.8899C139.677 22.962 139.543 22.9982 139.406 22.9943Z" fill="#263238"/>
<path d="M136.868 25.9173C136.868 25.8684 136.97 25.971 136.974 26.0248C137.003 27.3054 137.25 28.7619 138.422 29.1236C138.456 29.1236 138.456 29.1969 138.422 29.1969C137.003 29.0747 136.694 27.1343 136.868 25.9173Z" fill="#263238"/>
<path d="M137.92 24.5241C139.942 24.2504 140.333 28.3609 138.451 28.6102C136.569 28.8595 136.231 24.7538 137.92 24.5241Z" fill="#263238"/>
<path d="M138.74 24.6611C139.112 24.8615 139.498 25.2378 139.933 25.2427C140.367 25.2476 140.763 24.7784 141.047 24.3336C141.076 24.2847 141.115 24.3336 141.12 24.3727C141.207 25.1596 140.98 25.9954 140.155 26.1909C139.329 26.3864 138.794 25.7266 138.528 24.9543C138.48 24.8126 138.586 24.5829 138.74 24.6611Z" fill="#263238"/>
<path d="M129.334 26.8115C129.334 26.7626 129.247 26.8848 129.257 26.9386C129.488 28.1947 129.541 29.6757 128.48 30.2671C128.446 30.2671 128.48 30.3502 128.48 30.3355C129.845 29.9249 129.754 27.965 129.334 26.8115Z" fill="#263238"/>
<path d="M128.022 25.663C125.995 25.8194 126.453 29.9202 128.335 29.7736C130.217 29.627 129.725 25.5311 128.022 25.663Z" fill="#263238"/>
<path d="M127.259 25.9707C126.931 26.2444 126.627 26.6941 126.207 26.787C125.787 26.8798 125.3 26.5035 124.933 26.1271C124.894 26.088 124.86 26.1271 124.865 26.1858C124.942 26.9727 125.348 27.745 126.178 27.7645C126.945 27.7645 127.413 27.0265 127.52 26.2151C127.534 26.0636 127.385 25.8632 127.259 25.9707Z" fill="#263238"/>
<path d="M138.388 35.7805C138.171 36.1471 137.977 36.6212 137.543 36.758C137.088 36.872 136.613 36.8837 136.153 36.7923C136.143 36.7885 136.132 36.7887 136.122 36.7927C136.112 36.7967 136.104 36.8042 136.099 36.8139C136.095 36.8236 136.093 36.8347 136.096 36.8451C136.099 36.8556 136.106 36.8646 136.115 36.8705C136.351 37.0679 136.637 37.1967 136.94 37.2432C137.243 37.2897 137.554 37.2521 137.838 37.1344C138.07 37.0047 138.26 36.8074 138.381 36.5678C138.502 36.3283 138.55 36.0575 138.518 35.7903C138.518 35.7267 138.421 35.7267 138.388 35.7805Z" fill="#263238"/>
<path d="M131.998 32.0217C131.998 32.0217 132.114 33.9475 132.288 34.8273C132.288 34.9104 132.519 34.9104 132.818 34.8664C132.818 34.8664 132.843 34.8664 132.857 34.8664C133.632 34.8524 134.389 34.623 135.044 34.2033C135.7 33.7835 136.229 33.1895 136.573 32.4861C136.617 32.3883 136.486 32.3199 136.419 32.3883C135.459 33.3843 134.206 34.0378 132.847 34.2505C132.741 34.0208 132.765 30.9513 132.625 30.966C131.96 31.1641 131.324 31.4518 130.734 31.8213C130.386 27.8183 130.671 23.7957 130.251 19.8171C130.251 19.7847 130.238 19.7537 130.216 19.7307C130.193 19.7078 130.162 19.6949 130.13 19.6949C130.098 19.6949 130.068 19.7078 130.045 19.7307C130.022 19.7537 130.01 19.7847 130.01 19.8171C129.416 24.0108 129.72 28.615 129.976 32.7647C130.014 33.2681 131.679 32.2417 131.998 32.0217Z" fill="#263238"/>
<path d="M133.113 34.4215C133.719 35.0023 134.462 35.4162 135.27 35.6238C135.713 35.722 136.175 35.6793 136.593 35.5016C137.505 35.096 137.389 34.2113 137.1 33.483C136.942 33.0966 136.74 32.7307 136.496 32.3931C135.611 33.4175 134.426 34.1282 133.113 34.4215Z" fill="#263238"/>
<path d="M135.27 35.624C135.713 35.7221 136.175 35.6794 136.593 35.5018C137.505 35.0961 137.389 34.2114 137.099 33.4832C136.1 33.752 135.198 34.6122 135.27 35.624Z" fill="#FF98B9"/>
<path d="M156.661 24.7148C153.639 25.6532 151.487 19.2894 151.487 19.2894C151.487 19.2894 145.246 20.7264 141.168 12.0996C141.168 12.0996 142.24 16.3031 145.599 18.9913C145.599 18.9913 134.325 20.3159 127.621 12.0361C127.621 12.0361 130.517 16.3715 132.635 17.6667C132.635 17.6667 127.722 17.4126 124.629 14.128C124.629 14.128 123.895 19.9542 122.742 21.7773C122.742 21.7773 118.881 2.15806 137.182 0.173656C137.182 0.173656 148.523 -1.61524 154.522 6.42991C160.521 14.4751 156.661 24.7148 156.661 24.7148Z" fill="#263238"/>
<path d="M152.838 26.8702C152.838 26.8702 156.317 20.6482 159.068 21.8457C161.819 23.0432 159.585 31.797 156.626 33.2536C156.259 33.4671 155.854 33.6031 155.433 33.6533C155.013 33.7036 154.587 33.6671 154.181 33.5461C153.775 33.425 153.398 33.2219 153.071 32.949C152.745 32.6762 152.477 32.3391 152.283 31.9583L152.838 26.8702Z" fill="#AD6359"/>
<path d="M158.345 24.3384C158.393 24.3384 158.408 24.397 158.345 24.4215C156.274 25.5114 155.333 27.6425 154.735 29.7979C155.299 28.9279 156.13 28.4049 157.269 29.0697C157.28 29.0788 157.289 29.0915 157.292 29.1058C157.296 29.1202 157.295 29.1354 157.29 29.1492C157.284 29.163 157.275 29.1747 157.262 29.1824C157.25 29.19 157.235 29.1934 157.22 29.1919C156.831 29.1075 156.425 29.1472 156.059 29.3056C155.692 29.464 155.383 29.7333 155.174 30.0765C154.825 30.6524 154.54 31.2654 154.325 31.9045C154.242 32.1098 153.885 32.0365 153.938 31.8068C153.937 31.7889 153.937 31.7709 153.938 31.753C153.659 28.9964 155.425 24.9054 158.345 24.3384Z" fill="#263238"/>
<path d="M156.183 33.4735C156.227 33.6716 156.212 33.8784 156.139 34.0677C156.067 34.257 155.941 34.4204 155.777 34.5372C155.613 34.654 155.419 34.719 155.219 34.7239C155.018 34.7288 154.821 34.6735 154.652 34.5649C154.482 34.4563 154.349 34.2993 154.267 34.1137C154.186 33.9282 154.161 33.7224 154.195 33.5224C154.23 33.3224 154.322 33.1372 154.46 32.9902C154.598 32.8432 154.776 32.7409 154.972 32.6964C155.102 32.6668 155.236 32.6634 155.367 32.6865C155.498 32.7095 155.624 32.7585 155.736 32.8307C155.849 32.9029 155.946 32.9968 156.023 33.1071C156.099 33.2174 156.154 33.3419 156.183 33.4735Z" fill="white"/>
<path d="M157.389 59.2856C150.251 71.8665 139.208 94.3401 136.39 96.4321C126.182 103.993 109.758 118.681 106.757 122.278C102.896 126.902 125.473 145.514 128.349 142.543C130.41 140.416 153.383 120.235 159.377 107.996C163.262 100.064 167.012 78.2303 169.064 64.0413C171.148 49.5737 162.804 49.7448 157.389 59.2856Z" fill="#AD6359"/>
<path d="M77.5964 150.294C80.0095 152.992 86.0713 146.384 86.0713 146.384C85.693 147.906 85.8518 149.514 86.5201 150.93C87.8136 153.374 92.1572 152.396 92.1572 152.396C92.0871 154.058 92.5144 155.702 93.3831 157.113C94.8551 159.317 99.3724 158.955 99.3724 158.955C100.143 160.516 101.444 161.743 103.036 162.411C107.355 164.029 112.92 159.674 116.486 156.942C120.053 154.21 127.635 143.075 129.295 141.101L112.172 117.777C112.172 117.777 92.7412 125.426 89.0056 129.238C85.8493 132.449 73.9043 146.174 77.5964 150.294Z" fill="#AD6359"/>
<path d="M86.0574 146.272C88.596 142.044 92.1337 138.452 95.5844 134.991C95.6616 134.913 95.7775 135.04 95.7003 135.113C92.2302 138.496 89.5709 142.904 86.2408 146.419C86.2195 146.435 86.1934 146.444 86.1667 146.443C86.1399 146.443 86.114 146.434 86.093 146.417C86.072 146.4 86.0571 146.377 86.0507 146.351C86.0442 146.324 86.0466 146.297 86.0574 146.272Z" fill="#263238"/>
<path d="M92.0271 152.029C92.6971 151.125 93.4807 150.314 94.3582 149.615C95.2414 148.818 96.1391 148.041 97.0464 147.274C98.8611 145.739 100.714 144.251 102.606 142.811C102.688 142.748 102.809 142.86 102.722 142.933C100.912 144.463 99.1314 146.022 97.3843 147.63C96.5156 148.437 95.6468 149.248 94.7878 150.074C94.026 150.9 93.1762 151.638 92.254 152.274C92.2207 152.29 92.1832 152.295 92.147 152.288C92.1107 152.281 92.0775 152.263 92.0523 152.236C92.027 152.208 92.011 152.174 92.0064 152.137C92.0019 152.1 92.0092 152.062 92.0271 152.029Z" fill="#263238"/>
<path d="M99.4496 158.882C99.9323 158.041 100.922 157.416 101.66 156.82C102.505 156.14 103.34 155.451 104.175 154.762C105.844 153.379 107.514 151.995 109.131 150.558C109.213 150.485 109.329 150.607 109.252 150.681C107.611 152.147 105.994 153.643 104.339 155.104C103.528 155.818 102.714 156.528 101.897 157.235C101.202 157.836 100.396 158.667 99.5124 158.97C99.5012 158.973 99.4895 158.972 99.4787 158.968C99.468 158.964 99.4586 158.957 99.4519 158.947C99.4452 158.938 99.4414 158.927 99.441 158.915C99.4406 158.903 99.4436 158.892 99.4496 158.882Z" fill="#263238"/>
<path d="M107.471 119.199L134.338 141.003C134.338 141.003 154.498 118.148 160.4 108.348C162.866 104.257 167.895 74.7647 169.681 64.9649C171.916 52.7457 164.594 44.4366 157.307 57.9511C152.181 67.4479 136.988 94.0663 136.105 94.7701C135.222 95.4739 107.471 119.199 107.471 119.199Z" fill="#498AEC"/>
<path d="M164.865 73.4352H163.938C163.523 73.4352 163.125 73.2686 162.831 72.9717C162.537 72.6749 162.371 72.2721 162.37 71.8516C162.37 71.5141 162.238 71.1904 162.003 70.9513C161.768 70.7122 161.448 70.5772 161.115 70.5759H160.15V70.268H161.115C161.529 70.2693 161.926 70.4366 162.219 70.7333C162.512 71.03 162.678 71.432 162.679 71.8516C162.677 72.0204 162.708 72.1878 162.771 72.3443C162.833 72.5008 162.925 72.6432 163.043 72.7632C163.16 72.8832 163.299 72.9785 163.453 73.0435C163.607 73.1085 163.772 73.142 163.938 73.142H164.86L164.865 73.4352ZM153.108 98.035H152.187C151.852 98.035 151.532 97.9006 151.296 97.6614C151.06 97.4222 150.927 97.0977 150.927 96.7593C150.926 96.3397 150.76 95.9377 150.467 95.641C150.175 95.3443 149.778 95.177 149.363 95.1757H148.398V95.4885H149.363C149.696 95.4885 150.016 95.6223 150.252 95.8605C150.488 96.0986 150.622 96.4219 150.623 96.7593C150.623 97.1798 150.787 97.5831 151.081 97.8809C151.374 98.1786 151.771 98.3466 152.187 98.3478H153.108V98.035ZM135.946 117.542H135.02C134.685 117.542 134.365 117.407 134.129 117.168C133.893 116.929 133.76 116.604 133.76 116.266C133.759 115.847 133.593 115.444 133.301 115.148C133.008 114.851 132.611 114.684 132.196 114.683H131.231V114.99H132.196C132.53 114.99 132.851 115.125 133.087 115.364C133.323 115.603 133.456 115.928 133.456 116.266C133.456 116.686 133.621 117.089 133.914 117.386C134.207 117.683 134.605 117.85 135.02 117.85H135.946V117.542ZM130.676 136.364H129.754C129.42 136.364 129.1 136.23 128.863 135.991C128.627 135.751 128.494 135.427 128.494 135.089C128.493 134.669 128.328 134.267 128.035 133.97C127.742 133.674 127.345 133.506 126.931 133.505H125.966V133.813H126.931C127.264 133.814 127.584 133.949 127.82 134.188C128.056 134.427 128.189 134.751 128.19 135.089C128.19 135.509 128.355 135.911 128.648 136.208C128.942 136.505 129.339 136.672 129.754 136.672H130.676V136.364ZM162.785 58.9921L162.133 58.3274C162.017 58.2093 161.924 58.0692 161.861 57.9148C161.798 57.7605 161.765 57.5951 161.765 57.428C161.765 57.261 161.798 57.0955 161.861 56.9412C161.924 56.7869 162.017 56.6467 162.133 56.5287C162.427 56.2309 162.591 55.8275 162.591 55.407C162.591 54.9864 162.427 54.583 162.133 54.2852L161.443 53.5912L161.226 53.8111L161.916 54.5101C162.152 54.7493 162.285 55.0737 162.285 55.4119C162.285 55.7501 162.152 56.0744 161.916 56.3136C161.625 56.6112 161.461 57.0136 161.461 57.4329C161.461 57.8523 161.625 58.2546 161.916 58.5522L162.573 59.2169L162.785 58.9921ZM140.435 92.1258C140.199 91.8866 140.066 91.5622 140.066 91.224C140.066 90.8858 140.199 90.5615 140.435 90.3222C140.728 90.0245 140.893 89.6211 140.893 89.2005C140.893 88.78 140.728 88.3766 140.435 88.0788L140.319 87.9615C140.271 88.0544 140.213 88.1472 140.16 88.2401L140.217 88.2987C140.451 88.5392 140.582 88.8631 140.582 89.2005C140.582 89.5379 140.451 89.8618 140.217 90.1023C140.072 90.249 139.956 90.4234 139.877 90.6155C139.799 90.8076 139.758 91.0135 139.758 91.2216C139.758 91.4296 139.799 91.6356 139.877 91.8277C139.956 92.0197 140.072 92.1942 140.217 92.3409L140.869 93.0007L141.086 92.7856L140.435 92.1258ZM139.744 105.142C139.981 104.903 140.301 104.768 140.635 104.768C140.969 104.768 141.289 104.903 141.525 105.142C141.819 105.438 142.216 105.605 142.631 105.605C143.045 105.605 143.443 105.438 143.736 105.142L144.426 104.443L144.209 104.223L143.519 104.912C143.283 105.15 142.963 105.283 142.631 105.283C142.298 105.283 141.979 105.15 141.743 104.912C141.597 104.764 141.425 104.647 141.235 104.567C141.045 104.487 140.841 104.446 140.635 104.446C140.429 104.446 140.225 104.487 140.035 104.567C139.845 104.647 139.673 104.764 139.527 104.912L138.876 105.572L139.093 105.792L139.744 105.142ZM149.354 82.4286C149.59 82.1895 149.91 82.0552 150.244 82.0552C150.578 82.0552 150.898 82.1895 151.134 82.4286C151.429 82.7244 151.827 82.8904 152.242 82.8904C152.657 82.8904 153.055 82.7244 153.35 82.4286L154.04 81.7297L153.823 81.5097L153.133 82.2087C152.896 82.4465 152.576 82.58 152.242 82.58C151.909 82.58 151.588 82.4465 151.352 82.2087C151.207 82.0612 151.035 81.9441 150.845 81.8643C150.655 81.7844 150.452 81.7433 150.246 81.7433C150.041 81.7433 149.838 81.7844 149.648 81.8643C149.458 81.9441 149.286 82.0612 149.141 82.2087L148.494 82.8636L148.712 83.0836L149.354 82.4286ZM146.429 119.184C146.669 118.953 146.988 118.824 147.319 118.824C147.651 118.824 147.969 118.953 148.21 119.184C148.504 119.481 148.902 119.648 149.317 119.648C149.733 119.648 150.131 119.481 150.425 119.184L151.11 118.49L150.898 118.27L150.208 118.969C149.97 119.206 149.651 119.338 149.317 119.338C148.984 119.338 148.664 119.206 148.427 118.969C148.134 118.672 147.736 118.506 147.322 118.506C146.907 118.506 146.51 118.672 146.216 118.969L145.56 119.629L145.777 119.849L146.429 119.184ZM153.982 110.724C153.982 110.385 154.115 110.061 154.351 109.821C154.587 109.582 154.908 109.448 155.242 109.448C155.656 109.448 156.054 109.281 156.347 108.984C156.641 108.687 156.805 108.284 156.805 107.864V106.926H156.501V107.845C156.501 108.183 156.369 108.507 156.132 108.747C155.896 108.986 155.576 109.12 155.242 109.12C154.827 109.12 154.429 109.287 154.136 109.584C153.843 109.881 153.678 110.284 153.678 110.704V111.681H153.982V110.724ZM136.95 130.328C136.95 129.99 137.083 129.665 137.319 129.426C137.555 129.187 137.876 129.052 138.21 129.052C138.624 129.052 139.022 128.886 139.315 128.589C139.609 128.292 139.773 127.889 139.773 127.469V126.53H139.469V127.469C139.469 127.636 139.437 127.802 139.373 127.957C139.31 128.112 139.217 128.252 139.1 128.371C138.983 128.489 138.845 128.583 138.692 128.647C138.539 128.711 138.375 128.744 138.21 128.744C137.795 128.744 137.397 128.911 137.104 129.208C136.811 129.505 136.646 129.908 136.646 130.328V131.306H136.95V130.328ZM161.245 88.1374C161.247 87.8 161.38 87.4767 161.616 87.2385C161.852 87.0004 162.172 86.8666 162.505 86.8666C162.92 86.8653 163.318 86.6974 163.611 86.3997C163.904 86.1019 164.069 85.6986 164.069 85.2781V84.3446H163.765V85.2781C163.765 85.6165 163.632 85.9409 163.396 86.1802C163.16 86.4194 162.839 86.5538 162.505 86.5538C162.091 86.5551 161.694 86.7224 161.401 87.0191C161.108 87.3158 160.943 87.7178 160.941 88.1374V89.115H161.245V88.1374ZM152.22 67.1643C152.545 66.9081 152.757 66.5321 152.809 66.1184L152.22 67.1643ZM120.367 110.587C120.034 110.587 119.714 110.453 119.478 110.215C119.242 109.977 119.109 109.653 119.107 109.316C119.11 109.298 119.11 109.28 119.107 109.262C119.011 109.34 118.914 109.418 118.823 109.506C118.869 109.89 119.052 110.242 119.337 110.498C119.623 110.754 119.991 110.895 120.372 110.895H121.294V110.587H120.367ZM120.275 124.81C120.512 124.571 120.832 124.436 121.166 124.436C121.5 124.436 121.82 124.571 122.056 124.81C122.351 125.104 122.748 125.269 123.161 125.269C123.575 125.269 123.972 125.104 124.267 124.81L124.957 124.111L124.74 123.891L124.049 124.59C123.812 124.827 123.492 124.959 123.159 124.959C122.826 124.959 122.506 124.827 122.269 124.59C122.124 124.442 121.952 124.325 121.762 124.246C121.572 124.166 121.369 124.125 121.163 124.125C120.958 124.125 120.755 124.166 120.565 124.246C120.375 124.325 120.203 124.442 120.058 124.59L119.407 125.25L119.619 125.47L120.275 124.81ZM112.013 116.085V117.019C112.013 117.186 111.98 117.352 111.917 117.507C111.854 117.662 111.761 117.802 111.644 117.921C111.527 118.039 111.388 118.133 111.235 118.197C111.082 118.262 110.919 118.295 110.753 118.295C110.339 118.296 109.942 118.463 109.649 118.76C109.356 119.056 109.191 119.459 109.189 119.878V120.587L109.494 120.831V119.878C109.495 119.54 109.628 119.216 109.864 118.978C110.1 118.739 110.419 118.604 110.753 118.602C111.168 118.602 111.566 118.436 111.859 118.139C112.152 117.842 112.317 117.439 112.317 117.019V116.085H112.013Z" fill="white"/>
<path d="M149.189 123.402C152.713 118.612 156.429 113.93 159.605 108.905C161.327 105.831 161.984 102.239 162.877 98.8318C164.831 90.7378 167.08 78.9926 168.789 70.7227C167.631 80.255 165.971 89.718 163.818 99.0713C162.993 102.273 162.259 105.577 160.792 108.568C157.481 113.945 153.263 118.656 149.209 123.412L149.189 123.402Z" fill="#263238"/>
<path d="M167.365 78.8802C168.065 76.9545 169.026 75.1314 169.508 73.1323C169.354 75.1949 168.36 77.1109 167.365 78.8802Z" fill="#263238"/>
<path d="M116.844 114.883C127.09 122.215 136.781 131.501 138.562 132.997C138.649 133.065 138.523 133.197 138.441 133.119C136.752 131.56 124.556 122.166 116.694 115.035C116.641 114.937 116.743 114.81 116.844 114.883Z" fill="#263238"/>
<path d="M133.712 96.8083C134.836 95.7867 136.236 94.99 136.723 93.4602C137.409 92.0819 138.105 90.71 138.813 89.3447C143.113 81.1872 147.611 73.1322 152.606 65.395C147.901 75.0803 142.675 84.4968 136.95 93.6019C136.858 93.7339 136.25 94.6919 136.159 94.8141C135.391 95.5326 134.527 96.1631 133.712 96.818V96.8083Z" fill="#263238"/>
<path d="M151.013 66.4509C150.463 68.2203 149.681 69.9163 149.411 71.7541C149.343 69.8821 150.164 68.0736 151.013 66.4509Z" fill="#263238"/>
<path d="M201.429 164.982C136.906 165.285 64.5222 165.285 0 164.982C64.5222 164.684 136.906 164.684 201.429 164.982Z" fill="#263238"/>
<path d="M46.66 110.587C48.8993 126.467 54.4109 146.795 59.604 151.243C63.7932 154.83 86.6937 162.484 87.9872 162.729C91.187 163.335 99.4737 140.793 96.1918 139.571C92.0798 138.031 72.0991 135.695 71.0567 134.409C70.0142 133.124 63.5519 122.454 56.2546 110.171C51.2208 101.681 45.2796 100.738 46.66 110.587Z" fill="#F7A9A0"/>
<path d="M85.5117 161.243C85.8785 161.473 91.1054 164.713 94.4017 165.994C96.8534 166.947 104.001 169.498 105.304 166.864C106.197 165.07 102.172 163.066 99.3534 161.59C97.8718 160.808 96.1102 159.019 96.6459 158.056C97.6112 156.375 101.395 158.467 103.885 160.221C108.673 163.609 114.933 169.508 118.224 167.186C119.464 166.311 118.263 164.415 116.434 162.499C119.469 164.806 122.746 166.766 124.156 165.847C124.971 165.324 125.073 164.518 124.725 163.56C125.69 163.965 126.564 163.98 127.23 163.379C128.359 162.362 127.988 160.691 126.989 158.926C127.186 158.92 127.379 158.866 127.553 158.77C127.726 158.674 127.875 158.539 127.988 158.374C130.473 155.158 120.266 144.444 116.511 143.222C105.507 139.561 93.4799 139.527 93.4799 139.527C88.7646 142.709 85.5021 161.233 85.5117 161.243Z" fill="#F7A9A0"/>
<path d="M102.891 152.181C105.525 152.832 107.993 154.043 110.13 155.734C112.818 157.88 114.522 160.27 116.723 162.714C116.781 162.778 116.684 162.875 116.626 162.807C115.579 161.644 111.197 157.235 110.053 156.223C107.99 154.355 105.534 152.987 102.871 152.225L102.891 152.181Z" fill="#263238"/>
<path d="M105.386 147.533C108.282 148.598 111.226 149.683 113.846 151.331C116.713 153.134 118.851 155.857 120.955 158.476C122.22 160.057 123.449 161.662 124.643 163.291C124.691 163.359 124.599 163.452 124.546 163.384C122.413 160.676 120.201 158.035 117.91 155.461C115.795 153.059 113.232 151.105 110.367 149.713C108.73 148.916 107.041 148.247 105.352 147.582C105.338 147.572 105.352 147.518 105.386 147.533Z" fill="#263238"/>
<path d="M108.89 143.579C111.708 144.419 114.165 145.143 116.573 146.917C119.763 149.263 122.722 153.012 123.76 154.336C124.903 155.803 125.999 157.308 127.07 158.828C127.114 158.892 127.008 158.97 126.964 158.906C124.495 155.563 121.816 152.384 118.943 149.39C117.599 147.943 116.04 146.716 114.324 145.754C112.575 144.88 110.755 144.159 108.885 143.598C108.885 143.598 108.875 143.579 108.89 143.579Z" fill="#263238"/>
<path opacity="0.1" d="M87.0172 162.445C82.355 161.003 63.3685 154.473 59.6137 151.243C54.4207 146.795 48.9091 126.467 46.6697 110.587C45.8058 104.458 47.7797 102.507 50.6079 103.954L87.0172 162.445Z" fill="black"/>
<path d="M51.1924 137.493L68.5669 127.645C68.5669 127.645 61.8101 115.479 54.8748 106.31C47.9395 97.1405 45.174 102.4 46.1876 112.361C47.2011 122.322 51.1924 137.493 51.1924 137.493Z" fill="#498AEC"/>
<path d="M65.9069 125.181C60.9277 127.677 56.0804 130.435 51.3847 133.442C51.3123 133.486 51.3847 133.603 51.4571 133.564C56.4408 131.073 61.293 128.321 65.9938 125.318C66.0662 125.269 65.989 125.142 65.9069 125.181Z" fill="#263238"/>
<path opacity="0.1" d="M65.4825 129.385L51.1872 137.494C51.1872 137.494 47.1428 122.303 46.1775 112.361C45.5453 106.071 46.4237 101.652 48.914 101.574L65.4825 129.385Z" fill="black"/>
<path d="M2.3457 165.031H68.06C68.8853 164.405 61.2743 119.316 51.5976 103.749C49.7878 100.816 41.115 96.3879 34.3245 101.657C13.8418 117.586 1.5735 164.053 2.3457 165.031Z" fill="#498AEC"/>
<path d="M32.4515 103.534C16.8385 121.462 -2.96358 154.855 0.458232 161.478C4.80186 169.855 34.7874 168.32 41.7855 166.658C44.7729 165.955 34.4495 139.776 31.2449 140.441C28.4505 141.037 26.0422 141.633 25.936 141.242C25.8299 140.851 34.1841 128.363 39.2613 110.382C42.7314 98.1281 35.7623 99.7263 32.4515 103.534Z" fill="#F7A9A0"/>
<path d="M12.5194 149.478C14.4016 147.01 20.0918 142.518 25.9364 141.34C26.0715 141.34 26.1632 141.399 26.0474 141.453C21.2452 143.58 16.7156 146.29 12.558 149.522C12.5339 149.547 12.5001 149.503 12.5194 149.478Z" fill="#263238"/>
<path d="M53.1997 128.011C53.1997 128.011 49.469 123.642 52.6206 121.31C55.7721 118.979 58.7499 123.901 58.7499 123.901L53.1997 128.011Z" fill="#455A64"/>
<path d="M82.2874 156.487L83.1175 162.098L83.4023 163.941L81.742 163.12L76.7324 160.622L53.0837 127.874L58.6339 123.764L82.2826 156.511L82.2874 156.487Z" fill="#455A64"/>
<path d="M83.1179 162.079L83.4026 163.921L81.7375 163.1L83.1179 162.079Z" fill="#37474F"/>
<path d="M58.952 123.2L52.4697 128.002L53.4099 129.303L59.8922 124.502L58.952 123.2Z" fill="#37474F"/>
<path d="M59.9923 124.64L53.51 129.441L54.4502 130.743L60.9325 125.942L59.9923 124.64Z" fill="#37474F"/>
<path d="M54.4546 130.739L56.5444 129.189L63.9527 141.902L63.1515 142.425L54.4546 130.739Z" fill="#37474F"/>
<path d="M73.5761 141.932C73.5085 145.241 65.4728 144.375 65.4728 144.375C66.6279 145.192 67.4646 146.392 67.8377 147.768C68.383 150.211 64.8261 152.166 64.8261 152.166C65.8485 153.265 66.5211 154.65 66.7566 156.14C67.0461 158.54 63.7305 161.028 63.7305 161.028C64.117 162.565 63.9458 164.192 63.2479 165.613C61.2402 169.327 54.855 169.704 50.8058 169.982C46.7566 170.261 34.995 167.211 32.6929 166.854L30.7334 140.514C30.7334 140.514 48.5616 134.023 53.3734 134.38C57.4081 134.683 73.6871 136.878 73.5761 141.932Z" fill="#F7A9A0"/>
<path d="M65.4055 144.288C61.1729 142.919 56.6217 142.582 52.2298 142.303C52.2093 142.303 52.1897 142.311 52.1752 142.326C52.1607 142.341 52.1526 142.361 52.1526 142.381C52.1526 142.402 52.1607 142.422 52.1752 142.437C52.1897 142.451 52.2093 142.46 52.2298 142.46C56.6024 142.684 61.0232 144.097 65.3765 144.498C65.4017 144.497 65.4258 144.487 65.4446 144.47C65.4634 144.453 65.4756 144.43 65.4791 144.405C65.4826 144.38 65.4771 144.354 65.4636 144.333C65.4501 144.311 65.4295 144.295 65.4055 144.288Z" fill="#263238"/>
<path d="M64.7152 151.834C63.7248 151.618 62.7105 151.536 61.6988 151.589C60.6226 151.589 59.5511 151.589 58.4749 151.589C56.3272 151.633 54.1795 151.726 52.0367 151.883C51.9401 151.883 51.9257 152.039 52.0367 152.039C54.1795 152 56.3224 151.99 58.4652 152.039C59.5367 152.064 60.6081 152.103 61.6795 152.142C62.6875 152.249 63.7042 152.24 64.7104 152.117C64.7373 152.105 64.7602 152.086 64.7764 152.061C64.7926 152.036 64.8015 152.007 64.802 151.977C64.8025 151.947 64.7946 151.918 64.7792 151.893C64.7639 151.867 64.7417 151.847 64.7152 151.834Z" fill="#263238"/>
<path d="M63.6438 161.018C62.8137 160.739 61.776 160.906 60.9169 160.94C59.9517 160.985 58.972 161.021 57.9778 161.047C56.0183 161.111 54.0637 161.169 52.1042 161.16C52.0028 161.16 51.998 161.311 52.1042 161.311C54.0926 161.311 56.0859 161.38 58.0743 161.38C59.0395 161.38 60.0289 161.38 61.0086 161.38C61.8388 161.38 62.8764 161.458 63.6631 161.135C63.6784 161.133 63.6922 161.124 63.7012 161.111C63.7103 161.098 63.7139 161.082 63.7113 161.067C63.7088 161.051 63.7002 161.037 63.6876 161.028C63.6749 161.019 63.6591 161.015 63.6438 161.018Z" fill="#263238"/>
<path d="M14.02 125.651L32.6204 132.821C32.6204 132.821 37.4949 119.761 39.9901 108.495C42.4853 97.2287 36.7179 98.4604 29.826 105.611C22.9341 112.762 14.02 125.651 14.02 125.651Z" fill="#498AEC"/>
<path d="M38.3783 118.236C38.3797 118.227 38.3783 118.218 38.3743 118.21C38.3703 118.201 38.3638 118.195 38.3559 118.19C38.3479 118.186 38.3388 118.184 38.3299 118.186C38.3209 118.187 38.3126 118.191 38.3059 118.197C37.9826 118.808 37.6641 119.424 37.3407 120.04C37.6785 118.793 37.9922 117.537 38.2722 116.271C38.2722 116.232 38.2191 116.208 38.2046 116.247C37.2586 118.968 36.3336 121.695 35.4295 124.429C34.5318 127.166 33.499 129.864 32.6351 132.606C32.0994 132.498 31.8098 132.41 31.4092 132.342C31.3175 132.342 31.2596 132.43 31.3465 132.474C31.8271 132.737 32.3399 132.934 32.8716 133.06C34.0492 130.436 35.0048 127.488 35.9218 124.751C36.3754 123.407 36.7857 122.053 37.1621 120.695C37.6123 119.899 38.0183 119.078 38.3783 118.236Z" fill="#263238"/>
<path d="M32.7849 129.184C27.7029 126.916 22.5076 124.918 17.2202 123.197C17.143 123.173 17.0996 123.3 17.1768 123.334C22.2563 125.613 27.45 127.621 32.7366 129.351C32.8235 129.351 32.8718 129.219 32.7849 129.184Z" fill="#263238"/>
<path d="M141.163 166.13H67.7458V167.958H141.163V166.13Z" fill="#498AEC"/>
<path d="M99.5608 166.131V163.408L72.3455 163.941L68.7693 166.131H99.5608Z" fill="#EBEBEB"/>
<path d="M99.5605 166.131V163.408C99.5605 163.408 108.412 163.565 109.976 163.408C111.539 163.252 119.541 162.499 120.835 162.567C122.128 162.636 124.657 164.185 124.657 164.185V166.14L99.5605 166.131Z" fill="#DBDBDB"/>
<path d="M140.439 166.131L139.807 164.581C139.807 164.581 135.917 164.664 135.357 164.581C134.797 164.498 129.517 162.958 128.378 163.169C127.239 163.379 124.667 164.185 124.667 164.185V166.14L140.439 166.131Z" fill="#DBDBDB"/>
<path d="M39.0203 101.93C39.0782 103.015 42.7703 110.684 47.5145 111.325C49.0589 111.53 50.5502 103.045 50.5502 103.045L50.8012 102.444L54.3147 94.0221L44.0106 84.3835C44.0106 84.3835 39.0058 101.49 39.0203 101.93Z" fill="#F7A9A0"/>
<path d="M54.3145 94.027L50.7961 102.439L50.55 103.045C50.55 103.045 50.2749 104.58 49.8502 106.329C43.6147 104.184 41.5538 98.768 40.8782 95.1658C42.3164 90.2488 44.0104 84.3835 44.0104 84.3835L54.3145 94.027Z" fill="#263238"/>
<path d="M69.4981 80.327C68.2722 99.8778 56.5782 101.344 52.4131 101.061C48.639 100.811 35.806 99.4819 35.0386 79.9164C34.2713 60.351 43.6245 54.7497 52.2925 54.8523C60.9604 54.955 70.7288 60.786 69.4981 80.327Z" fill="#F7A9A0"/>
<path d="M64.7202 83.455C66.8534 83.6896 66.2308 87.9956 64.2375 87.7757C62.2443 87.5557 62.9344 83.2595 64.7202 83.455Z" fill="#263238"/>
<path d="M54.8647 82.4288C52.7411 82.1111 52.273 86.4318 54.2373 86.7251C56.2015 87.0183 56.6407 82.7074 54.8647 82.4288Z" fill="#263238"/>
<path d="M66.4767 80.9329C66.049 80.8048 65.6285 80.653 65.2171 80.4784C64.7529 80.383 64.3334 80.1336 64.025 79.7697C63.9483 79.6371 63.9175 79.4823 63.9376 79.33C63.9578 79.1777 64.0276 79.0365 64.136 78.929C64.3811 78.7477 64.6695 78.6359 64.9715 78.605C65.2735 78.574 65.5781 78.6252 65.8541 78.753C66.4554 78.9265 66.9714 79.3202 67.302 79.8576C67.3703 79.9846 67.4005 80.129 67.389 80.2731C67.3774 80.4172 67.3246 80.5548 67.237 80.6689C67.1494 80.7831 67.0308 80.8689 66.8957 80.9158C66.7607 80.9627 66.6151 80.9686 66.4767 80.9329Z" fill="#263238"/>
<path d="M53.3736 79.7893C53.8191 79.7814 54.2637 79.7488 54.7056 79.6916C55.1804 79.7211 55.6517 79.5924 56.0473 79.325C56.1554 79.2162 56.2249 79.0743 56.245 78.9214C56.2651 78.7684 56.2346 78.613 56.1583 78.4794C55.9673 78.24 55.7171 78.056 55.4332 77.9461C55.1492 77.8362 54.8416 77.8044 54.5416 77.8538C53.9194 77.8618 53.3224 78.1039 52.8668 78.5332C52.7689 78.6369 52.7027 78.7671 52.6762 78.9081C52.6498 79.0492 52.6642 79.1949 52.7178 79.3278C52.7714 79.4606 52.8619 79.5749 52.9783 79.6568C53.0946 79.7388 53.232 79.7848 53.3736 79.7893Z" fill="#263238"/>
<path d="M53.8177 94.2375C54.0687 94.6041 54.3004 95.0879 54.754 95.215C55.2346 95.3031 55.7282 95.2865 56.2019 95.1661C56.2113 95.1652 56.2207 95.167 56.2291 95.1713C56.2374 95.1757 56.2444 95.1825 56.249 95.1908C56.2536 95.1991 56.2557 95.2086 56.2551 95.2181C56.2544 95.2276 56.251 95.2368 56.2453 95.2444C56.0105 95.4638 55.7216 95.6151 55.409 95.6822C55.0965 95.7493 54.7718 95.7297 54.4693 95.6256C54.2188 95.5045 54.0098 95.3106 53.8688 95.0685C53.7278 94.8265 53.6613 94.5473 53.6778 94.2668C53.6778 94.1935 53.7791 94.1837 53.8177 94.2375Z" fill="#263238"/>
<path d="M59.9227 90.249C59.9227 90.249 59.9227 92.2628 59.7924 93.1816C59.7924 93.2696 59.5559 93.2794 59.2374 93.255C59.2374 93.255 59.2132 93.255 59.2036 93.255C58.3955 93.2898 57.5936 93.0989 56.8854 92.7032C56.1772 92.3076 55.5901 91.7223 55.1881 91.0115C55.1351 90.9089 55.2654 90.8307 55.3426 90.8991C56.4018 91.8747 57.7446 92.4766 59.1698 92.6147C59.2712 92.3654 59.0636 89.1346 59.2036 89.1933C59.8021 89.3839 60.8397 89.8042 61.2258 89.9607C61.2547 88.6556 61.1582 84.9459 61.2258 82.5656C61.2258 82.4189 61.4575 82.3994 61.4719 82.5411C61.8544 85.3073 62.0543 88.0962 62.0704 90.8893C62.0607 91.0799 60.2654 90.4348 59.9227 90.249Z" fill="#263238"/>
<g opacity="0.2">
<path d="M46.9307 85.205C46.9057 85.2612 46.8649 85.3088 46.8133 85.3416C46.7618 85.3744 46.7018 85.391 46.6409 85.3894C46.58 85.3878 46.521 85.368 46.4712 85.3325C46.4214 85.297 46.3831 85.2474 46.361 85.19C46.339 85.1325 46.3342 85.0696 46.3473 85.0094C46.3604 84.9492 46.3908 84.8942 46.4347 84.8515C46.4785 84.8087 46.5339 84.78 46.5938 84.7689C46.6537 84.7579 46.7155 84.7651 46.7714 84.7895C46.8465 84.8238 46.9053 84.8865 46.9351 84.9643C46.9648 85.042 46.9633 85.1284 46.9307 85.205Z" fill="black"/>
<path d="M53.0459 87.5217C53.0301 87.5596 53.0071 87.594 52.9781 87.6228C52.9492 87.6517 52.9149 87.6745 52.8773 87.6899C52.8396 87.7054 52.7993 87.7131 52.7587 87.7128C52.718 87.7124 52.6779 87.704 52.6405 87.6879C52.565 87.6548 52.5055 87.5927 52.4752 87.5153C52.4449 87.4378 52.4462 87.3513 52.4788 87.2749C52.5115 87.1984 52.5728 87.1382 52.6493 87.1074C52.7257 87.0767 52.8111 87.078 52.8866 87.1111C52.9241 87.127 52.958 87.1504 52.9863 87.1798C53.0147 87.2092 53.0369 87.2441 53.0518 87.2824C53.0666 87.3206 53.0738 87.3615 53.0728 87.4026C53.0717 87.4437 53.0626 87.4842 53.0459 87.5217Z" fill="black"/>
<path d="M50.0384 88.7387C50.0046 88.8147 49.9426 88.8742 49.8659 88.9044C49.7891 88.9346 49.7038 88.933 49.6282 88.9C49.5907 88.884 49.5568 88.8607 49.5283 88.8313C49.4998 88.802 49.4773 88.7673 49.462 88.7292C49.4468 88.691 49.4391 88.6502 49.4395 88.6091C49.4398 88.568 49.4482 88.5273 49.4641 88.4894C49.5013 88.4197 49.5629 88.3665 49.6369 88.3404C49.7108 88.3144 49.7917 88.3172 49.8636 88.3484C49.9356 88.3797 49.9934 88.437 50.0258 88.5092C50.0581 88.5814 50.0626 88.6633 50.0384 88.7387Z" fill="black"/>
<path d="M48.108 82.8734C48.0841 82.9303 48.0441 82.9788 47.9931 83.0127C47.942 83.0466 47.8821 83.0644 47.8211 83.0638C47.76 83.0633 47.7005 83.0445 47.65 83.0097C47.5995 82.9749 47.5604 82.9257 47.5375 82.8684C47.5145 82.8111 47.5089 82.7482 47.5213 82.6876C47.5337 82.6271 47.5635 82.5716 47.607 82.5282C47.6505 82.4848 47.7057 82.4554 47.7657 82.4438C47.8257 82.4322 47.8877 82.4388 47.9439 82.4629C47.9814 82.4789 48.0153 82.5022 48.0438 82.5315C48.0723 82.5608 48.0948 82.5955 48.1101 82.6337C48.1253 82.6718 48.133 82.7126 48.1326 82.7538C48.1323 82.7949 48.1239 82.8356 48.108 82.8734Z" fill="black"/>
<path d="M50.2461 85.7376C50.2326 85.7796 50.2106 85.8183 50.1816 85.8512C50.1525 85.8841 50.117 85.9105 50.0773 85.9287C50.0376 85.947 49.9946 85.9566 49.951 85.9571C49.9074 85.9576 49.8642 85.9488 49.8242 85.9314C49.7841 85.914 49.7481 85.8884 49.7183 85.8561C49.6886 85.8238 49.6658 85.7856 49.6515 85.7439C49.6372 85.7022 49.6316 85.658 49.635 85.614C49.6385 85.57 49.651 85.5272 49.6717 85.4884C49.6852 85.4464 49.7072 85.4077 49.7363 85.3748C49.7653 85.3419 49.8008 85.3155 49.8405 85.2973C49.8802 85.2791 49.9232 85.2694 49.9668 85.2689C50.0104 85.2685 50.0536 85.2772 50.0936 85.2946C50.1337 85.312 50.1698 85.3377 50.1995 85.3699C50.2292 85.4022 50.252 85.4404 50.2663 85.4821C50.2807 85.5238 50.2863 85.568 50.2828 85.612C50.2793 85.656 50.2668 85.6988 50.2461 85.7376Z" fill="black"/>
<path d="M66.7712 87.9517C66.7383 88.0286 66.6767 88.0892 66.5999 88.1203C66.523 88.1515 66.4372 88.1506 66.361 88.1179C66.3195 88.1042 66.2813 88.082 66.2489 88.0526C66.2164 88.0231 66.1903 87.9872 66.1723 87.947C66.1543 87.9068 66.1448 87.8632 66.1443 87.8191C66.1438 87.7749 66.1525 87.7312 66.1697 87.6906C66.1868 87.65 66.2121 87.6135 66.244 87.5834C66.2759 87.5533 66.3136 87.5303 66.3548 87.5157C66.3959 87.5012 66.4396 87.4955 66.4831 87.4991C66.5265 87.5026 66.5688 87.5153 66.6071 87.5362C66.6831 87.5696 66.7429 87.6319 66.7736 87.7098C66.8044 87.7876 66.8035 87.8745 66.7712 87.9517Z" fill="black"/>
<path d="M63.8368 88.6262C63.8129 88.6832 63.7729 88.7316 63.7218 88.7655C63.6707 88.7994 63.6109 88.8172 63.5498 88.8167C63.4888 88.8161 63.4293 88.7973 63.3788 88.7625C63.3283 88.7277 63.2891 88.6785 63.2662 88.6212C63.2433 88.5639 63.2377 88.501 63.2501 88.4404C63.2624 88.3799 63.2923 88.3244 63.3358 88.281C63.3793 88.2376 63.4345 88.2082 63.4945 88.1966C63.5544 88.185 63.6164 88.1916 63.6727 88.2157C63.7101 88.2317 63.7441 88.255 63.7726 88.2843C63.8011 88.3136 63.8236 88.3483 63.8388 88.3865C63.8541 88.4246 63.8618 88.4654 63.8614 88.5066C63.8611 88.5477 63.8527 88.5884 63.8368 88.6262Z" fill="black"/>
<path d="M63.6003 90.7866C63.5868 90.8285 63.5649 90.8672 63.5358 90.9001C63.5068 90.933 63.4713 90.9594 63.4316 90.9776C63.3919 90.9959 63.3488 91.0055 63.3053 91.006C63.2617 91.0064 63.2185 90.9977 63.1784 90.9803C63.1384 90.9629 63.1023 90.9373 63.0726 90.905C63.0429 90.8727 63.0201 90.8345 63.0058 90.7928C62.9914 90.7512 62.9858 90.7069 62.9893 90.6629C62.9928 90.6189 63.0053 90.5761 63.026 90.5373C63.0632 90.4675 63.1248 90.4144 63.1988 90.3883C63.2727 90.3622 63.3536 90.3651 63.4256 90.3963C63.4975 90.4275 63.5554 90.4849 63.5877 90.5571C63.62 90.6293 63.6245 90.7112 63.6003 90.7866Z" fill="black"/>
<path d="M66.11 90.3026C66.0861 90.3595 66.0461 90.408 65.995 90.4419C65.9439 90.4758 65.8841 90.4936 65.823 90.4931C65.762 90.4925 65.7024 90.4737 65.652 90.4389C65.6015 90.4041 65.5623 90.3549 65.5394 90.2976C65.5165 90.2403 65.5109 90.1774 65.5233 90.1168C65.5356 90.0563 65.5655 90.0008 65.609 89.9574C65.6524 89.914 65.7077 89.8846 65.7676 89.873C65.8276 89.8614 65.8896 89.868 65.9459 89.8921C65.9833 89.9081 66.0173 89.9314 66.0458 89.9607C66.0743 89.99 66.0968 90.0248 66.112 90.0629C66.1273 90.101 66.1349 90.1418 66.1346 90.183C66.1342 90.2241 66.1259 90.2648 66.11 90.3026Z" fill="black"/>
</g>
<path d="M35.7768 81.7639C39.464 82.2527 42.0027 73.1517 42.0027 73.1517C42.0027 73.1517 46.8917 72.6923 50.5355 64.7889C50.5355 64.7889 51.3608 73.7969 66.6262 76.0697C67.7973 73.5472 68.1552 70.7156 67.6494 67.9757C68.4141 70.9527 68.9354 73.9885 69.2083 77.0521C69.2083 77.0521 76.0905 65.5807 66.7951 58.298C63.0934 55.3996 56.66 54.0017 45.714 56.1621C45.714 56.1621 45.439 49.8081 44.1214 50.2675C42.8038 50.727 43.4747 56.778 43.4747 56.778C43.4747 56.778 39.6137 54.2852 38.6484 54.9842C37.8231 55.5854 41.6117 57.7946 41.6117 57.7946C41.6117 57.7946 34.5702 58.0976 33.6098 65.9619C32.7121 73.1957 33.9525 81.5244 35.7768 81.7639Z" fill="#263238"/>
<path d="M42.7988 58.0392C40.9457 57.4607 38.9476 57.5887 37.1811 58.399C35.4147 59.2092 34.0019 60.6459 33.2091 62.4381C32.3259 64.4959 32.2438 66.9495 32.3597 69.1538C32.5589 71.5319 33.0585 73.8743 33.8461 76.1237C33.8896 76.2508 34.0778 76.1677 34.0344 76.0406C33.3859 73.9533 33.0603 71.777 33.0691 69.5888C33.0353 67.5507 33.1125 65.3317 33.7303 63.3815C34.3261 61.5398 35.5838 59.9923 37.2539 59.0461C38.924 58.0999 40.8843 57.8242 42.7458 58.2738C42.8664 58.2836 42.9195 58.0734 42.7988 58.0392Z" fill="#263238"/>
<path d="M58.8996 53.9139C56.2264 53.7918 53.5489 54.0268 50.9363 54.6128C48.4301 55.0535 46.0163 55.9229 43.7983 57.1838C43.7733 57.1954 43.7539 57.2167 43.7444 57.2428C43.7349 57.2689 43.7361 57.2978 43.7476 57.3231C43.7591 57.3483 43.7801 57.3679 43.8059 57.3776C43.8317 57.3872 43.8602 57.3861 43.8851 57.3744C48.3639 55.5757 53.3784 54.9941 58.1757 54.9305C62.6641 54.8768 67.5917 56.2453 69.8407 60.5514C69.8494 60.5631 69.8619 60.5715 69.876 60.575C69.8901 60.5785 69.9049 60.5769 69.918 60.5706C69.9311 60.5643 69.9416 60.5535 69.9477 60.5402C69.9539 60.5269 69.9553 60.5119 69.9517 60.4976C68.0888 56.128 63.3349 54.1778 58.8996 53.9139Z" fill="#263238"/>
<path d="M50.5209 90.1073C49.2962 89.787 48.1848 89.1251 47.3133 88.1967C46.4417 87.2683 45.845 86.1109 45.591 84.856C45.337 83.6011 45.4359 82.2992 45.8765 81.0984C46.317 79.8977 47.0816 78.8463 48.0831 78.0638C49.0846 77.2814 50.2828 76.7994 51.5415 76.6726C52.8002 76.5459 54.0687 76.7795 55.2027 77.3468C56.3368 77.9142 57.2908 78.7925 57.9563 79.8819C58.6217 80.9713 58.9718 82.2279 58.9668 83.5089C58.9592 85.3186 58.2439 87.0516 56.9776 88.3285C55.7113 89.6055 53.9971 90.3224 52.2101 90.3224C51.6402 90.3252 51.0724 90.2529 50.5209 90.1073ZM53.6773 77.7512C53.2047 77.6249 52.7181 77.5608 52.2294 77.5606C50.7388 77.554 49.3018 78.1231 48.2109 79.1518C47.1201 80.1806 46.4574 81.5918 46.3579 83.098C46.2584 84.6043 46.7295 86.0923 47.6752 87.2591C48.621 88.4259 49.9704 89.1837 51.4486 89.3783C52.9267 89.573 54.4226 89.1897 55.6315 88.3065C56.8404 87.4234 57.6715 86.1068 57.9556 84.6249C58.2396 83.143 57.9553 81.6071 57.1604 80.3301C56.3656 79.053 55.12 78.1308 53.6773 77.7512Z" fill="#455A64"/>
<path d="M65.3236 92.0085C62.8188 91.3487 61.2117 88.1619 61.6895 84.6281C61.8907 82.9345 62.6095 81.3469 63.7455 80.0874C64.1999 79.5162 64.7922 79.0734 65.4652 78.8019C66.1381 78.5304 66.8688 78.4394 67.5867 78.5377C68.3045 78.636 68.9851 78.9203 69.5627 79.363C70.1402 79.8058 70.5952 80.392 70.8835 81.065C71.6432 82.5869 71.9116 84.312 71.6509 85.9967C71.1682 89.7358 68.5041 92.4631 65.758 92.0819C65.612 92.0654 65.467 92.0409 65.3236 92.0085ZM67.8043 79.496C67.6933 79.4657 67.5805 79.4429 67.4665 79.4276C66.8918 79.3752 66.313 79.4633 65.7789 79.6844C65.2448 79.9055 64.7709 80.2533 64.397 80.6984C63.3928 81.8182 62.7599 83.2282 62.5872 84.7308C62.148 87.9664 63.6152 90.8551 65.8787 91.1679C68.1422 91.4807 70.3188 89.1004 70.758 85.8647C70.9943 84.3629 70.7579 82.8239 70.0823 81.4658C69.8586 80.9952 69.5405 80.577 69.1483 80.2378C68.756 79.8987 68.2983 79.6461 67.8043 79.496Z" fill="#455A64"/>
<path d="M58.7257 84.2712L58.3203 83.6163C59.2856 83.0102 61.385 82.3064 62.5626 83.9878L61.94 84.4325C60.8637 82.9174 58.7885 84.2175 58.7257 84.2712Z" fill="#455A64"/>
<path d="M31.2791 81.9741L30.6565 81.5342C30.864 81.236 32.7028 78.6602 34.4258 78.6016C36.0329 78.5625 46.0088 80.9281 46.4335 81.0454L46.2598 81.7981C43.4026 81.1187 35.6855 79.3543 34.4451 79.3934C33.3061 79.4129 31.7762 81.2653 31.2791 81.9741Z" fill="#455A64"/>
<path d="M38.586 81.9398C38.586 81.9398 35.3186 75.2583 32.3842 76.3482C29.4499 77.4382 31.2839 86.6808 34.281 88.3671C34.6508 88.6104 35.0655 88.7753 35.5 88.852C35.9344 88.9286 36.3798 88.9154 36.8091 88.8131C37.2384 88.7108 37.6428 88.5215 37.9979 88.2567C38.3531 87.9919 38.6516 87.657 38.8756 87.2722L38.586 81.9398Z" fill="#F7A9A0"/>
<path d="M32.973 79.0072C32.9248 79.0072 32.9006 79.0659 32.9441 79.0903C35.0387 80.3464 35.8977 82.6192 36.3948 84.9115C35.8591 83.978 35.0242 83.3817 33.7983 84.0122C33.7356 84.0415 33.7983 84.1442 33.8417 84.1393C34.2529 84.0731 34.6742 84.1377 35.0476 84.3241C35.421 84.5106 35.7282 84.8098 35.9267 85.1804C36.2534 85.8023 36.5139 86.4577 36.7037 87.1354C36.7809 87.3554 37.1574 87.3016 37.1139 87.0572C37.1139 87.0572 37.1139 87.0181 37.1139 87.0035C37.5917 84.1246 35.9846 79.755 32.973 79.0072Z" fill="#263238"/>
</svg>
