<svg xmlns="http://www.w3.org/2000/svg" version="1.1" xmlns:xlink="http://www.w3.org/1999/xlink" xmlns:svgjs="http://svgjs.dev/svgjs" width="1500" height="628" viewBox="0 0 1500 628"><g transform="matrix(1,0,0,1,-0.9090909090909918,-1.6579466145082051)"><svg viewBox="0 0 396 166" data-background-color="#000000" preserveAspectRatio="xMidYMid meet" height="628" width="1500" xmlns="http://www.w3.org/2000/svg" xmlns:xlink="http://www.w3.org/1999/xlink"><g id="tight-bounds" transform="matrix(1,0,0,1,0.2400000000000091,0.4382470350451655)"><svg viewBox="0 0 395.52 165.12350592990967" height="165.12350592990967" width="395.52"><g><svg viewBox="0 0 395.52 165.12350592990967" height="165.12350592990967" width="395.52"><g transform="matrix(1,0,0,1,0,102.0529510912)"><svg viewBox="0 0 395.52 63.070554838709675" height="63.070554838709675" width="395.52"><g id="textblocktransform"><svg viewBox="0 0 395.52 63.070554838709675" height="63.070554838709675" width="395.52" id="textblock"><g><svg viewBox="0 0 395.52 63.070554838709675" height="63.070554838709675" width="395.52"><g transform="matrix(1,0,0,1,0,0)"><svg width="395.52" viewBox="1.71 -35.4 227.03 36.21" height="63.070554838709675" data-palette-color="#ffffff"><path d="M10.89-32.35L10.89-32.35Q10.89-31.08 10.01-30.16 9.13-29.25 7.86-29.25L7.86-29.25Q6.59-29.25 5.68-30.16 4.76-31.08 4.76-32.35L4.76-32.35Q4.76-33.64 5.68-34.52 6.59-35.4 7.86-35.4L7.86-35.4Q9.13-35.4 10.01-34.52 10.89-33.64 10.89-32.35ZM13.45-1.95L13.45 0 1.71 0 1.71-1.95 4.15-2.1Q5.2-2.17 5.2-3.2L5.2-3.2 5.2-21.04 1.76-21.04 1.76-22.8 7.86-24.71 9.84-24.71 9.84-3.2Q9.84-2.73 10.14-2.44 10.45-2.15 10.89-2.1L10.89-2.1 13.45-1.95ZM30.47-13.31L30.47-9.64 18.16-9.64 18.16-13.31 30.47-13.31ZM59.17-9.3L59.17 0 34.86 0 34.86-2.15 37.76-2.34Q38.3-2.39 38.56-2.73 38.81-3.08 38.81-3.44L38.81-3.44 38.81-30.1Q38.81-30.47 38.56-30.82 38.3-31.18 37.76-31.2L37.76-31.2 34.86-31.4 34.86-33.54 47.63-33.54 47.63-31.4 44.97-31.2Q44.43-31.18 44.15-30.82 43.87-30.47 43.87-30.1L43.87-30.1 43.87-2.44 54.37-2.44Q54.71-2.44 55.07-2.71 55.44-2.98 55.46-3.3L55.46-3.3 56.27-9.3 59.17-9.3ZM82.85-5.54L82.85-2.49Q80.75-1.2 78.33-0.29 75.9 0.61 73.36 0.61L73.36 0.61Q70.33 0.61 67.68-0.74 65.03-2.1 63.4-4.86 61.76-7.62 61.76-11.79L61.76-11.79Q61.76-15.7 63.27-18.6 64.79-21.51 67.45-23.11 70.11-24.71 73.5-24.71L73.5-24.71Q78.17-24.71 80.51-21.81 82.85-18.92 82.85-14.45L82.85-14.45Q82.85-14.21 82.85-13.81 82.85-13.4 82.81-13.06L82.81-13.06 66.59-13.06Q66.59-11.16 67-9.27 67.4-7.37 68.35-5.83 69.3-4.3 70.92-3.37 72.53-2.44 74.94-2.44L74.94-2.44Q77.09-2.44 79.13-3.43 81.17-4.42 82.85-5.54L82.85-5.54ZM66.86-15.31L77.85-15.31 77.85-16.41Q77.85-18.87 76.66-20.56 75.48-22.24 72.99-22.24L72.99-22.24Q70.52-22.24 68.79-20.39 67.06-18.53 66.86-15.31L66.86-15.31ZM109.17-1.95L109.17 0 101.77 0 101.11-2.95Q101.11-2.95 100.37-2.42 99.62-1.88 98.4-1.17 97.18-0.46 95.71 0.07 94.23 0.61 92.76 0.61L92.76 0.61Q90.05 0.61 88.16-1.2 86.27-3 86.27-6.15L86.27-6.15Q86.27-7.54 86.77-8.74 87.27-9.94 88.77-11.02 90.27-12.11 93.24-13.15 96.21-14.18 101.11-15.26L101.11-15.26 101.11-17.41Q101.11-22.34 96.45-22.34L96.45-22.34Q95.16-22.34 94.22-22.09 93.28-21.85 92.91-21.7L92.91-21.7 92.91-17.36 89.27-17.36Q88.59-17.36 88-17.61 87.42-17.87 87.42-18.8L87.42-18.8Q87.42-20.85 88.98-22.16 90.54-23.46 92.95-24.08 95.35-24.71 97.82-24.71L97.82-24.71Q100.92-24.71 102.63-23.74 104.34-22.78 105.02-21.08 105.7-19.38 105.7-17.21L105.7-17.21 105.7-3.2Q105.7-2.73 106.01-2.44 106.31-2.15 106.75-2.1L106.75-2.1 109.17-1.95ZM101.11-4.71L101.11-4.71 101.11-13.35Q97.74-12.52 95.75-11.68 93.76-10.84 92.79-10 91.81-9.16 91.51-8.29 91.2-7.42 91.2-6.49L91.2-6.49Q91.2-4.96 92.19-3.65 93.18-2.34 94.96-2.34L94.96-2.34Q95.96-2.34 97.04-2.7 98.11-3.05 99.04-3.53 99.97-4 100.54-4.36 101.11-4.71 101.11-4.71ZM129.04-23.95L129.04-18.99 127.09-18.99Q126.62-19.56 125.98-19.96 125.33-20.36 124.4-20.36L124.4-20.36Q123.21-20.36 121.95-19.53 120.69-18.7 119.4-17.26L119.4-17.26 119.4-3.2Q119.4-2.15 120.45-2.1L120.45-2.1 123.74-1.95 123.74 0 111.24 0 111.24-1.9 113.71-2.1Q114.15-2.15 114.45-2.44 114.76-2.73 114.76-3.2L114.76-3.2 114.76-20.56 111.14-20.56 111.14-22.19 117.35-24.1 119.4-24.1 119.4-19.65Q120.13-20.46 121.23-21.66 122.33-22.85 123.57-23.78 124.82-24.71 125.99-24.71L125.99-24.71Q126.77-24.71 127.67-24.46 128.58-24.22 129.04-23.95L129.04-23.95ZM156.89-1.95L156.89 0 145.86 0 145.86-1.95 147.96-2.1Q148.4-2.15 148.7-2.44 149.01-2.73 149.01-3.2L149.01-3.2 149.01-16.21Q149.01-18.58 147.91-19.81 146.81-21.04 144.2-21.04L144.2-21.04Q142.78-21.04 141.38-20.64 139.98-20.24 138.71-19.6L138.71-19.6 138.71-3.2Q138.71-2.17 139.76-2.1L139.76-2.1 141.86-1.95 141.86 0 130.55 0 130.55-1.95 132.99-2.1Q134.04-2.17 134.04-3.2L134.04-3.2 134.04-20.56 130.55-20.56 130.55-22.19 136.65-24.1 138.71-24.1 138.71-21.61Q140.81-22.8 143.01-23.75 145.22-24.71 146.96-24.71L146.96-24.71Q150.23-24.71 151.94-22.67 153.65-20.63 153.65-16.99L153.65-16.99 153.65-3.2Q153.65-2.73 153.95-2.44 154.26-2.15 154.7-2.1L154.7-2.1 156.89-1.95ZM203.35-33.54L203.35-31.4 200.44-31.2Q199.93-31.18 199.66-30.82 199.39-30.47 199.39-30.1L199.39-30.1 199.39-12.65Q199.39-8.5 198.33-5.48 197.27-2.47 194.87-0.83 192.46 0.81 188.41 0.81L188.41 0.81Q186.8 0.81 185.29 0.48 183.79 0.15 182.79-0.21 181.79-0.56 181.65-0.61L181.65-0.61 181.65-9.16 184.65-9.16 185.75-3.05Q185.89-2.29 186.59-2.03 187.28-1.76 188.04-1.76L188.04-1.76Q191.46-1.76 192.9-4.41 194.34-7.06 194.34-12.3L194.34-12.3 194.34-30.1Q194.34-30.47 194.08-30.82 193.83-31.18 193.29-31.2L193.29-31.2 190.14-31.4 190.14-33.54 203.35-33.54ZM228.74-9.4L228.74-9.4Q228.74-6.88 227.38-4.54 226.03-2.2 223.11-0.7 220.19 0.81 215.48 0.81L215.48 0.81Q212.79 0.81 210.79 0.34 208.79-0.12 207.69-0.59 206.59-1.05 206.59-1.05L206.59-1.05 206.59-9.91 209.74-9.91 210.4-4.25Q210.45-3.96 210.72-3.61 210.99-3.27 211.23-3.15L211.23-3.15Q211.35-3.13 212.66-2.56 213.97-2 216.29-2L216.29-2Q219.48-2 221.56-3.56 223.63-5.13 223.63-7.91L223.63-7.91Q223.63-9.42 222.79-10.56 221.95-11.69 220.61-12.57 219.26-13.45 217.74-14.17 216.21-14.89 214.85-15.55L214.85-15.55Q212.79-16.53 211.04-17.64 209.28-18.75 208.21-20.39 207.13-22.02 207.13-24.56L207.13-24.56Q207.13-27.54 208.64-29.74 210.16-31.93 212.77-33.14 215.38-34.35 218.68-34.35L218.68-34.35Q221.36-34.35 223.42-33.83 225.47-33.3 227.05-32.79L227.05-32.79 227.49-32.64 227.49-24.85 224.64-24.85 223.88-29.64Q223.83-29.98 223.57-30.14 223.32-30.3 223.1-30.52L223.1-30.52Q222.9-30.66 221.89-31.15 220.88-31.64 218.75-31.64L218.75-31.64Q215.75-31.64 214.02-29.97 212.28-28.3 212.28-25.76L212.28-25.76Q212.28-23.46 214.08-21.95 215.87-20.43 219.24-19.14L219.24-19.14Q223.78-17.43 226.26-15.3 228.74-13.16 228.74-9.4Z" opacity="1" transform="matrix(1,0,0,1,0,0)" fill="#ffffff" class="wordmark-text-0" data-fill-palette-color="primary" id="text-0"></path></svg></g></svg></g></svg></g></svg></g><g transform="matrix(1,0,0,1,125.12276361702858,0)"><svg viewBox="0 0 145.27447276594282 87.16350678709678" height="87.16350678709678" width="145.27447276594282"><g><svg xmlns="http://www.w3.org/2000/svg" xmlns:xlink="http://www.w3.org/1999/xlink" version="1.1" x="8" y="0" viewBox="6.25 19.849 83.5 56.3" enable-background="new 0 0 96 96" xml:space="preserve" height="87.16350678709678" width="129.27447276594282" class="icon-icon-0" data-fill-palette-color="accent" id="icon-0"><path d="M47.25 69.385V22.514C45.386 21.915 38.305 19.851 29.295 19.851 23.329 19.851 17.67 20.745 12.463 22.508V69.374C17.692 67.665 23.348 66.798 29.295 66.798 37.983 66.798 44.779 68.62 47.25 69.385M41.296 35.94L40.787 37.351C40.679 37.311 29.86 33.508 18.921 37.353L18.424 35.938C29.881 31.911 40.835 35.773 41.296 35.94M41.296 44.939L40.787 46.35C40.679 46.31 29.86 42.508 18.921 46.352L18.424 44.937C29.881 40.91 40.835 44.773 41.296 44.939M18.424 53.938C29.881 49.911 40.835 53.774 41.296 53.94L40.787 55.351C40.679 55.312 29.86 51.508 18.921 55.353z" fill="#ffffff" data-fill-palette-color="accent"></path><path d="M83.537 69.384V47.642L80.551 55.363 74.881 61.692 74.945 54.743C71.25 53.837 63.265 52.52 55.208 55.352L54.711 53.937C62.97 51.034 70.965 52.231 74.96 53.187L74.962 52.927 83.537 30.63V22.512C81.649 21.907 74.567 19.849 65.582 19.849 59.615 19.849 53.958 20.751 48.75 22.515V69.384C53.979 67.674 59.633 66.797 65.582 66.797 74.26 66.798 81.058 68.618 83.537 69.384M77.583 35.94L77.074 37.351C76.966 37.311 66.148 33.508 55.208 37.353L54.711 35.938C66.168 31.911 77.122 35.773 77.583 35.94M77.583 44.939L77.074 46.35C76.966 46.31 66.148 42.508 55.208 46.352L54.711 44.937C66.168 40.91 77.122 44.773 77.583 44.939" fill="#ffffff" data-fill-palette-color="accent"></path><path d="M85.037 71.487L84.033 71.125C83.954 71.097 76.065 68.297 65.582 68.297 59.425 68.297 53.593 69.249 48.249 71.127L47.997 71.215 47.746 71.125C47.667 71.097 39.778 68.297 29.296 68.297 23.138 68.297 17.307 69.249 11.963 71.127L10.964 71.478V26.202H6.25V76.149H89.75V31.577L85.037 43.764z" fill="#ffffff" data-fill-palette-color="accent"></path><polygon points="76.412,53.338 76.411,53.57 76.405,55.138 76.395,57.754 79.342,54.465 83.537,43.555 85.037,39.655 87.836,32.376   85.037,31.3 84.906,31.25 83.537,34.81 " fill="#ffffff" data-fill-palette-color="accent"></polygon><polygon points="85.037,29.693 89.75,31.506 89.75,26.202 85.037,26.202 " fill="#ffffff" data-fill-palette-color="accent"></polygon></svg></g></svg></g><g><rect width="125.12276361702858" height="5.687767724167432" y="80.47573906292934" x="270.3972363829714" fill="#ffffff" data-fill-palette-color="accent"></rect><rect width="125.12276361702858" height="5.687767724167432" y="80.47573906292934" x="0" fill="#ffffff" data-fill-palette-color="accent"></rect><rect width="125.12276361702858" height="5.687767724167432" y="69.10020361459448" x="270.3972363829714" fill="#ffffff" data-fill-palette-color="accent"></rect><rect width="125.12276361702858" height="5.687767724167432" y="69.10020361459448" x="0" fill="#ffffff" data-fill-palette-color="accent"></rect></g></svg></g><defs></defs></svg><rect width="395.52" height="165.12350592990967" fill="none" stroke="none" visibility="hidden"></rect></g></svg></g></svg>